<?xml version="1.0" encoding="UTF-8"?>
<svg version="1.1" xmlns="http://www.w3.org/2000/svg" width="1024" height="1024">
<path d="M0 0 C337.92 0 675.84 0 1024 0 C1024 337.92 1024 675.84 1024 1024 C686.08 1024 348.16 1024 0 1024 C0 686.08 0 348.16 0 0 Z " fill="#041A2D" transform="translate(0,0)"/>
<path d="M0 0 C2.11520764 0.64869852 4.23112057 1.29510086 6.34765625 1.93945312 C7.4351416 2.27372314 8.52262695 2.60799316 9.64306641 2.95239258 C15.12957612 4.60333982 20.65704486 6.09797071 26.1875 7.59375 C27.8274292 8.04022888 27.8274292 8.04022888 29.50048828 8.49572754 C33.96399631 9.71085204 38.42864795 10.92171179 42.89404297 12.12988281 C46.22193227 13.03121591 49.54852565 13.9372111 52.875 14.84375 C53.87398315 15.11253967 54.87296631 15.38132935 55.90222168 15.65826416 C61.38965787 17.15653185 66.67714238 18.8636745 71.96875 20.953125 C67.442631 27.06945 62.7433306 33.02908256 57.96875 38.953125 C41.47552049 35.1551567 25.16412863 30.81071482 8.85107422 26.30810547 C5.70635854 25.44146651 2.56028027 24.57991696 -0.5859375 23.71875 C-1.53387177 23.45523743 -2.48180603 23.19172485 -3.45846558 22.92022705 C-11.72661957 20.65975567 -17.98133488 19.48658084 -26.28125 21.90234375 C-27.05702393 22.11623245 -27.83279785 22.33012115 -28.63208008 22.55049133 C-31.1022138 23.23452527 -33.56662417 23.93703358 -36.03125 24.640625 C-37.65459486 25.09436399 -39.27829092 25.54684846 -40.90234375 25.99804688 C-44.11969741 26.89323152 -47.33529157 27.79437829 -50.54980469 28.69970703 C-55.53987774 30.10084569 -60.54619656 31.43662564 -65.55664062 32.76293945 C-70.35839291 34.03619796 -75.15373673 35.33305321 -79.94958496 36.62834167 C-84.94031979 37.97594489 -89.93206508 39.31978547 -94.92382812 40.66357422 C-97.51728174 41.36249355 -100.11043595 42.06242027 -102.703125 42.76416016 C-106.47285403 43.78438851 -110.24418951 44.79859722 -114.015625 45.8125 C-115.75921295 46.28583771 -115.75921295 46.28583771 -117.5380249 46.76873779 C-118.61054504 47.05613831 -119.68306519 47.34353882 -120.78808594 47.63964844 C-122.20247955 48.02126129 -122.20247955 48.02126129 -123.64544678 48.4105835 C-126.03125 48.953125 -126.03125 48.953125 -129.03125 48.953125 C-128.99390595 63.93183869 -128.93378764 78.91033628 -128.84734726 93.88884735 C-128.80771937 100.8453352 -128.77524515 107.80171259 -128.76025391 114.75830078 C-128.74574298 121.48230891 -128.71044755 128.20592508 -128.66294098 134.92979431 C-128.64819932 137.48433947 -128.64021317 140.03893357 -128.63936615 142.59352112 C-128.63025672 156.3017143 -128.36710011 168.85952721 -124.03125 181.953125 C-123.65345398 183.16601196 -123.27565796 184.37889893 -122.88641357 185.62854004 C-116.69925846 204.98571923 -105.26752783 221.59412063 -91.03125 235.953125 C-90.37125 236.283125 -89.71125 236.613125 -89.03125 236.953125 C-89.03125 225.403125 -89.03125 213.853125 -89.03125 201.953125 C-84.23092373 201.2673641 -80.19847017 200.83270768 -75.44140625 200.85546875 C-73.64799805 200.86030273 -73.64799805 200.86030273 -71.81835938 200.86523438 C-70.58923828 200.87361328 -69.36011719 200.88199219 -68.09375 200.890625 C-66.83755859 200.89513672 -65.58136719 200.89964844 -64.28710938 200.90429688 C-61.20177337 200.91602819 -58.11653684 200.932444 -55.03125 200.953125 C-53.97481662 214.77619928 -53.71558808 228.59593763 -53.46875 242.453125 C-53.42544689 244.74089143 -53.38182936 247.02865194 -53.33789062 249.31640625 C-53.23147788 254.86191572 -53.13149807 260.40748715 -53.03125 265.953125 C-46.43125 269.583125 -39.83125 273.213125 -33.03125 276.953125 C-33.03125 239.003125 -33.03125 201.053125 -33.03125 161.953125 C-21.15125 161.953125 -9.27125 161.953125 2.96875 161.953125 C3.29875 198.583125 3.62875 235.213125 3.96875 272.953125 C22.58561034 264.82802636 22.58561034 264.82802636 25.29154968 255.92280579 C25.44278304 252.6833202 25.44278304 252.6833202 25.2175293 249.3215332 C25.23005737 248.11048416 25.24258545 246.89943512 25.25549316 245.65168762 C25.27117744 242.36161402 25.20364735 239.08654672 25.09716392 235.79858422 C25.00583158 232.35279305 25.02334212 228.9074914 25.02876282 225.46073914 C25.02273993 218.9493474 24.92041869 212.44326218 24.78249437 205.93347377 C24.63010995 198.51644539 24.58656713 191.09998647 24.55165613 183.68162024 C24.47749551 168.43564495 24.25397395 153.19683454 23.96875 137.953125 C35.84875 137.953125 47.72875 137.953125 59.96875 137.953125 C59.96875 167.983125 59.96875 198.013125 59.96875 228.953125 C60.62875 228.953125 61.28875 228.953125 61.96875 228.953125 C62.33806641 228.12554688 62.33806641 228.12554688 62.71484375 227.28125 C64.21777201 224.49076637 66.06311391 222.18846088 68.03125 219.703125 C84.32675355 198.49098956 92.41071737 174.36095557 92.39453125 147.7109375 C92.39479435 146.9980551 92.39505745 146.28517269 92.39532852 145.55068779 C92.38847259 138.87510025 92.31418541 132.20063296 92.21264648 125.52587891 C92.15887395 121.83142018 92.14410627 118.13838263 92.15224266 114.44356918 C92.14715729 113.05366851 92.12692712 111.6637294 92.09053993 110.27429581 C91.80944249 99.51934251 91.80944249 99.51934251 94.70336914 95.60966492 C96.70846389 93.84840246 98.73654138 92.40777673 100.96875 90.953125 C101.96295052 90.02527161 102.93243603 89.06974896 103.8671875 88.08203125 C104.68445313 87.23511719 105.50171875 86.38820313 106.34375 85.515625 C107.17648437 84.65066406 108.00921875 83.78570312 108.8671875 82.89453125 C110.96875 80.953125 110.96875 80.953125 112.96875 80.953125 C113.01531317 91.28967463 113.05074015 101.62619887 113.07237434 111.96283245 C113.08276333 116.76375245 113.09683213 121.56460012 113.11962891 126.36547852 C113.14153298 131.00798556 113.15335525 135.65042351 113.15850449 140.29297829 C113.16216898 142.05458474 113.16932373 143.81618788 113.18021011 145.57776451 C113.43405387 188.39874826 95.23217169 224.54794623 65.65625 254.578125 C59.41651674 260.78633251 52.88408615 266.39441426 45.79638672 271.60839844 C44.56038915 272.51781262 43.33036186 273.43538834 42.10595703 274.36035156 C29.48733701 283.87983078 15.92325177 291.56859816 1.96875 298.953125 C1.01919434 299.45666504 0.06963867 299.96020508 -0.90869141 300.47900391 C-3.49822147 301.83361976 -6.10199983 303.15200858 -8.71875 304.453125 C-9.47784668 304.8452417 -10.23694336 305.2373584 -11.01904297 305.64135742 C-11.72818848 305.98142822 -12.43733398 306.32149902 -13.16796875 306.671875 C-13.77342529 306.97029297 -14.37888184 307.26871094 -15.00268555 307.57617188 C-29.9265786 310.34936851 -57.04958966 289.09301513 -69.03125 280.953125 C-74.51144013 277.13760667 -79.81594083 273.12195059 -85.03125 268.953125 C-85.5974707 268.50259766 -86.16369141 268.05207031 -86.74707031 267.58789062 C-116.7811752 243.48319016 -138.14594616 212.6532965 -147.03125 174.953125 C-147.26585937 173.98246094 -147.50046875 173.01179687 -147.7421875 172.01171875 C-151.3254004 155.00444012 -150.16713313 136.74053615 -150.12890625 119.4765625 C-150.12703676 116.96880115 -150.12561537 114.46103943 -150.12461853 111.95327759 C-150.12083515 105.41372638 -150.11104151 98.87419805 -150.09991455 92.33465576 C-150.08905367 85.63717087 -150.08510162 78.93967876 -150.08007812 72.2421875 C-150.0694147 59.14582368 -150.05258715 46.04947557 -150.03125 32.953125 C-136.65027373 28.60329998 -123.29608367 24.28687347 -109.6875 20.69921875 C-108.37049287 20.3468503 -107.05364388 19.99389037 -105.73693848 19.64039612 C-102.34848743 18.73211545 -98.95826058 17.83067749 -95.56744385 16.93127441 C-90.16499288 15.49681769 -84.76557413 14.05094662 -79.36576462 12.60658455 C-78.04376587 12.25305862 -76.72170668 11.89975863 -75.39958572 11.54668999 C-58.7143495 7.09012402 -42.0658712 2.49192707 -25.5078125 -2.41796875 C-16.44692698 -4.05707276 -8.66912076 -2.79040196 0 0 Z " fill="#098E90" transform="translate(528.03125,286.046875)"/>
<path d="M0 0 C0 17.16 0 34.32 0 52 C-4.62979497 48.91347002 -8.16500101 46.09633436 -12.0703125 42.29296875 C-13.8956148 40.79014384 -13.8956148 40.79014384 -16.03515625 41.109375 C-18.30294632 42.1373196 -19.59451843 43.26251454 -21.3125 45.0625 C-22.11107422 45.88427734 -22.11107422 45.88427734 -22.92578125 46.72265625 C-24.08000024 47.9899061 -25.22537639 49.26597881 -26.33349609 50.57373047 C-32.70149319 58.04852275 -39.76966259 64.83102409 -46.74804688 71.72753906 C-53.06438549 77.97638025 -59.23304167 84.23333102 -65 91 C-71.4855371 98.2340407 -77.51445734 104.92734135 -87.53515625 106.36328125 C-94.40379828 106.72587925 -98.99529206 104.69622646 -104.08789062 100.12646484 C-106.32706033 97.93205841 -108.51492687 95.69781533 -110.6875 93.4375 C-112.16831569 91.91316855 -113.65131233 90.39095206 -115.13671875 88.87109375 C-115.78342529 88.20005615 -116.43013184 87.52901855 -117.09643555 86.83764648 C-118.96189797 85.03678261 -120.89322343 83.5071803 -123 82 C-126.01734053 83.33944099 -127.97034122 84.77142951 -130.18530273 87.20874023 C-130.79060318 87.86568375 -131.39590363 88.52262726 -132.01954651 89.19947815 C-132.6718071 89.9161113 -133.32406769 90.63274445 -133.99609375 91.37109375 C-140.14987806 98.02032098 -146.42608683 104.51914086 -152.84765625 110.91015625 C-153.68307953 111.74227631 -154.51850281 112.57439636 -155.37924194 113.43173218 C-157.93833268 115.97733934 -160.49996785 118.52035742 -163.0625 121.0625 C-166.49386802 124.46706793 -169.92174023 127.8751032 -173.34765625 131.28515625 C-174.11441177 132.04361343 -174.8811673 132.80207062 -175.67115784 133.58351135 C-179.77774168 137.67147831 -183.71032403 141.84389813 -187.47729492 146.24777222 C-189.84507713 148.97245858 -192.37408842 151.52308559 -194.9375 154.0625 C-195.70682861 154.82892822 -195.70682861 154.82892822 -196.49169922 155.61083984 C-200.0349931 159.11418428 -203.67519449 162.47136748 -207.4765625 165.6953125 C-208.69958301 166.74271981 -209.86139532 167.86139532 -211 169 C-215.22343724 169.48731968 -217.47879656 169.28064801 -221.25 167.25 C-223.64879055 165.28735318 -225.33494311 163.59008849 -227 161 C-222.75707804 151.33847297 -212.76471944 143.65823933 -205.375 136.375 C-198.25177048 129.4011469 -198.25177048 129.4011469 -191.5390625 122.0390625 C-186.55372299 116.21965146 -180.99555862 110.93932087 -175.54296875 105.56347656 C-168.8507585 98.9873673 -168.8507585 98.9873673 -162.54296875 92.046875 C-157.78213346 86.4819308 -152.50885108 81.40304135 -147.3125 76.25 C-146.26994637 75.21247659 -145.22762717 74.17471757 -144.18554688 73.13671875 C-142.27658237 71.23584429 -140.36603415 69.33661666 -138.4543457 67.43847656 C-136.90129751 65.89546996 -135.36820549 64.33188218 -133.86401367 62.74121094 C-130.84521838 59.92129633 -127.79183876 59.74771605 -123.8125 59.5625 C-122.91144531 59.50191406 -122.01039063 59.44132812 -121.08203125 59.37890625 C-112.46193536 61.11603584 -105.89004127 69.86733886 -100 75.875 C-99.12988281 76.75414062 -98.25976562 77.63328125 -97.36328125 78.5390625 C-95.23751809 80.6881857 -93.11660111 82.84185931 -91 85 C-88.09778672 83.68729086 -86.03287708 82.28101018 -83.79296875 80.0234375 C-83.21039307 79.43957275 -82.62781738 78.85570801 -82.02758789 78.25415039 C-81.42035889 77.63403076 -80.81312988 77.01391113 -80.1875 76.375 C-79.55513428 75.73618896 -78.92276855 75.09737793 -78.27124023 74.43920898 C-74.71276071 70.82184318 -71.30920668 67.13085088 -68.03515625 63.25390625 C-64.35126785 59.17405288 -60.38475595 55.36653254 -56.47998047 51.49951172 C-52.71488125 47.7569187 -49.10004572 43.96860922 -45.6875 39.8984375 C-42.70097621 36.53859823 -39.39762001 33.48564592 -36.13671875 30.39453125 C-33.98413295 27.98221846 -32.98192742 26.05428254 -32 23 C-32.721875 22.15695312 -33.44375 21.31390625 -34.1875 20.4453125 C-35.12525692 19.33875934 -36.06274294 18.23197658 -37 17.125 C-37.71542969 16.29162109 -37.71542969 16.29162109 -38.4453125 15.44140625 C-42 11.2265625 -42 11.2265625 -42 9 C-11.53072626 0 -11.53072626 0 0 0 Z " fill="#0A948E" transform="translate(656,304)"/>
<path d="M0 0 C33.91666667 0 33.91666667 0 42.8125 7 C49.66129765 14.64403719 51.83506507 23.66745659 51.4140625 33.73828125 C50.2800128 42.67159726 45.37672688 49.8153419 38.30859375 55.31640625 C27.00406554 62.42435786 12.4415833 60 0 60 C0 40.2 0 20.4 0 0 Z " fill="#F9FAFB" transform="translate(750,628)"/>
<path d="M0 0 C4.29 0 8.58 0 13 0 C15.58876062 2.93507164 16.55347769 4.54438054 18 8 C18.94922014 9.72742761 19.91480026 11.44594237 20.89453125 13.15625 C21.8695744 14.93619455 22.84220806 16.717461 23.8125 18.5 C24.56563477 19.87671875 24.56563477 19.87671875 25.33398438 21.28125 C26.55812495 23.51967848 27.78008174 25.75926849 29 28 C31.79782759 24.64633023 34.1054068 21.29132182 36.234375 17.48046875 C36.80800781 16.45888672 37.38164062 15.43730469 37.97265625 14.38476562 C38.55917969 13.32966797 39.14570313 12.27457031 39.75 11.1875 C40.35199219 10.11306641 40.95398438 9.03863281 41.57421875 7.93164062 C43.05352513 5.29002209 44.52730827 2.64531188 46 0 C50.29 0 54.58 0 59 0 C59 19.8 59 39.6 59 60 C55.37 60 51.74 60 48 60 C48 46.8 48 33.6 48 20 C47.34 20 46.68 20 46 20 C45.89800293 20.54366211 45.79600586 21.08732422 45.69091797 21.64746094 C44.15155473 26.88891118 40.85488511 31.55307193 38.125 36.25 C37.16787109 37.93996094 37.16787109 37.93996094 36.19140625 39.6640625 C35.57394531 40.72882812 34.95648438 41.79359375 34.3203125 42.890625 C33.75586426 43.87063477 33.19141602 44.85064453 32.60986328 45.86035156 C32.0786084 46.56643555 31.54735352 47.27251953 31 48 C30.01 48 29.02 48 28 48 C23.05 39.42 18.1 30.84 13 22 C12.67 34.54 12.34 47.08 12 60 C8.04 60 4.08 60 0 60 C0 40.2 0 20.4 0 0 Z " fill="#F7F9F9" transform="translate(217,628)"/>
<path d="M0 0 C3.96 0 7.92 0 12 0 C15.0785101 3.43670153 16.85306968 6.03706667 19 10 C20.37379354 12.1918766 21.75702234 14.37786094 23.1484375 16.55859375 C24.207626 18.26832318 25.25888182 19.98273583 26.30908203 21.69799805 C27.39023415 23.46236104 28.47803383 25.22250569 29.56640625 26.98242188 C30.25347656 28.10068359 30.94054687 29.21894531 31.6484375 30.37109375 C32.26895996 31.38099365 32.88948242 32.39089355 33.52880859 33.43139648 C35 36 35 36 36 39 C37.41726236 37.81089749 37.41726236 37.81089749 37.11352539 34.39819336 C37.11336625 32.79540144 37.10767063 31.1926044 37.09765625 29.58984375 C37.0962413 28.74780899 37.09482635 27.90577423 37.09336853 27.03822327 C37.08775263 24.33794665 37.07519748 21.63775172 37.0625 18.9375 C37.05748705 17.11132932 37.05292379 15.28515734 37.04882812 13.45898438 C37.03777804 8.97262458 37.02050279 4.48632616 37 0 C40.96 0 44.92 0 49 0 C49 19.8 49 39.6 49 60 C45.37 60 41.74 60 38 60 C35.00432139 56.62986157 33.18893168 53.86711263 31 50 C29.66668544 47.90419618 28.30388884 45.82932154 26.93945312 43.75366211 C22.21098014 36.55589328 17.62326004 29.26512293 13 22 C12.67 34.54 12.34 47.08 12 60 C8.04 60 4.08 60 0 60 C0 40.2 0 20.4 0 0 Z " fill="#F6F8F8" transform="translate(689,628)"/>
<path d="M0 0 C4.29 0 8.58 0 13 0 C15.81520125 5.46450741 18.27423567 10.94339611 20.49609375 16.671875 C20.81151627 17.47554504 21.12693878 18.27921509 21.45191956 19.10723877 C22.45061959 21.65346941 23.44433337 24.20160656 24.4375 26.75 C25.74688698 30.09966921 27.05863217 33.44840947 28.37109375 36.796875 C28.84100235 37.99878479 28.84100235 37.99878479 29.32040405 39.22497559 C31.51115792 44.81079456 33.79378171 50.34749357 36.17211914 55.85644531 C37 58 37 58 37 60 C32.38 60 27.76 60 23 60 C19 50.375 19 50.375 19 47 C10.75 47 2.5 47 -6 47 C-6.33 48.65 -6.66 50.3 -7 52 C-7.91157699 54.70639177 -8.96214971 57.33768839 -10 60 C-14.29 60 -18.58 60 -23 60 C-22.34010163 56.70050813 -21.81619733 54.22664181 -20.62060547 51.21386719 C-20.34296356 50.50832703 -20.06532166 49.80278687 -19.77926636 49.0758667 C-19.32778732 47.94776581 -19.32778732 47.94776581 -18.8671875 46.796875 C-18.55226349 46.00081848 -18.23733948 45.20476196 -17.91287231 44.38458252 C-16.90418008 41.83814173 -15.88955235 39.2941108 -14.875 36.75 C-14.21578456 35.08608059 -13.55692717 33.42201927 -12.8984375 31.7578125 C-8.68736806 21.13505529 -4.37777965 10.55506701 0 0 Z " fill="#F8FAFA" transform="translate(471,628)"/>
<path d="M0 0 C3.96 0 7.92 0 12 0 C12.01458252 1.21582764 12.02916504 2.43165527 12.04418945 3.68432617 C12.10225098 8.20399078 12.1794836 12.72316127 12.26245117 17.24243164 C12.29566354 19.19677702 12.32370695 21.15121747 12.34643555 23.10571289 C12.38004933 25.91854282 12.43236854 28.73050447 12.48828125 31.54296875 C12.49467117 32.41398727 12.5010611 33.2850058 12.50764465 34.18241882 C12.62219772 38.93067423 12.93758464 42.1346545 16 46 C19.42758212 48.57068659 22.83935914 48.35867594 27 48 C31.24952903 46.4388223 31.24952903 46.4388223 34.14804077 43.15423584 C35.04932126 40.8752879 35.27365126 39.22283172 35.31884766 36.78222656 C35.33871735 35.96167786 35.35858704 35.14112915 35.37905884 34.29571533 C35.39638565 32.98144562 35.39638565 32.98144562 35.4140625 31.640625 C35.43342865 30.73624695 35.4527948 29.8318689 35.4727478 28.90008545 C35.53243831 26.01681901 35.57888686 23.13351242 35.625 20.25 C35.66318947 18.29295152 35.70224177 16.33591967 35.7421875 14.37890625 C35.83813125 9.58607289 35.92220127 4.79316085 36 0 C39.96 0 43.92 0 48 0 C48.09956118 5.79829005 48.17179346 11.59607242 48.21972656 17.39501953 C48.23972787 19.36385782 48.26693802 21.33263756 48.30175781 23.30126953 C48.35078531 26.14630658 48.37308382 28.99055215 48.390625 31.8359375 C48.41127014 32.70302338 48.43191528 33.57010925 48.45318604 34.46347046 C48.45571092 41.48441738 47.04023653 48.45628876 42.3538208 53.91879272 C37.14634984 58.84990724 31.23273054 61.09268052 24.125 61.4375 C17.83542043 61.20526937 12.03784041 59.52620413 7.14453125 55.45703125 C0.78130875 48.59103562 -0.45217191 41.05265884 -0.29296875 32.03125 C-0.28872391 31.11033569 -0.28447906 30.18942139 -0.28010559 29.24060059 C-0.26344065 26.32675755 -0.22581188 23.41363061 -0.1875 20.5 C-0.17243739 18.51303089 -0.15875175 16.52605083 -0.14648438 14.5390625 C-0.11357716 9.69243643 -0.06188031 4.84633922 0 0 Z " fill="#F7F9FA" transform="translate(629,628)"/>
<path d="M0 0 C3.96 0 7.92 0 12 0 C12.0093457 1.21059082 12.01869141 2.42118164 12.02832031 3.66845703 C12.06829948 8.1751741 12.1340804 12.68121422 12.20751953 17.1875 C12.23568321 19.13500245 12.2569206 21.08261822 12.27099609 23.03027344 C12.29248946 25.83587468 12.33917198 28.64012 12.390625 31.4453125 C12.39185364 32.31116974 12.39308228 33.17702698 12.39434814 34.06912231 C12.5281434 39.63570191 13.37369349 42.71613909 17 47 C19.33937907 48.16968953 20.77369368 48.13364221 23.375 48.125 C24.14585937 48.12757813 24.91671875 48.13015625 25.7109375 48.1328125 C28.96277341 48.01184363 28.96277341 48.01184363 32 47 C34.27927756 41.85680507 34.34042443 36.96508648 34.4140625 31.4453125 C34.43342865 30.54376434 34.4527948 29.64221619 34.4727478 28.71334839 C34.53224296 25.85066004 34.57880817 22.98793082 34.625 20.125 C34.66320747 18.17706637 34.7022608 16.22914914 34.7421875 14.28125 C34.83791965 9.52096742 34.92206116 4.7606058 35 0 C38.96 0 42.92 0 47 0 C47.0992969 6.11974418 47.17167096 12.23901352 47.21972656 18.359375 C47.23977159 20.43888525 47.26701513 22.51833963 47.30175781 24.59765625 C47.35058948 27.59649487 47.37304028 30.59458463 47.390625 33.59375 C47.41127014 34.51490601 47.43191528 35.43606201 47.45318604 36.38513184 C47.45564509 43.55016253 45.75322748 48.74154108 41.10546875 54.2421875 C34.76548441 59.63956724 28.96931708 61.57830529 20.62109375 61.375 C13.38332576 60.33949221 7.74732228 56.48005449 3.15625 50.94140625 C-0.2933549 45.14933315 -0.26936186 39.53289766 -0.1953125 33.0078125 C-0.1924826 32.06187225 -0.18965271 31.11593201 -0.18673706 30.1413269 C-0.17558932 27.13575306 -0.15049465 24.13048298 -0.125 21.125 C-0.11496321 19.08073349 -0.10583859 17.03646228 -0.09765625 14.9921875 C-0.07566767 9.99467556 -0.04117509 4.9973892 0 0 Z " fill="#FAFCFB" transform="translate(288,628)"/>
<path d="M0 0 C3.96 0 7.92 0 12 0 C12.01458252 1.18029785 12.02916504 2.3605957 12.04418945 3.57666016 C12.10232697 7.97149375 12.17955881 12.36582326 12.26245117 16.76025391 C12.29562793 18.65925899 12.32368231 20.55836096 12.34643555 22.45751953 C12.38011518 25.19345235 12.4324372 27.92850311 12.48828125 30.6640625 C12.49467117 31.50804596 12.5010611 32.35202942 12.50764465 33.22158813 C12.6304142 38.18577537 13.2128717 41.72127922 16 46 C20.02314866 48.68209911 23.27219919 48.68843415 28 48 C31.49890004 45.88608123 32.70578686 44.88263941 34 41 C34.11265547 39.63484686 34.17582586 38.26522788 34.20532227 36.89575195 C34.22526749 36.07512772 34.24521271 35.25450348 34.26576233 34.40901184 C34.28247482 33.52767075 34.29918732 32.64632965 34.31640625 31.73828125 C34.33718735 30.83248825 34.35796844 29.92669525 34.37937927 28.99345398 C34.44476558 26.09987984 34.50370904 23.20621493 34.5625 20.3125 C34.6056956 18.35090207 34.64931023 16.38931332 34.69335938 14.42773438 C34.80043582 9.61858261 34.90173414 4.80933954 35 0 C38.96 0 42.92 0 47 0 C47.07448767 5.97734898 47.1287615 11.95442418 47.16479492 17.93212891 C47.17982599 19.9631013 47.20025647 21.99404154 47.22631836 24.02490234 C47.26295232 26.95418259 47.27978351 29.88303144 47.29296875 32.8125 C47.30845261 33.71178223 47.32393646 34.61106445 47.33988953 35.53759766 C47.34167751 42.32588433 46.43846188 48.07384574 41.94921875 53.4609375 C35.33550135 59.05803858 30.41642642 61.54191079 21.65234375 61.3046875 C13.76246152 60.39833873 8.43879061 57.20856385 3.375 51.1953125 C-0.28761607 45.34761299 -0.27098874 39.67625492 -0.1953125 33.0078125 C-0.1924826 32.06187225 -0.18965271 31.11593201 -0.18673706 30.1413269 C-0.17558932 27.13575306 -0.15049465 24.13048298 -0.125 21.125 C-0.11496321 19.08073349 -0.10583859 17.03646228 -0.09765625 14.9921875 C-0.07566767 9.99467556 -0.04117509 4.9973892 0 0 Z " fill="#FAFCFB" transform="translate(397,628)"/>
<path d="M0 0 C12.54 0 25.08 0 38 0 C38 3.63 38 7.26 38 11 C29.42 11 20.84 11 12 11 C12 15.95 12 20.9 12 26 C19.59 26 27.18 26 35 26 C35 29.63 35 33.26 35 37 C27.41 37 19.82 37 12 37 C12 44.59 12 52.18 12 60 C8.04 60 4.08 60 0 60 C0 40.2 0 20.4 0 0 Z " fill="#FAFBFB" transform="translate(581,628)"/>
<path d="M0 0 C15.18 0 30.36 0 46 0 C46 3.63 46 7.26 46 11 C40.39 11 34.78 11 29 11 C29 27.17 29 43.34 29 60 C25.04 60 21.08 60 17 60 C17 43.83 17 27.66 17 11 C11.39 11 5.78 11 0 11 C0 7.37 0 3.74 0 0 Z " fill="#FCFDFC" transform="translate(343,628)"/>
<path d="M0 0 C3.96 0 7.92 0 12 0 C12 15.84 12 31.68 12 48 C20.25 48 28.5 48 37 48 C37 51.96 37 55.92 37 60 C24.79 60 12.58 60 0 60 C0 40.2 0 20.4 0 0 Z " fill="#F7F9FA" transform="translate(514,628)"/>
<path d="M0 0 C17.93169399 0 17.93169399 0 23 5 C27.1493506 10.48785079 27.59389858 16.3131419 27 23 C25.6953027 29.19178381 23.21585162 32.4872836 18 36 C14 37 14 37 0 37 C0 24.79 0 12.58 0 0 Z " fill="#071A2C" transform="translate(762,639)"/>
<path d="M0 0 C1.98 0 3.96 0 6 0 C6 12.54 6 25.08 6 38 C4.02 38 2.04 38 0 38 C-2.14990234 35.796875 -2.14990234 35.796875 -4.0859375 32.75 C-4.78847656 31.6671875 -5.49101562 30.584375 -6.21484375 29.46875 C-6.9353552 28.3127862 -7.65540145 27.15653232 -8.375 26 C-9.11655753 24.84250994 -9.86002716 23.6862425 -10.60546875 22.53125 C-12.42250143 19.69951076 -14.21372954 16.85124406 -16 14 C-16.33 21.92 -16.66 29.84 -17 38 C-18.98 38 -20.96 38 -23 38 C-23 25.79 -23 13.58 -23 1 C-21.02 1 -19.04 1 -17 1 C-14.85009766 3.203125 -14.85009766 3.203125 -12.9140625 6.25 C-11.86025391 7.87421875 -11.86025391 7.87421875 -10.78515625 9.53125 C-10.0646448 10.6872138 -9.34459855 11.84346768 -8.625 13 C-7.88344247 14.15749006 -7.13997284 15.3137575 -6.39453125 16.46875 C-4.57749857 19.30048924 -2.78627046 22.14875594 -1 25 C-0.67 16.75 -0.34 8.5 0 0 Z " fill="#F5F6F7" transform="translate(424,714)"/>
<path d="M0 0 C2.31 0 4.62 0 7 0 C8.85564602 4.80387577 10.70694675 9.60939427 12.55419922 14.41650391 C13.1835333 16.05238264 13.81406291 17.68780196 14.44580078 19.32275391 C15.3524162 21.66970655 16.25475215 24.01826518 17.15625 26.3671875 C17.44060913 27.10057343 17.72496826 27.83395935 18.01794434 28.58956909 C20 33.77225659 20 33.77225659 20 36 C17.69 36 15.38 36 13 36 C12.34 33.03 11.68 30.06 11 27 C6.05 27 1.1 27 -4 27 C-4.99 29.97 -5.98 32.94 -7 36 C-8.98 36 -10.96 36 -13 36 C-12.39517542 31.47748398 -11.21652803 27.59433121 -9.53125 23.359375 C-9.29088013 22.75111877 -9.05051025 22.14286255 -8.80285645 21.51617432 C-8.04075489 19.59187097 -7.2704204 17.67098563 -6.5 15.75 C-5.98254975 14.4455199 -5.46561769 13.14083413 -4.94921875 11.8359375 C-1.22067354 2.44134707 -1.22067354 2.44134707 0 0 Z " fill="#F3F5F6" transform="translate(459,716)"/>
<path d="M0 0 C2.31 0 4.62 0 7 0 C9.67786242 6.66221829 12.34273513 13.32954151 15 20 C15.28697754 20.71768555 15.57395508 21.43537109 15.86962891 22.17480469 C16.58522504 23.96852959 17.29297028 25.76538124 18 27.5625 C18.391875 28.55378906 18.78375 29.54507813 19.1875 30.56640625 C20 33 20 33 20 36 C18.02 36 16.04 36 14 36 C13.01 33.03 12.02 30.06 11 27 C6.05 27 1.1 27 -4 27 C-4.66 29.97 -5.32 32.94 -6 36 C-8.31 36 -10.62 36 -13 36 C-10.76089995 27.92724259 -7.85969819 20.17339308 -4.8125 12.375 C-4.34908203 11.18003906 -3.88566406 9.98507812 -3.40820312 8.75390625 C-2.27551405 5.83460451 -1.13938352 2.91669396 0 0 Z " fill="#F6F8F9" transform="translate(364,716)"/>
<path d="M0 0 C2.61617384 1.70355506 4.05405328 3.11833584 5.6875 5.75 C4.6975 6.74 3.7075 7.73 2.6875 8.75 C-1.1875 6.875 -1.1875 6.875 -2.3125 5.75 C-3.99858966 5.67794489 -5.68750659 5.66613932 -7.375 5.6875 C-8.29410156 5.69652344 -9.21320312 5.70554687 -10.16015625 5.71484375 C-10.87042969 5.72644531 -11.58070313 5.73804688 -12.3125 5.75 C-11.9825 7.73 -11.6525 9.71 -11.3125 11.75 C-9.97445312 12.11351562 -9.97445312 12.11351562 -8.609375 12.484375 C-7.43890625 12.81953125 -6.2684375 13.1546875 -5.0625 13.5 C-3.90234375 13.82484375 -2.7421875 14.1496875 -1.546875 14.484375 C2.44608167 16.04683631 4.76513646 17.90527292 6.6875 21.75 C7.06343152 26.73109259 6.8640161 29.80673864 3.6875 33.75 C-0.27686308 37.34270404 -4.53382253 37.25320877 -9.6484375 37.1015625 C-13.4325878 36.60218783 -15.55929465 35.36201533 -18.3125 32.75 C-19.6875 30 -19.6875 30 -20.3125 27.75 C-18.6625 27.09 -17.0125 26.43 -15.3125 25.75 C-14.9825 26.74 -14.6525 27.73 -14.3125 28.75 C-10.15679886 31.19453008 -6.91711691 30.79255477 -2.3125 29.75 C0.03723818 27.85244856 0.03723818 27.85244856 -0.1875 24.625 C-0.22875 23.67625 -0.27 22.7275 -0.3125 21.75 C-1.19292969 21.59144531 -2.07335937 21.43289063 -2.98046875 21.26953125 C-12.40909486 19.37543433 -12.40909486 19.37543433 -16.5625 16.5 C-18.76559043 13.03800075 -19.38464847 10.86246258 -19.3125 6.75 C-17.72889252 3.64143717 -16.30691971 1.53132977 -13.5625 -0.625 C-8.66671343 -1.98494071 -4.66837905 -1.76165247 0 0 Z " fill="#F1F3F5" transform="translate(655.3125,715.25)"/>
<path d="M0 0 C3.75212276 2.01502889 5.63644095 3.45466142 8 7 C7.01 7.99 6.02 8.98 5 10 C1.125 8.125 1.125 8.125 0 7 C-2.67058851 6.85884839 -5.32432238 6.95752893 -8 7 C-8.33 8.65 -8.66 10.3 -9 12 C-5.27714489 13.62874911 -1.60064123 15.13969129 2.25 16.4375 C4.58137135 17.32757782 6.04295589 18.03490166 8 19.625 C9.58990389 23.40102175 9.65407606 26.97491653 9 31 C6.84517711 34.61702413 4.84621041 36.4162663 1 38 C-3.63037111 38.73745574 -8.14078507 39.09891741 -12.2734375 36.65625 C-13.97528299 35.18363268 -15.52179748 33.6951401 -17 32 C-16.67 30.68 -16.34 29.36 -16 28 C-14.3125 27.1875 -14.3125 27.1875 -12 27 C-10.88625 28.2375 -10.88625 28.2375 -9.75 29.5 C-7.35945133 32.2021131 -7.35945133 32.2021131 -4.90234375 32.11328125 C-2.91841496 31.84385882 -0.95523911 31.4308154 1 31 C1.33 28.69 1.66 26.38 2 24 C-0.37276815 23.00496819 -2.71915879 22.07995479 -5.1953125 21.375 C-8.98823141 20.27342619 -11.55809504 19.38801411 -14.5625 16.75 C-16.4339765 13.16978409 -16.57020182 10.99141271 -16 7 C-12.05934372 0.66680241 -7.38328883 -1.17848649 0 0 Z " fill="#F5F7F8" transform="translate(585,714)"/>
<path d="M0 0 C0.04656317 10.33654963 0.08199015 20.67307387 0.10362434 31.00970745 C0.11401333 35.81062745 0.12808213 40.61147512 0.15087891 45.41235352 C0.17278298 50.05486056 0.18460525 54.69729851 0.18975449 59.33985329 C0.19341898 61.10145974 0.20057373 62.86306288 0.21146011 64.62463951 C0.44897227 104.69064146 -15.49704771 140.94931228 -43.36328125 169.4765625 C-46.2101783 172.35117564 -49.09396844 175.18525739 -52 178 C-52.66 177.67 -53.32 177.34 -54 177 C-53.04882866 175.8274869 -52.08882991 174.66212985 -51.125 173.5 C-50.32449219 172.52546875 -50.32449219 172.52546875 -49.5078125 171.53125 C-48.76144531 170.77328125 -48.76144531 170.77328125 -48 170 C-47.34 170 -46.68 170 -46 170 C-45.773125 169.4225 -45.54625 168.845 -45.3125 168.25 C-44 166 -44 166 -41.5625 164.0625 C-38.8803881 161.90372701 -37.6485487 159.98308812 -36 157 C-35.01 156.01 -35.01 156.01 -34 155 C-31.20772213 151.43927508 -28.82271339 147.64651985 -26.40234375 143.828125 C-25.93957031 143.22484375 -25.47679687 142.6215625 -25 142 C-24.34 142 -23.68 142 -23 142 C-22.88269531 141.26265625 -22.76539063 140.5253125 -22.64453125 139.765625 C-22.00159801 137.00685692 -21.13276225 135.16622792 -19.6875 132.75 C-15.9293035 126.20835537 -13.03199739 119.54473688 -10.80859375 112.3359375 C-10 110 -10 110 -8.51171875 106.7734375 C-6.74268223 102.69859852 -6.03398028 98.6233175 -5.375 94.25 C-5.24947754 93.46302734 -5.12395508 92.67605469 -4.99462891 91.86523438 C-4.17428664 86.58123322 -3.5569369 81.30702648 -3.2109375 75.96875 C-3 74 -3 74 -2 72 C-1.74361053 66.90280488 -1.80697492 61.79076448 -1.8125 56.6875 C-1.81210724 55.93355957 -1.81171448 55.17961914 -1.81130981 54.40283203 C-0.44639314 29.97356578 -0.44639314 29.97356578 -5 7 C-5.68707031 7.6496875 -6.37414062 8.299375 -7.08203125 8.96875 C-7.98308594 9.8040625 -8.88414062 10.639375 -9.8125 11.5 C-10.70582031 12.3353125 -11.59914063 13.170625 -12.51953125 14.03125 C-15 16 -15 16 -18 16 C-15.38308836 13.32529045 -12.75518292 10.66165519 -10.125 8 C-9.37863281 7.236875 -8.63226562 6.47375 -7.86328125 5.6875 C-7.14785156 4.965625 -6.43242188 4.24375 -5.6953125 3.5 C-5.03547363 2.8296875 -4.37563477 2.159375 -3.69580078 1.46875 C-2 0 -2 0 0 0 Z " fill="#24CB7A" transform="translate(641,367)"/>
<path d="M0 0 C3.19140625 -0.46875 3.19140625 -0.46875 7 0 C9.20810837 2.18459365 10.51725024 4.75830047 11.9375 7.5 C12.33517578 8.21542969 12.73285156 8.93085937 13.14257812 9.66796875 C14.11886575 11.43234397 15.06267567 13.21462033 16 15 C18.64 10.05 21.28 5.1 24 0 C26.31 0 28.62 0 31 0 C29.99126255 3.53333719 28.72719562 6.62428372 26.87109375 9.77734375 C21.20175652 19.41348331 18.5895087 26.71969913 19 38 C16.69 38 14.38 38 12 38 C12.08314453 36.48986328 12.08314453 36.48986328 12.16796875 34.94921875 C12.38495667 22.32598445 7.93221502 14.0418599 0.99389648 3.70141602 C0 2 0 2 0 0 Z " fill="#EBEDEF" transform="translate(524,714)"/>
<path d="M0 0 C1.98 0 3.96 0 6 0 C6 10.23 6 20.46 6 31 C11.28 31 16.56 31 22 31 C22 32.98 22 34.96 22 37 C14.74 37 7.48 37 0 37 C0 24.79 0 12.58 0 0 Z " fill="#FBFCFC" transform="translate(495,715)"/>
<path d="M0 0 C3.15153996 3.7336672 4.50175658 5.57622612 4.42578125 10.5234375 C4.41430054 12.15756592 4.41430054 12.15756592 4.40258789 13.82470703 C4.37285889 14.99630371 4.34312988 16.16790039 4.3125 17.375 C4.29630615 18.58913574 4.2801123 19.80327148 4.26342773 21.05419922 C4.21174714 24.34208941 4.13999381 27.62862033 4.05395508 30.91577148 C3.99874221 33.04858722 3.94906896 35.18147891 3.90039062 37.31445312 C3.80087257 41.58503561 3.68613843 45.85505172 3.5625 50.125 C3.54321442 50.80874695 3.52392883 51.4924939 3.50405884 52.19696045 C3.44711212 54.134084 3.38195009 56.07096078 3.31640625 58.0078125 C3.27974854 59.11785645 3.24309082 60.22790039 3.20532227 61.37158203 C3 64 3 64 2 66 C2.33 66.99 2.66 67.98 3 69 C2.40774977 71.02328547 1.72914543 73.0219223 1 75 C0.02176274 78.19214264 -0.94155754 81.38850324 -1.90234375 84.5859375 C-4.2121015 91.77002388 -7.04920181 98.25991238 -10.6875 104.875 C-11.50765225 106.37034736 -12.32424828 107.86765251 -13.13671875 109.3671875 C-13.67365356 110.34341064 -13.67365356 110.34341064 -14.22143555 111.33935547 C-15.14149842 112.99612763 -15.14149842 112.99612763 -15 115 C-16.66666667 116.66666667 -18.33333333 118.33333333 -20 120 C-20.91699084 121.25565223 -21.8130542 122.52685648 -22.6875 123.8125 C-23.450625 124.864375 -24.21375 125.91625 -25 127 C-25.66 127 -26.32 127 -27 127 C-27.061875 127.598125 -27.12375 128.19625 -27.1875 128.8125 C-28.3236757 131.87143458 -30.17330142 132.55041099 -33 134 C-33 133.01 -33 132.02 -33 131 C-32.34 131 -31.68 131 -31 131 C-30.75378906 130.44828125 -30.50757813 129.8965625 -30.25390625 129.328125 C-28.75097799 126.53764137 -26.90563609 124.23533588 -24.9375 121.75 C-4.49955405 95.14557649 -0.22840628 66.55334944 -0.19311523 33.96295166 C-0.18363265 30.12033982 -0.14612963 26.27799803 -0.11132812 22.43554688 C-0.0475516 14.95702749 -0.01365951 7.47879731 0 0 Z " fill="#169267" transform="translate(621,384)"/>
<path d="M0 0 C0 0.66 0 1.32 0 2 C-1.60256108 2.50512244 -3.20711792 3.00391627 -4.8125 3.5 C-5.70582031 3.7784375 -6.59914063 4.056875 -7.51953125 4.34375 C-10 5 -10 5 -13 5 C-13.33 5.66 -13.66 6.32 -14 7 C-14.99 7 -15.98 7 -17 7 C-24.58269842 7.80401555 -31.34567283 10.06221515 -38.34057617 12.96728516 C-42.39725058 14.60329359 -45.62889154 15.31173797 -50 15 C-50.33 15.66 -50.66 16.32 -51 17 C-51.99 17.66 -52.98 18.32 -54 19 C-54.4466469 21.63516559 -54.4466469 21.63516559 -54.35644531 24.76538086 C-54.35944641 25.979431 -54.36244751 27.19348114 -54.36553955 28.44432068 C-54.35349988 29.78449898 -54.34101538 31.12467336 -54.328125 32.46484375 C-54.32506019 33.85461725 -54.32318957 35.24439385 -54.32244873 36.63417053 C-54.31782984 39.56913805 -54.30338206 42.50383369 -54.28125 45.4387207 C-54.25361244 49.11391956 -54.24218313 52.78890109 -54.23744965 56.46419334 C-54.21573808 71.68131915 -54.01456545 86.87352786 -53.34307861 102.07835388 C-52.9092934 111.98803886 -52.78749865 121.8520083 -53.5 131.75 C-53.54769531 132.45898438 -53.59539062 133.16796875 -53.64453125 133.8984375 C-53.75944787 135.59920352 -53.87916255 137.29964439 -54 139 C-54.33 139 -54.66 139 -55 139 C-55.81313103 131.43631904 -56.14040588 123.98252989 -56.11352539 116.37817383 C-56.11367142 115.27441406 -56.11381744 114.1706543 -56.1139679 113.03344727 C-56.11327728 109.42462117 -56.10552513 105.81584821 -56.09765625 102.20703125 C-56.09578904 99.68926522 -56.09436657 97.17149882 -56.09336853 94.6537323 C-56.08995467 88.72899887 -56.08209211 82.80428218 -56.07201904 76.87955731 C-56.05968734 69.46332802 -56.05436167 62.04709632 -56.04882812 54.63085938 C-56.03813289 41.42056344 -56.02128008 28.21028291 -56 15 C-51.99959366 13.71306418 -47.99840203 12.42858671 -43.99707031 11.14453125 C-42.87132599 10.78234497 -41.74558167 10.42015869 -40.58572388 10.04699707 C-32.68359953 7.51294596 -24.77322604 5.12379513 -16.75 3 C-15.66460937 2.70222656 -14.57921875 2.40445312 -13.4609375 2.09765625 C-12.41679687 1.81792969 -11.37265625 1.53820312 -10.296875 1.25 C-8.94094238 0.88648438 -8.94094238 0.88648438 -7.55761719 0.515625 C-4.96783267 -0.00648505 -2.63421621 -0.09488397 0 0 Z " fill="#058FDA" transform="translate(434,304)"/>
<path d="M0 0 C0 0.66 0 1.32 0 2 C-0.79513504 2.21075668 -1.59027008 2.42151337 -2.40950012 2.63865662 C-9.89933703 4.62407614 -17.38893157 6.61040623 -24.87825489 8.59776211 C-28.72868041 9.61947093 -32.579199 10.6408262 -36.42993164 11.66137695 C-40.14541512 12.6460968 -43.8606523 13.63174079 -47.57571983 14.61802864 C-48.99381447 14.99433444 -50.41199784 15.37030598 -51.83027077 15.74593925 C-53.81522374 16.27172004 -55.79985916 16.79868351 -57.78442383 17.32592773 C-58.91471512 17.6257103 -60.04500641 17.92549286 -61.20954895 18.23435974 C-63.1555152 18.76829138 -65.08566437 19.36188812 -67 20 C-67.33 56.63 -67.66 93.26 -68 131 C-68.33 131 -68.66 131 -69 131 C-69.33 94.04 -69.66 57.08 -70 19 C-62 16 -62 16 -58 16 C-58 15.34 -58 14.68 -58 14 C-54.26513121 13.4254048 -50.78706732 13 -47 13 C-47 12.34 -47 11.68 -47 11 C-46.03900391 10.81824219 -46.03900391 10.81824219 -45.05859375 10.6328125 C-40.98096225 9.84280938 -36.96922276 9.04606394 -33 7.8125 C-30 7 -30 7 -28 8 C-28 7.34 -28 6.68 -28 6 C-20.65896942 3.74231361 -13.6700283 2.4302337 -6 2 C-6 1.34 -6 0.68 -6 0 C-2.25 -1.125 -2.25 -1.125 0 0 Z " fill="#0688C9" transform="translate(466,316)"/>
<path d="M0 0 C1.98 0 3.96 0 6 0 C6 12.54 6 25.08 6 38 C4.02 38 2.04 38 0 38 C0 25.46 0 12.92 0 0 Z " fill="#F6F8F8" transform="translate(612,714)"/>
<path d="M0 0 C2.13893584 2.13893584 2.70116923 3.47909268 3.7265625 6.28125 C4.0359375 7.12300781 4.3453125 7.96476563 4.6640625 8.83203125 C4.98117187 9.71246094 5.29828125 10.59289062 5.625 11.5 C5.94984375 12.38042969 6.2746875 13.26085937 6.609375 14.16796875 C9 20.72712054 9 20.72712054 9 23 C3.39 23 -2.22 23 -8 23 C-5.36 15.41 -2.72 7.82 0 0 Z " fill="#061726" transform="translate(477,642)"/>
<path d="M0 0 C-2.21598525 2.53012708 -3.88327397 3.50275425 -7.1328125 4.31640625 C-7.93976563 4.52330078 -8.74671875 4.73019531 -9.578125 4.94335938 C-10.41859375 5.14767578 -11.2590625 5.35199219 -12.125 5.5625 C-12.94226563 5.77068359 -13.75953125 5.97886719 -14.6015625 6.19335938 C-19.39281366 7.4025438 -24.2040676 8.50018428 -29.03027344 9.55981445 C-34.76869052 10.84220984 -40.41208679 12.482134 -46.01171875 14.26953125 C-46.71224365 14.49278076 -47.41276855 14.71603027 -48.13452148 14.94604492 C-49.50950267 15.3873401 -50.88282935 15.833836 -52.25415039 16.28637695 C-56.49366866 17.65175356 -60.59008864 18.42943106 -65 19 C-67.01416562 19.62256028 -69.02015519 20.27566653 -71 21 C-71.66 20.34 -72.32 19.68 -73 19 C-65.89472718 16.51950518 -58.73319147 14.58535771 -51.4375 12.75 C-41.18414205 10.13606713 -31.00730889 7.33192874 -20.86694336 4.30957031 C-5.28235611 -0.33014726 -5.28235611 -0.33014726 0 0 Z " fill="#067DB4" transform="translate(508,284)"/>
<path d="M0 0 C2.46800047 1.15173355 4.04783565 2.04783565 6 4 C5.65960792 7.40392082 4.04742235 9.3554128 2 12 C1.67 12.99 1.34 13.98 1 15 C1.66 15.33 2.32 15.66 3 16 C1 17 1 17 -1.75 16.29296875 C-2.8225 15.92816406 -3.895 15.56335938 -5 15.1875 C-6.0725 14.83042969 -7.145 14.47335937 -8.25 14.10546875 C-11 13 -11 13 -13 11 C-12.44444444 6.44444444 -12.44444444 6.44444444 -11 5 C-3.63366337 4.52475248 -3.63366337 4.52475248 -1 6.5 C-0.505 7.2425 -0.505 7.2425 0 8 C1.32 7.34 2.64 6.68 4 6 C2.68 4.02 1.36 2.04 0 0 Z " fill="#081623" transform="translate(588,715)"/>
<path d="M0 0 C0 0.66 0 1.32 0 2 C-1.60256108 2.50512244 -3.20711792 3.00391627 -4.8125 3.5 C-5.70582031 3.7784375 -6.59914063 4.056875 -7.51953125 4.34375 C-10 5 -10 5 -13 5 C-13.33 5.66 -13.66 6.32 -14 7 C-14.99 7 -15.98 7 -17 7 C-24.58269842 7.80401555 -31.34567283 10.06221515 -38.34057617 12.96728516 C-42.39725058 14.60329359 -45.62889154 15.31173797 -50 15 C-50.33 15.66 -50.66 16.32 -51 17 C-53.0625 18.125 -53.0625 18.125 -55 19 C-55.33 17.68 -55.66 16.36 -56 15 C-43.00049634 10.69549509 -29.96649783 6.59092941 -16.75 3 C-15.65059082 2.69763428 -14.55118164 2.39526855 -13.41845703 2.08374023 C-11.87327393 1.67103882 -11.87327393 1.67103882 -10.296875 1.25 C-8.94094238 0.88648438 -8.94094238 0.88648438 -7.55761719 0.515625 C-4.96783267 -0.00648505 -2.63421621 -0.09488397 0 0 Z " fill="#057ABA" transform="translate(434,304)"/>
<path d="M0 0 C3.84886732 2.56591154 3.97174681 4.98769649 4.875 9.25 C9.058623 27.15028813 16.05649449 43.7881041 27.90112305 57.97875977 C31 61.7197186 31 61.7197186 31 65 C30.38511719 64.25943359 30.38511719 64.25943359 29.7578125 63.50390625 C29.21898437 62.86324219 28.68015625 62.22257813 28.125 61.5625 C27.32449219 60.60537109 27.32449219 60.60537109 26.5078125 59.62890625 C25.0777243 57.89194996 25.0777243 57.89194996 23 57 C21.9296875 55.44140625 21.9296875 55.44140625 20.875 53.5625 C20.52179688 52.94503906 20.16859375 52.32757813 19.8046875 51.69140625 C19 50 19 50 19 48 C18.34 48 17.68 48 17 48 C16.01 44.535 16.01 44.535 15 41 C14.34 41 13.68 41 13 41 C12.49596232 39.70990357 11.99690074 38.41786211 11.5 37.125 C11.2215625 36.40570313 10.943125 35.68640625 10.65625 34.9453125 C10 33 10 33 10 31 C9.34 31 8.68 31 8 31 C7.34 27.7 6.68 24.4 6 21 C5.34 21 4.68 21 4 21 C2.80911014 15.61972975 1.7080481 10.54708616 2 5 C1.34 5 0.68 5 0 5 C0 3.35 0 1.7 0 0 Z " fill="#0685B4" transform="translate(397,450)"/>
<path d="M0 0 C1.57609977 3.94024943 0.47844383 7.21769472 -1 11 C-2.43099734 14.00067861 -4.01191057 16.90641857 -5.625 19.8125 C-6.45418891 21.31699461 -7.27989417 22.82341618 -8.1015625 24.33203125 C-8.46588379 24.98921143 -8.83020508 25.6463916 -9.20556641 26.32348633 C-10.14273882 27.99202289 -10.14273882 27.99202289 -10 30 C-12.5 32.5 -12.5 32.5 -15 35 C-15.91699084 36.25565223 -16.8130542 37.52685648 -17.6875 38.8125 C-18.450625 39.864375 -19.21375 40.91625 -20 42 C-20.66 42 -21.32 42 -22 42 C-22.061875 42.598125 -22.12375 43.19625 -22.1875 43.8125 C-23.3236757 46.87143458 -25.17330142 47.55041099 -28 49 C-28 48.01 -28 47.02 -28 46 C-27.34 46 -26.68 46 -26 46 C-25.63068359 45.17242188 -25.63068359 45.17242188 -25.25390625 44.328125 C-23.75097799 41.53764137 -21.90563609 39.23533588 -19.9375 36.75 C-11.34776437 25.55757974 -5.20449508 13.06226217 0 0 Z " fill="#1BBD7D" transform="translate(616,469)"/>
<path d="M0 0 C0.11941996 12.71159085 -0.14214576 25.31601228 -1 38 C-1.33 38 -1.66 38 -2 38 C-2.05534912 37.13197754 -2.11069824 36.26395508 -2.16772461 35.36962891 C-2.37489601 32.15275935 -2.58591509 28.93617213 -2.79956055 25.71972656 C-2.89127773 24.32692398 -2.98145532 22.93401914 -3.07006836 21.54101562 C-3.19761942 19.5401029 -3.3311462 17.53957392 -3.46484375 15.5390625 C-3.543396 14.33459473 -3.62194824 13.13012695 -3.70288086 11.88916016 C-3.82164384 9.06223927 -3.82164384 9.06223927 -5 7 C-5.68707031 7.6496875 -6.37414062 8.299375 -7.08203125 8.96875 C-7.98308594 9.8040625 -8.88414062 10.639375 -9.8125 11.5 C-10.70582031 12.3353125 -11.59914063 13.170625 -12.51953125 14.03125 C-15 16 -15 16 -18 16 C-15.38308836 13.32529045 -12.75518292 10.66165519 -10.125 8 C-9.00544922 6.8553125 -9.00544922 6.8553125 -7.86328125 5.6875 C-7.14785156 4.965625 -6.43242188 4.24375 -5.6953125 3.5 C-5.03547363 2.8296875 -4.37563477 2.159375 -3.69580078 1.46875 C-2 0 -2 0 0 0 Z " fill="#1AC083" transform="translate(641,367)"/>
<path d="M0 0 C2 0 2 0 4.5 2.375 C5.325 3.24125 6.15 4.1075 7 5 C7.66 5.66 8.32 6.32 9 7 C9.25265625 7.57621094 9.5053125 8.15242187 9.765625 8.74609375 C11.55759139 12.01813365 14.12147052 14.46019027 16.75 17.0625 C17.32564697 17.63395752 17.90129395 18.20541504 18.49438477 18.79418945 C30.35168718 30.35021158 44.22060661 39.88982877 58 49 C57.01 49.495 57.01 49.495 56 50 C41.25748186 40.48137134 27.6909523 30.1292504 15 18 C14.07832031 17.11957031 13.15664063 16.23914063 12.20703125 15.33203125 C7.5986852 10.83259736 3.4702742 6.43676292 0 1 C0 0.67 0 0.34 0 0 Z " fill="#058FAE" transform="translate(411,522)"/>
<path d="M0 0 C0 17.16 0 34.32 0 52 C-4.62979497 48.91347002 -8.16500101 46.09633436 -12.0703125 42.29296875 C-13.90699659 40.76687803 -13.90699659 40.76687803 -16.1015625 41.203125 C-18.37221881 42.15623999 -20.10282921 43.44160971 -22 45 C-20.71792641 42.13998967 -19.50848764 39.92960588 -17 38 C-15.68 38 -14.36 38 -13 38 C-11.95374591 39.29735507 -10.95298777 40.63266972 -10 42 C-9.01 42.33 -8.02 42.66 -7 43 C-4.525 45.475 -4.525 45.475 -2 48 C-1.67 32.82 -1.34 17.64 -1 2 C-1.99 2.495 -1.99 2.495 -3 3 C-5.3329866 3.04022391 -7.66706666 3.04320247 -10 3 C-6.85747549 1.25415305 -3.65571105 0 0 0 Z " fill="#15C993" transform="translate(656,304)"/>
<path d="M0 0 C0.495 0.99 0.495 0.99 1 2 C-0.3104541 4.51656291 -1.67092595 6.86021322 -3.1875 9.25 C-3.86546631 10.32266113 -3.86546631 10.32266113 -4.55712891 11.41699219 C-12.47533527 23.63334468 -22.58053341 33.91306958 -33 44 C-33.66 43.67 -34.32 43.34 -35 43 C-34.04882866 41.8274869 -33.08882991 40.66212985 -32.125 39.5 C-31.32449219 38.52546875 -31.32449219 38.52546875 -30.5078125 37.53125 C-30.01023437 37.0259375 -29.51265625 36.520625 -29 36 C-28.34 36 -27.68 36 -27 36 C-26.773125 35.4225 -26.54625 34.845 -26.3125 34.25 C-25 32 -25 32 -22.5625 30.0625 C-19.8803881 27.90372701 -18.6485487 25.98308812 -17 23 C-16.34 22.34 -15.68 21.68 -15 21 C-12.20772213 17.43927508 -9.82271339 13.64651985 -7.40234375 9.828125 C-6.93957031 9.22484375 -6.47679687 8.6215625 -6 8 C-5.34 8 -4.68 8 -4 8 C-3.896875 7.236875 -3.79375 6.47375 -3.6875 5.6875 C-2.95635961 2.82940576 -2.23048087 1.84257115 0 0 Z " fill="#1CBC7A" transform="translate(622,501)"/>
<path d="M0 0 C0.99 0.33 1.98 0.66 3 1 C2.53102295 1.42821045 2.0620459 1.8564209 1.57885742 2.29760742 C-0.55739946 4.25467561 -2.68496878 6.22095137 -4.8125 8.1875 C-5.55048828 8.86103516 -6.28847656 9.53457031 -7.04882812 10.22851562 C-10.70792825 13.62270353 -13.55286066 16.61202601 -16 21 C-18.0056581 22.87689017 -20.10650276 24.54783095 -22.2578125 26.25390625 C-24.1771275 28.17752465 -24.61704411 29.34832057 -25 32 C-24.21625 32.61875 -23.4325 33.2375 -22.625 33.875 C-20 36 -20 36 -18 38 C-20.70931419 37.84518205 -22.46584039 37.51827919 -24.4453125 35.59765625 C-25.67679642 34.10228292 -26.8429837 32.5537076 -28 31 C-22.63660224 19.00647235 -9.19283798 9.08993898 0 0 Z " fill="#058BB0" transform="translate(457,434)"/>
<path d="M0 0 C8.25 0 16.5 0 25 0 C28 8 28 8 27 12 C25.74335022 9.09399739 25 7.20395416 25 4 C16.75 4 8.5 4 0 4 C0 2.68 0 1.36 0 0 Z " fill="#1C2835" transform="translate(465,675)"/>
<path d="M0 0 C3.32226755 2.94537165 4.8268491 5.43461124 6.25 9.625 C6.58515625 10.58664062 6.9203125 11.54828125 7.265625 12.5390625 C8 15 8 15 8 17 C8.66 17 9.32 17 10 17 C10.6509259 18.24735567 11.29551669 19.49801832 11.9375 20.75 C12.29714844 21.44609375 12.65679687 22.1421875 13.02734375 22.859375 C13.95558182 24.90224433 14.53166578 26.81115376 15 29 C15.66 29 16.32 29 17 29 C17.680625 30.423125 17.680625 30.423125 18.375 31.875 C19.80238254 35.00313679 19.80238254 35.00313679 22 37 C22.625 39.125 22.625 39.125 23 41 C14.38339697 32.83531671 8.98960021 22.41948736 3.9375 11.8125 C3.54336914 10.98669434 3.14923828 10.16088867 2.74316406 9.31005859 C0 3.392732 0 3.392732 0 0 Z " fill="#0584BA" transform="translate(388,481)"/>
<path d="M0 0 C1.74949772 2.62424658 2.65389981 4.55727216 3.625 7.5 C3.88539063 8.2734375 4.14578125 9.046875 4.4140625 9.84375 C5 12 5 12 5 15 C1.7 15 -1.6 15 -5 15 C-1.85714286 4.28571429 -1.85714286 4.28571429 0 0 Z " fill="#0B1523" transform="translate(462,723)"/>
<path d="M0 0 C0.66 0.33 1.32 0.66 2 1 C0.71520959 2.50589388 -0.57804082 4.00457375 -1.875 5.5 C-2.59429688 6.3353125 -3.31359375 7.170625 -4.0546875 8.03125 C-4.69664062 8.6809375 -5.33859375 9.330625 -6 10 C-6.66 10 -7.32 10 -8 10 C-8.35964844 10.86818359 -8.35964844 10.86818359 -8.7265625 11.75390625 C-10.25606626 14.45165062 -12.00459547 15.93914925 -14.375 17.9375 C-20.74594916 23.50742339 -26.34640498 29.71498973 -32 36 C-32.66 35.67 -33.32 35.34 -34 35 C-23.14610383 22.86378698 -11.5583761 11.45809654 0 0 Z " fill="#0597AC" transform="translate(521,368)"/>
<path d="M0 0 C2.92586433 1.46293216 3.05946588 3.40270098 4.125 6.4375 C4.47820312 7.42621094 4.83140625 8.41492188 5.1953125 9.43359375 C6 12 6 12 6 14 C2.37 14 -1.26 14 -5 14 C-3.35 9.38 -1.7 4.76 0 0 Z " fill="#0D1A28" transform="translate(367,724)"/>
<path d="M0 0 C0.33 0 0.66 0 1 0 C1.17050208 4.24985499 1.33568063 8.49990183 1.5 12.75 C1.54769531 13.93722656 1.59539062 15.12445313 1.64453125 16.34765625 C2.04583135 26.8387874 2.2542332 37.27227396 1.5 47.75 C1.45230469 48.45898438 1.40460938 49.16796875 1.35546875 49.8984375 C1.24055213 51.59920352 1.12083745 53.29964439 1 55 C0.67 55 0.34 55 0 55 C-1.55592818 41.38562846 -0.99625414 27.79210729 -0.5 14.125 C-0.45160031 12.74349736 -0.40342227 11.36198694 -0.35546875 9.98046875 C-0.23914338 6.65356319 -0.12062283 3.32675204 0 0 Z " fill="#057DB9" transform="translate(379,388)"/>
<path d="M0 0 C3.17341326 3.17341326 2.99520767 6.20668046 3.02172852 10.59692383 C2.98002596 11.96715209 2.93211305 13.33720147 2.87890625 14.70703125 C2.85529526 15.43242599 2.83168427 16.15782074 2.80735779 16.90519714 C2.7311668 19.20785295 2.64695297 21.51013389 2.5625 23.8125 C2.50923459 25.37953933 2.45649454 26.94659661 2.40429688 28.51367188 C2.27561258 32.34268248 2.13973538 36.17137741 2 40 C1.34 39.67 0.68 39.34 0 39 C0 26.13 0 13.26 0 0 Z " fill="#010611" transform="translate(229,648)"/>
<path d="M0 0 C6.51722911 0.33709806 9.32539218 1.44225737 14 6 C13.01 7.32 12.02 8.64 11 10 C8.42482365 8.81145707 6.23445558 7.4794298 3.875 5.875 C1.29286023 3.81791074 1.29286023 3.81791074 -1 4 C-0.67 2.68 -0.34 1.36 0 0 Z " fill="#F8FAFA" transform="translate(647,714)"/>
<path d="M0 0 C0.66 0.33 1.32 0.66 2 1 C-7.09360465 8.35111753 -16.81142971 14.17716984 -27.01123047 19.86230469 C-28.66874088 20.81049994 -30.28077813 21.83763237 -31.87890625 22.8828125 C-32.92884766 23.43582031 -32.92884766 23.43582031 -34 24 C-34.99 23.67 -35.98 23.34 -37 23 C-35.54462432 22.16151196 -34.08559627 21.32936066 -32.625 20.5 C-31.40683594 19.80390625 -31.40683594 19.80390625 -30.1640625 19.09375 C-28 18 -28 18 -26 18 C-26 17.34 -26 16.68 -26 16 C-25.19175781 15.62488281 -24.38351562 15.24976563 -23.55078125 14.86328125 C-17.77777789 12.09864635 -13.42924655 9.6753158 -9 5 C-6.93224572 3.81501774 -4.83753826 2.79014913 -2.671875 1.796875 C-1.00549945 1.11685544 -1.00549945 1.11685544 0 0 Z " fill="#08B491" transform="translate(568,559)"/>
<path d="M0 0 C1.65 0 3.3 0 5 0 C5.33 4.62 5.66 9.24 6 14 C4.02 14 2.04 14 0 14 C0 9.38 0 4.76 0 0 Z " fill="#F2F4F5" transform="translate(537,738)"/>
<path d="M0 0 C9.47715475 4.36447916 16.76290264 13.66640801 24 21 C24.99894792 22.00105097 25.99829206 23.00171086 27 24 C23.07860136 22.67852954 20.79484526 21.12503811 17.96875 18.12109375 C16.87626953 16.98704102 16.87626953 16.98704102 15.76171875 15.83007812 C14.25195509 14.23296199 12.74414539 12.63399652 11.23828125 11.03320312 C10.50996094 10.27845703 9.78164063 9.52371094 9.03125 8.74609375 C8.04995117 7.70473267 8.04995117 7.70473267 7.04882812 6.64233398 C4.65880781 4.72650145 3.03123722 4.25995392 0 4 C-2.07089578 4.9305502 -2.07089578 4.9305502 -3.8125 6.4375 C-4.41707031 6.91058594 -5.02164063 7.38367188 -5.64453125 7.87109375 C-6.31548828 8.42990234 -6.31548828 8.42990234 -7 9 C-5.44499019 5.18315774 -2.96404505 2.80804268 0 0 Z " fill="#061421" transform="translate(531,385)"/>
<path d="M0 0 C-3.73670914 3.73670914 -9.71549218 4.29514472 -14.74853516 5.6237793 C-16.86316488 6.18436254 -18.97250877 6.7623308 -21.08203125 7.34179688 C-22.42679797 7.70158912 -23.77184183 8.06034744 -25.1171875 8.41796875 C-26.34034668 8.74563232 -27.56350586 9.0732959 -28.82373047 9.41088867 C-31.75689075 9.95490987 -33.26030853 10.04517312 -36 9 C-35.34 9 -34.68 9 -34 9 C-34 8.34 -34 7.68 -34 7 C-32.48019531 6.70996094 -32.48019531 6.70996094 -30.9296875 6.4140625 C-29.57808432 6.15125077 -28.22652408 5.88821817 -26.875 5.625 C-26.20984375 5.49867188 -25.5446875 5.37234375 -24.859375 5.2421875 C-19.71800492 4.23407572 -14.94567283 2.7451513 -10.0625 0.875 C-6.59234961 -0.11647154 -3.591274 -0.14365096 0 0 Z " fill="#0784B7" transform="translate(505,306)"/>
<path d="M0 0 C0 3 0 3 -1.7578125 4.98046875 C-2.53898437 5.70878906 -3.32015625 6.43710937 -4.125 7.1875 C-7.79478101 10.70749403 -10.81346063 14.23118366 -13.61328125 18.46875 C-15.31832757 20.35150538 -16.59062883 20.40386693 -19 21 C-19.33 21.99 -19.66 22.98 -20 24 C-20.66 23.67 -21.32 23.34 -22 23 C-14.99792665 14.98470673 -7.57474917 7.46938171 0 0 Z " fill="#048EAB" transform="translate(482,408)"/>
<path d="M0 0 C4.95 0 9.9 0 15 0 C14.67 1.32 14.34 2.64 14 4 C9.05 4 4.1 4 -1 4 C-0.67 2.68 -0.34 1.36 0 0 Z " fill="#152434" transform="translate(360,743)"/>
<path d="M0 0 C3.9488749 2.63258327 4.14976982 5.43176605 5.125 9.8125 C5.29386719 10.52470703 5.46273438 11.23691406 5.63671875 11.97070312 C6.49728533 15.63319318 7.28864895 19.30532976 8 23 C7.34 23 6.68 23 6 23 C6 22.34 6 21.68 6 21 C5.34 21 4.68 21 4 21 C2.80911014 15.61972975 1.7080481 10.54708616 2 5 C1.34 5 0.68 5 0 5 C0 3.35 0 1.7 0 0 Z " fill="#067BAD" transform="translate(397,450)"/>
<path d="M0 0 C2.21710766 3.32566148 3.09946473 6.12077116 4 10 C3.67 10.99 3.34 11.98 3 13 C1.02 13 -0.96 13 -3 13 C-2.34 12.01 -1.68 11.02 -1 10 C-1 10.66 -1 11.32 -1 12 C-0.34 11.67 0.32 11.34 1 11 C1 10.34 1 9.68 1 9 C0.34 9 -0.32 9 -1 9 C-2.0326802 6.21176345 -2.04509293 5.1322726 -1.0625 2.25 C-0.711875 1.5075 -0.36125 0.765 0 0 Z " fill="#0F1E2D" transform="translate(462,723)"/>
<path d="M0 0 C0 3.52032428 -0.70351351 4.4385343 -3 7 C-3.66 7 -4.32 7 -5 7 C-5.061875 7.598125 -5.12375 8.19625 -5.1875 8.8125 C-6.3236757 11.87143458 -8.17330142 12.55041099 -11 14 C-11 13.01 -11 12.02 -11 11 C-10.34 11 -9.68 11 -9 11 C-8.773125 10.46375 -8.54625 9.9275 -8.3125 9.375 C-6.3054879 5.74326382 -3.77164705 1.88582352 0 0 Z " fill="#14B37E" transform="translate(599,504)"/>
<path d="M0 0 C0.66 0.33 1.32 0.66 2 1 C0.0862931 2.46236093 -1.83075233 3.91994246 -3.75 5.375 C-4.55824219 5.99375 -4.55824219 5.99375 -5.3828125 6.625 C-8.14944813 8.71684645 -10.8209088 10.59564418 -14 12 C-13.04332624 8.63159179 -12.36415421 7.25052923 -9.43359375 5.234375 C-8.44488281 4.74453125 -7.45617187 4.2546875 -6.4375 3.75 C-2.99490006 2.20011838 -2.99490006 2.20011838 0 0 Z " fill="#0BAD87" transform="translate(568,559)"/>
<path d="M0 0 C2.89163076 3.30588124 3.80068157 6.30509745 4.75 10.5625 C5.01296875 11.69816406 5.2759375 12.83382813 5.546875 14.00390625 C6 17 6 17 5 20 C2.06036715 13.58625561 -0.44985251 7.19764013 0 0 Z " fill="#0582BC" transform="translate(382,460)"/>
<path d="M0 0 C0.33 0.66 0.66 1.32 1 2 C-0.21484375 4.3828125 -0.21484375 4.3828125 -1.9375 7.125 C-2.50339844 8.03507813 -3.06929687 8.94515625 -3.65234375 9.8828125 C-4.09707031 10.58148437 -4.54179687 11.28015625 -5 12 C-7.97126708 9.28922757 -8.88243734 6.86848614 -10 3 C-9.5875 3.515625 -9.175 4.03125 -8.75 4.5625 C-7.11987606 6.21157981 -7.11987606 6.21157981 -5 6 C-2.22574216 4.61287108 -1.38838046 2.7073419 0 0 Z " fill="#08101A" transform="translate(252,645)"/>
<path d="M0 0 C0 3 0 3 -1.19335938 4.53393555 C-1.73798828 5.062854 -2.28261719 5.59177246 -2.84375 6.13671875 C-3.72353516 7.00200195 -3.72353516 7.00200195 -4.62109375 7.88476562 C-5.24113281 8.47966797 -5.86117187 9.07457031 -6.5 9.6875 C-7.12003906 10.29400391 -7.74007812 10.90050781 -8.37890625 11.52539062 C-9.91264707 13.02373743 -11.45548198 14.51276493 -13 16 C-13.66 15.67 -14.32 15.34 -15 15 C-14.04882866 13.8274869 -13.08882991 12.66212985 -12.125 11.5 C-11.59132813 10.8503125 -11.05765625 10.200625 -10.5078125 9.53125 C-9.76144531 8.77328125 -9.76144531 8.77328125 -9 8 C-8.34 8 -7.68 8 -7 8 C-6.6596875 7.13375 -6.6596875 7.13375 -6.3125 6.25 C-4.66961977 3.4336339 -2.60466773 1.91922886 0 0 Z " fill="#16C485" transform="translate(602,529)"/>
<path d="M0 0 C6.75 0.75 6.75 0.75 9 3 C6.69 5.64 4.38 8.28 2 11 C2 7.79604584 2.74335022 5.90600261 4 3 C3.34 3 2.68 3 2 3 C2 2.34 2 1.68 2 1 C1.34 0.67 0.68 0.34 0 0 Z " fill="#0EA9A1" transform="translate(591,305)"/>
<path d="M0 0 C0.99 0 1.98 0 3 0 C3 0.66 3 1.32 3 2 C0.8664718 3.78770907 -1.26844058 5.46872824 -3.5 7.125 C-4.43005859 7.82689453 -4.43005859 7.82689453 -5.37890625 8.54296875 C-6.91502517 9.70096609 -8.45698059 10.85121357 -10 12 C-10.66 11.67 -11.32 11.34 -12 11 C-10.73577236 8.47154472 -9.47154472 8.23577236 -7 7 C-6.67 6.34 -6.34 5.68 -6 5 C-5.360625 4.690625 -4.72125 4.38125 -4.0625 4.0625 C-1.68028507 3.04654078 -1.68028507 3.04654078 0 0 Z " fill="#10B885" transform="translate(583,546)"/>
<path d="M0 0 C0.66 0 1.32 0 2 0 C2 3.63 2 7.26 2 11 C2.66 11.33 3.32 11.66 4 12 C2.68 12.33 1.36 12.66 0 13 C0 8.71 0 4.42 0 0 Z " fill="#F9FAF9" transform="translate(537,738)"/>
<path d="M0 0 C-3.41338353 3.14031285 -6.41462451 3.74525692 -11 4 C-11.66 3.34 -12.32 2.68 -13 2 C-8.46298506 0.54815522 -4.81938524 -0.23509196 0 0 Z " fill="#10AF91" transform="translate(640,308)"/>
<path d="M0 0 C0.33 0 0.66 0 1 0 C1.36923077 5.53846154 1.36923077 5.53846154 -0.5 7.875 C-1.2425 8.431875 -1.2425 8.431875 -2 9 C-2.99 8.67 -3.98 8.34 -5 8 C-4.19185349 6.66402348 -3.37836819 5.331275 -2.5625 4 C-2.11003906 3.2575 -1.65757812 2.515 -1.19140625 1.75 C-0.79824219 1.1725 -0.40507812 0.595 0 0 Z " fill="#071320" transform="translate(261,653)"/>
<path d="M0 0 C0.99 0.33 1.98 0.66 3 1 C1.90653119 2.34212062 0.7998425 3.67347975 -0.3125 5 C-1.23482422 6.11375 -1.23482422 6.11375 -2.17578125 7.25 C-4 9 -4 9 -7 9 C-6.67 8.01 -6.34 7.02 -6 6 C-5.34 6 -4.68 6 -4 6 C-4 5.34 -4 4.68 -4 4 C-3.34 4 -2.68 4 -2 4 C-1.34 2.68 -0.68 1.36 0 0 Z " fill="#068DA8" transform="translate(477,437)"/>
<path d="M0 0 C0.33 0 0.66 0 1 0 C1 5.94 1 11.88 1 18 C0.67 18 0.34 18 0 18 C-0.06058594 17.18015625 -0.12117187 16.3603125 -0.18359375 15.515625 C-0.26738281 14.43796875 -0.35117187 13.3603125 -0.4375 12.25 C-0.51871094 11.18265625 -0.59992187 10.1153125 -0.68359375 9.015625 C-0.89966824 6.09402592 -0.89966824 6.09402592 -1.66015625 3.734375 C-1.77230469 3.16203125 -1.88445313 2.5896875 -2 2 C-1.34 1.34 -0.68 0.68 0 0 Z " fill="#19A577" transform="translate(638,370)"/>
<path d="M0 0 C-1.81817001 2.31459868 -2.75615543 2.95377187 -5.69921875 3.51171875 C-6.68535156 3.56972656 -7.67148437 3.62773437 -8.6875 3.6875 C-9.68136719 3.75324219 -10.67523438 3.81898438 -11.69921875 3.88671875 C-12.45847656 3.92410156 -13.21773438 3.96148437 -14 4 C-13.67 3.34 -13.34 2.68 -13 2 C-8.55499776 0.66649933 -4.6681169 -0.29175731 0 0 Z " fill="#0786B5" transform="translate(508,284)"/>
<path d="M0 0 C2.02196167 2.02196167 2.67551358 3.25864486 3.6875 5.875 C3.95949219 6.55304687 4.23148437 7.23109375 4.51171875 7.9296875 C5 10 5 10 4 14 C3.01 11.03 2.02 8.06 1 5 C0.34 5 -0.32 5 -1 5 C-0.67 3.35 -0.34 1.7 0 0 Z " fill="#0A0F18" transform="translate(477,642)"/>
<path d="M0 0 C2.97 0 5.94 0 9 0 C8.67 0.66 8.34 1.32 8 2 C5.35139573 2.59355614 2.70802678 2.74209269 0 3 C0 2.01 0 1.02 0 0 Z " fill="#192532" transform="translate(578,744)"/>
<path d="M0 0 C1.5 1.375 1.5 1.375 3 3 C3 3.66 3 4.32 3 5 C0.03 5 -2.94 5 -6 5 C-6 4.34 -6 3.68 -6 3 C-4.02 3 -2.04 3 0 3 C0 2.01 0 1.02 0 0 Z " fill="#090F1E" transform="translate(370,733)"/>
<path d="M0 0 C0.33 0 0.66 0 1 0 C1 3.63 1 7.26 1 11 C-0.65 10.67 -2.3 10.34 -4 10 C-3.34 9.67 -2.68 9.34 -2 9 C-2.04125 8.2575 -2.0825 7.515 -2.125 6.75 C-1.99601866 3.91241048 -1.42948778 2.41226062 0 0 Z " fill="#D0D8DE" transform="translate(388,628)"/>
<path d="M0 0 C0.33 0 0.66 0 1 0 C1.40178571 8.03571429 1.40178571 8.03571429 -2 12 C-2.05395478 10.37536158 -2.09277195 8.75021459 -2.125 7.125 C-2.14820313 6.22007812 -2.17140625 5.31515625 -2.1953125 4.3828125 C-2 2 -2 2 0 0 Z " fill="#20BF7B" transform="translate(623,440)"/>
<path d="M0 0 C0.33 0.99 0.66 1.98 1 3 C-3.455 6.96 -3.455 6.96 -8 11 C-8.66 10.67 -9.32 10.34 -10 10 C-6.7 6.7 -3.4 3.4 0 0 Z " fill="#040919" transform="translate(590,395)"/>
<path d="M0 0 C0.66 0.66 1.32 1.32 2 2 C-0.31 4.31 -2.62 6.62 -5 9 C-5.66 8.67 -6.32 8.34 -7 8 C-4.69 5.36 -2.38 2.72 0 0 Z " fill="#058BA6" transform="translate(494,395)"/>
<path d="M0 0 C2.32472205 2.85306797 3.7508258 5.54074837 5 9 C4.01 9.495 4.01 9.495 3 10 C2.30289269 8.71349294 1.61757124 7.42059335 0.9375 6.125 C0.36322266 5.04605469 0.36322266 5.04605469 -0.22265625 3.9453125 C-0.47917969 3.30335938 -0.73570312 2.66140625 -1 2 C-0.67 1.34 -0.34 0.68 0 0 Z " fill="#057DAF" transform="translate(398,500)"/>
<path d="M0 0 C1.32 0.33 2.64 0.66 4 1 C1.39308158 3.60691842 -0.37607794 3.70416963 -4 4 C-4.99 3.34 -5.98 2.68 -7 2 C-2.25 0.875 -2.25 0.875 0 2 C0 1.34 0 0.68 0 0 Z " fill="#0677B1" transform="translate(438,322)"/>
<path d="M0 0 C0.66 0.66 1.32 1.32 2 2 C-0.94386623 3.47193312 -3.37390036 2.84936173 -6.625 2.5625 C-7.81351562 2.46066406 -9.00203125 2.35882812 -10.2265625 2.25390625 C-11.14179688 2.17011719 -12.05703125 2.08632813 -13 2 C-13 1.67 -13 1.34 -13 1 C-10.87631556 0.77865824 -8.75095976 0.57329993 -6.625 0.375 C-5.44164062 0.25898437 -4.25828125 0.14296875 -3.0390625 0.0234375 C-2.03617187 0.01570312 -1.03328125 0.00796875 0 0 Z " fill="#122640" transform="translate(484,626)"/>
</svg>
