<?xml version="1.0" encoding="UTF-8"?>
<svg version="1.1" xmlns="http://www.w3.org/2000/svg" width="511" height="488">
<path d="M0 0 C1.07175083 3.55786135 1.20401299 6.98685256 1.375 10.6875 C2.06688132 21.04881509 2.06688132 21.04881509 7.5 29.5 C11.1302664 31.67815984 13.8378876 32.1266648 17.98994446 32.14044189 C19.02033844 32.14615204 20.05073242 32.15186218 21.11235046 32.15774536 C22.24227921 32.15886322 23.37220795 32.15998108 24.53637695 32.16113281 C25.72686646 32.16609772 26.91735596 32.17106262 28.1439209 32.17617798 C31.41057666 32.18828677 34.67719663 32.19574488 37.94387078 32.20018864 C39.98571247 32.20312131 42.02754857 32.2072265 44.06938744 32.21169281 C50.46060291 32.22536531 56.85180558 32.23503299 63.24303466 32.2388947 C70.61556137 32.24337404 77.98790254 32.26091705 85.36037284 32.2898953 C91.06239459 32.31152801 96.76436421 32.32159984 102.46642655 32.32293582 C105.87042926 32.32398278 109.27425751 32.32986706 112.67821693 32.34775543 C116.47743441 32.36479314 120.27619937 32.36294089 124.07543945 32.35644531 C125.1992955 32.3656601 126.32315155 32.37487488 127.48106384 32.3843689 C133.05373213 32.35449458 137.22836546 32.23604292 142 29 C143.69145439 27.12988626 143.69145439 27.12988626 144.8125 25 C145.40998047 23.9790625 145.40998047 23.9790625 146.01953125 22.9375 C148.4790484 18.07725894 148.24444278 13.12315852 148.25390625 7.8046875 C148.328125 5.6875 148.328125 5.6875 149 2 C151.62634828 -0.3947479 153.13713622 -0.97606655 156.67578125 -1.07421875 C157.54589844 -0.94660156 158.41601562 -0.81898437 159.3125 -0.6875 C160.19550781 -0.56761719 161.07851563 -0.44773437 161.98828125 -0.32421875 C162.65214844 -0.21722656 163.31601562 -0.11023438 164 0 C164.33 0.99 164.66 1.98 165 3 C163.69659096 5.11428563 162.36797932 7.02759723 160.875 9 C149.78555197 24.30305151 145.83745254 41.53228765 148.4609375 60.296875 C150.99869324 72.53781447 155.53608221 82.97429809 163.7578125 92.4140625 C174.56269678 104.87544471 178.74402255 116.6936291 179.19921875 133.04296875 C179.24622925 134.67878906 179.24622925 134.67878906 179.29418945 136.34765625 C179.34695133 138.52826783 179.38146488 140.70941885 179.39526367 142.890625 C179.61663966 153.41133363 182.69186865 162.26096468 190 170 C192.25873 171.81901821 194.58247468 173.38831645 197 175 C198.29943471 177.59886942 198.14129611 179.5139099 198.16113281 182.42431641 C198.17074036 183.55954742 198.1803479 184.69477844 198.19024658 185.8644104 C198.1966214 187.71430069 198.1966214 187.71430069 198.203125 189.6015625 C198.20882507 190.86712982 198.21452515 192.13269714 198.22039795 193.43661499 C198.22986135 196.12167964 198.23675061 198.80663218 198.24023438 201.49169922 C198.24569512 204.91457237 198.2696688 208.33704287 198.29820633 211.75979042 C198.32144797 215.04035019 198.32329126 218.32093197 198.328125 221.6015625 C198.3404718 222.82267731 198.3528186 224.04379211 198.36553955 225.3019104 C198.34367377 233.71091594 197.64210069 241.22015621 191.58649445 247.6944046 C182.7960742 254.92842439 170.86873134 253.56607291 160.20507812 253.51757812 C158.20014438 253.52300445 156.19521462 253.53012996 154.19029236 253.53881836 C148.76673215 253.55699387 143.34347762 253.55000798 137.91991234 253.53730202 C132.23244809 253.52714443 126.54500927 253.53657535 120.85754395 253.54284668 C111.30813927 253.55011505 101.7588585 253.54055662 92.20947266 253.52148438 C81.18375927 253.49971728 70.15834181 253.50676921 59.13263559 253.52879 C49.65037718 253.54696706 40.16820762 253.54949103 30.6859374 253.53903532 C25.029513 253.53281309 19.3732275 253.5319298 13.71681213 253.54518127 C8.3978808 253.55677267 3.0793294 253.54865384 -2.23956108 253.52560425 C-4.18655709 253.52033474 -6.13358531 253.52180067 -8.08056831 253.53065491 C-29.28804547 253.618176 -29.28804547 253.618176 -37.9375 246.625 C-42.57089811 240.72794786 -43.43837579 236.11331304 -43.38095093 228.85290527 C-43.3856309 227.94137994 -43.39031087 227.02985461 -43.39513266 226.0907073 C-43.40708268 223.04144259 -43.39762527 219.99262729 -43.38818359 216.94335938 C-43.39224928 214.75519041 -43.39759115 212.5670235 -43.40411377 210.37886047 C-43.4177934 204.43886853 -43.41248596 198.49903285 -43.40297651 192.55903816 C-43.39538333 186.34383853 -43.40242458 180.12865231 -43.40713501 173.91345215 C-43.41294322 162.8073418 -43.40361791 151.70129295 -43.388357 140.59519476 C-43.37495412 130.52973654 -43.37728232 120.46438213 -43.39111328 110.39892578 C-43.40717552 98.70421956 -43.41313978 87.00957391 -43.40427649 75.31485796 C-43.39959844 69.12643981 -43.39897881 62.93809313 -43.40888596 56.74967957 C-43.41754917 50.93184984 -43.4115453 45.11421623 -43.39420319 39.2964077 C-43.39023493 37.16067518 -43.39137817 35.02492618 -43.39799118 32.88920021 C-43.40618316 29.9749419 -43.39591317 27.0613129 -43.38095093 24.14709473 C-43.38764309 23.30098302 -43.39433526 22.45487132 -43.40123022 21.58311987 C-43.35192241 16.63520151 -42.63909331 13.3412604 -40 9 C-39.34 9 -38.68 9 -38 9 C-37.7525 8.401875 -37.505 7.80375 -37.25 7.1875 C-34.89316758 3.06304326 -31.36488006 1.50831539 -27 0 C-17.95489242 -1.31336789 -9.05630029 -0.97783973 0 0 Z M27.25 64.0625 C26.72776855 64.54348145 26.20553711 65.02446289 25.66748047 65.52001953 C21.50917248 69.40373427 17.72810928 73.55736977 13.96484375 77.82421875 C11.45131131 80.60759364 9.11407262 82.89981149 6 85 C2.46394091 84.68175468 0.89933247 83.18310298 -1.4375 80.625 C-4.10013871 77.86584773 -6.40870815 75.51212289 -10 74 C-12.67975596 73.98546047 -12.67975596 73.98546047 -15 75 C-17.27324999 77.74200192 -17.27324999 77.74200192 -16.8125 80.453125 C-15.92737412 83.22765419 -14.96417636 84.62214228 -13 86.75 C-12.37738281 87.42675781 -11.75476563 88.10351562 -11.11328125 88.80078125 C-4.29747589 97.06281235 -4.29747589 97.06281235 4.85327148 101.29760742 C8.71407744 100.93246486 9.70167611 100.00460334 12.34765625 97.23828125 C13.11787109 96.44873047 13.88808594 95.65917969 14.68164062 94.84570312 C15.46732422 94.00974609 16.25300781 93.17378906 17.0625 92.3125 C17.85205078 91.49587891 18.64160156 90.67925781 19.45507812 89.83789062 C20.98273713 88.25644983 22.50492513 86.66970169 24.02099609 85.07714844 C27.27903456 81.65753441 30.61871657 78.34705347 34.078125 75.1328125 C35.13555185 74.13035091 36.19284217 73.12774529 37.25 72.125 C38.06210938 71.38830078 38.06210938 71.38830078 38.890625 70.63671875 C42.67157249 66.99755679 43.75519748 64.42645586 44 59 C37.1250409 53.50003272 32.87648092 58.83150228 27.25 64.0625 Z M56 77 C55.51104072 79.79405302 55.58907823 81.2808869 57 83.75 C63.59322705 87.87076691 74.22590971 86.06604159 81.67578125 85.94921875 C83.09205349 85.92995481 84.50832859 85.9109001 85.92460632 85.89204407 C88.87729984 85.85127682 91.82988665 85.80607717 94.7824707 85.75805664 C98.56636104 85.69714977 102.3502828 85.65038041 106.13441181 85.60722637 C109.05213355 85.57190438 111.96966978 85.52767016 114.88722801 85.48087502 C116.28303911 85.45984453 117.67890092 85.44193776 119.07479286 85.4272213 C121.02044591 85.40567298 122.96593389 85.37051331 124.91137695 85.3347168 C126.0175386 85.31837692 127.12370026 85.30203705 128.26338196 85.28520203 C131.21613219 85.19208141 131.21613219 85.19208141 134 83 C134.58345476 80.04253508 134.58345476 80.04253508 134 77 C131.66965822 74.57386337 130.24879678 74.03046028 126.88842773 73.61904907 C125.66583252 73.61666229 124.4432373 73.61427551 123.18359375 73.61181641 C122.16823044 73.60393097 122.16823044 73.60393097 121.13235474 73.59588623 C118.90049999 73.5827099 116.66936168 73.59141532 114.4375 73.6015625 C112.88338077 73.59954107 111.32926247 73.59662905 109.77514648 73.59286499 C106.52025306 73.58844487 103.26560685 73.59486247 100.01074219 73.60888672 C95.84092022 73.62597865 91.67167755 73.61613577 87.50187683 73.59816933 C84.29337203 73.58732293 81.08500432 73.59078171 77.87649536 73.5985527 C76.3391208 73.60055236 74.80173375 73.59810367 73.26437378 73.59111404 C71.11471644 73.5834852 68.96599404 73.59512244 66.81640625 73.61181641 C64.98251343 73.61539658 64.98251343 73.61539658 63.11157227 73.61904907 C59.75892253 74.0295152 58.3473331 74.60770826 56 77 Z M11.65063477 140.24169922 C11.10592529 140.82193848 10.56121582 141.40217773 10 142 C9.22438721 142.85682373 9.22438721 142.85682373 8.43310547 143.73095703 C7 145 7 145 4.62890625 145 C1.15862894 143.67995395 -0.55937306 141.72364972 -3.0625 139 C-6.19601004 135.47904088 -6.19601004 135.47904088 -10.1328125 133.0546875 C-12.33885074 132.79511931 -12.33885074 132.79511931 -14.8125 135.125 C-17.29058887 137.72463047 -17.29058887 137.72463047 -16.82421875 140.4453125 C-15.92952195 143.21844856 -14.96517875 144.62105635 -13 146.75 C-12.37480469 147.42804688 -11.74960938 148.10609375 -11.10546875 148.8046875 C-10.41066406 149.52914062 -9.71585938 150.25359375 -9 151 C-7.84951172 152.21042969 -7.84951172 152.21042969 -6.67578125 153.4453125 C-1.9710557 158.619894 -1.9710557 158.619894 4 162 C7.66969515 161.72975113 9.30455119 159.99223653 11.75 157.375 C14.41925821 154.59184023 17.11375819 151.98495912 20.0625 149.5 C23.4415739 146.60083349 26.26190283 143.45852164 29.125 140.05859375 C31.9318523 136.97690383 35.08627419 134.33838123 38.27734375 131.6640625 C38.84582031 131.11492187 39.41429687 130.56578125 40 130 C40 129.34 40 128.68 40 128 C40.66 128 41.32 128 42 128 C43.8454602 124.88578592 44.46369062 122.61678684 44 119 C42.91666667 117.08333333 42.91666667 117.08333333 41 116 C30.33212444 114.68429535 18.26309003 133.08924931 11.65063477 140.24169922 Z M56 137 C55.33314062 139.54327108 55.33314062 139.54327108 56 142 C57.87860833 144.5048111 58.96101874 144.98700625 62 146 C64.75734389 146.10668026 67.48978278 146.15725445 70.24755859 146.16113281 C71.08852585 146.16609772 71.9294931 146.17106262 72.79594421 146.17617798 C75.58011694 146.19079223 78.36423271 146.19760012 81.1484375 146.203125 C83.08273317 146.20887673 85.01702883 146.21463446 86.95132446 146.22039795 C91.00824245 146.23090561 95.06514063 146.23674992 99.12207031 146.24023438 C104.3196966 146.24572085 109.51706116 146.26975319 114.71460533 146.29820633 C118.71060959 146.31683176 122.70655076 146.32203824 126.70259476 146.32357025 C128.61874448 146.32659715 130.53489308 146.33462692 132.45100021 146.34775543 C135.13208685 146.3648151 137.81253342 146.362936 140.49365234 146.35644531 C141.67988945 146.37026749 141.67988945 146.37026749 142.89009094 146.3843689 C147.39508613 146.35021418 150.50753764 145.96302035 154 143 C154.66666667 139.5 154.66666667 139.5 154 136 C152.76762981 134.23794573 152.76762981 134.23794573 151 133 C148.08852308 132.69851444 145.3901064 132.58001198 142.47705078 132.59594727 C141.60682281 132.58908401 140.73659485 132.58222076 139.83999634 132.57514954 C136.95826987 132.55682246 134.07708485 132.56072793 131.1953125 132.56640625 C129.19375429 132.56184676 127.19219766 132.55654189 125.19064331 132.55052185 C120.99242805 132.54157875 116.79440289 132.54402691 112.59619141 132.55395508 C107.21682941 132.56543685 101.83812459 132.54525137 96.45884895 132.51603794 C92.32384065 132.49768682 88.18899007 132.49796641 84.05395126 132.50367546 C82.07082066 132.50382886 80.08767949 132.49776927 78.10458755 132.48538399 C75.32988622 132.4704992 72.55640165 132.48113306 69.78173828 132.49829102 C68.96286133 132.48862305 68.14398438 132.47895508 67.30029297 132.46899414 C62.31282871 132.5335462 59.56555631 133.17111211 56 137 Z M30.1875 181 C29.66196533 181.50184814 29.13643066 182.00369629 28.5949707 182.52075195 C27.05106037 184.00179987 25.52432998 185.49884396 24 187 C23.236875 187.73605469 22.47375 188.47210938 21.6875 189.23046875 C18.37026146 192.47643849 15.29055778 195.81539016 12.3125 199.375 C9.8054419 202.30756796 7.86536046 204.06294292 4 205 C3.57589844 204.55269531 3.15179688 204.10539062 2.71484375 203.64453125 C-1.24640128 199.56140176 -5.04781225 195.8429226 -10 193 C-13.34126222 193.66825244 -14.60490966 194.60490966 -17 197 C-16.86926356 202.4294074 -14.70657931 205.01656308 -11.0625 208.875 C-9.71865234 210.32519531 -9.71865234 210.32519531 -8.34765625 211.8046875 C-6.29222551 214.22767025 -6.29222551 214.22767025 -4 214 C-3.67 214.99 -3.34 215.98 -3 217 C0.76861809 220.22629358 0.76861809 220.22629358 5.47338867 220.79248047 C8.21806685 219.93160257 9.57436307 219.00916006 11.67578125 217.0703125 C12.36236816 216.43899414 13.04895508 215.80767578 13.75634766 215.15722656 C17.95685892 211.11851954 22.08708932 207.01516112 26.1875 202.875 C27.06341797 201.99457031 27.93933594 201.11414063 28.84179688 200.20703125 C30.51180735 198.52815794 32.18073917 196.84821071 33.84838867 195.16699219 C35.56080822 193.44233135 37.27785144 191.72273702 39 190.0078125 C42.780193 186.31639232 42.780193 186.31639232 44.375 181.4375 C44.17034039 178.98686526 44.17034039 178.98686526 42.8125 177.1875 C37.55194659 173.74093053 33.99792828 177.23262741 30.1875 181 Z M92.39941406 193.05419922 C88.15512522 193.10712156 83.91149663 193.17993327 79.66772461 193.26446533 C77.9860023 193.29623479 76.30418717 193.32344978 74.62231445 193.34588623 C72.27110928 193.37910697 69.92104615 193.43128731 67.5703125 193.48828125 C66.86427887 193.49468124 66.15824524 193.50108124 65.43081665 193.50767517 C61.39272039 193.62915631 58.8471264 194.02451588 56 197 C55.51104072 199.79405302 55.58907823 201.2808869 57 203.75 C62.57285808 207.2330363 71.35307166 206.14572221 77.72265625 206.1328125 C79.28083069 206.13506332 79.28083069 206.13506332 80.8704834 206.13735962 C84.26786119 206.1397176 87.66513271 206.13344532 91.0625 206.125 C92.80320267 206.12167664 92.80320267 206.12167664 94.57907104 206.11828613 C103.05286642 206.09939622 111.52636166 206.05342449 120 206 C121.16901855 205.9937561 122.33803711 205.98751221 123.54248047 205.9810791 C130.1859614 205.94450221 136.82849117 205.88540648 143.47140503 205.79046631 C145.52579303 205.76357179 147.5802776 205.74322648 149.63479614 205.72955322 C152.48764599 205.70851962 155.33899625 205.66240082 158.19140625 205.609375 C159.03062622 205.60813629 159.86984619 205.60689758 160.73449707 205.60562134 C164.38239162 205.51243842 166.57461588 205.31159925 169.55834961 203.12597656 C171.2661845 201.06512104 171.2661845 201.06512104 170.875 198.375 C170.13532087 195.85594875 170.13532087 195.85594875 168 194 C164.9315384 193.75201666 161.94796221 193.625792 158.875 193.5859375 C157.94973511 193.56648071 157.02447021 193.54702393 156.07116699 193.52697754 C153.04753904 193.4662753 150.02389796 193.42009822 147 193.375 C144.91470495 193.33788191 142.8294184 193.30028298 140.74414062 193.26220703 C134.82961399 193.15851349 128.91494626 193.07549106 123 193 C122.28457031 192.99033203 121.56914062 192.98066406 120.83203125 192.97070312 C111.35093626 192.8446763 101.87993702 192.94273477 92.39941406 193.05419922 Z " fill="#E3DED4" transform="translate(159,120)"/>
<path d="M0 0 C14.30063186 9.56208668 22.56000448 22.2680527 26.62890625 38.7578125 C27.15313331 41.45959812 27.40954678 43.9938832 27.62890625 46.7578125 C27.68175781 47.41910156 27.73460937 48.08039063 27.7890625 48.76171875 C28.52880478 66.22606908 20.9963081 80.33900015 10.80029297 93.74414062 C5.16502414 101.20210171 1.02344774 108.55878625 -1.99609375 117.4453125 C-2.44984375 118.5384375 -2.90359375 119.6315625 -3.37109375 120.7578125 C-8.6444694 122.76191917 -14.9940643 122.10206986 -20.37109375 120.7578125 C-23.62686054 109.12335338 -20.97749959 97.44693704 -15.26074219 87.20629883 C-12.39255201 82.04500244 -10.70025233 77.69640868 -11.37109375 71.7578125 C-13.36072898 65.01515978 -17.51651949 60.53495718 -23.37109375 56.7578125 C-28.63536561 55.15711313 -34.40538526 54.65787902 -39.625 56.59375 C-44.74396629 59.48834574 -48.2712418 63.23738724 -50.37109375 68.7578125 C-52.18509902 76.12340437 -49.81210492 81.1304488 -46.37109375 87.4453125 C-40.65244795 98.026836 -41.60266815 109.05557733 -42.37109375 120.7578125 C-54.60013145 122.93845403 -54.60013145 122.93845403 -59.37109375 119.7578125 C-60.29296875 117.54296875 -60.29296875 117.54296875 -61.12109375 114.8203125 C-64.92878622 103.75781204 -72.52064884 94.01934033 -79.8125 84.96875 C-88.41491724 74.02021896 -91.66373023 58.41826715 -90.37109375 44.7578125 C-87.78240261 29.15474259 -81.49166039 15.37206595 -69.37109375 4.7578125 C-68.71109375 4.7578125 -68.05109375 4.7578125 -67.37109375 4.7578125 C-67.37109375 4.0978125 -67.37109375 3.4378125 -67.37109375 2.7578125 C-47.74494074 -12.1427375 -20.83582963 -12.07082998 0 0 Z " fill="#ECE8E2" transform="translate(405.37109375,117.2421875)"/>
<path d="M0 0 C5.33750716 4.00521208 8.28060214 7.84030156 11.23046875 13.79296875 C11.6793042 14.69684326 12.12813965 15.60071777 12.59057617 16.53198242 C12.93193604 17.22267822 13.2732959 17.91337402 13.625 18.625 C14.35614014 18.62910889 15.08728027 18.63321777 15.84057617 18.63745117 C19.16536307 18.67042209 22.48832616 18.74107147 25.8125 18.8125 C26.96298828 18.81830078 28.11347656 18.82410156 29.29882812 18.83007812 C30.96655273 18.87358398 30.96655273 18.87358398 32.66796875 18.91796875 C34.19973755 18.94153442 34.19973755 18.94153442 35.76245117 18.96557617 C39.72970403 19.87948235 41.20352548 21.38536391 43.625 24.625 C44.25610352 27.95898438 44.25610352 27.95898438 44.25390625 31.71875 C44.25631821 32.38789429 44.25873016 33.05703857 44.26121521 33.74645996 C44.26023979 35.15508985 44.24691848 36.56375951 44.22192383 37.97216797 C44.18758798 40.11949807 44.20127926 42.26271249 44.22070312 44.41015625 C44.21380411 45.78387155 44.20413119 47.15757631 44.19140625 48.53125 C44.18052979 49.77197266 44.16965332 51.01269531 44.15844727 52.29101562 C43.53067552 56.21451719 42.4728623 57.89087477 39.625 60.625 C36.43592822 61.32239786 33.86065592 61.56296422 30.625 61.625 C29.46323242 61.65110352 28.30146484 61.67720703 27.10449219 61.70410156 C22.56951216 61.77671405 18.03540617 61.76494323 13.5 61.75 C12.6414743 61.74811676 11.78294861 61.74623352 10.89840698 61.74429321 C4.7461347 61.72895539 -1.40590426 61.69353631 -7.55804443 61.65106201 C-10.2615339 61.6326027 -12.96501543 61.61515342 -15.66851807 61.59893799 C-24.44471609 61.54552358 -33.22061979 61.47795501 -41.99650574 61.38607025 C-46.06318462 61.34352283 -50.12977585 61.30555798 -54.19659424 61.27911377 C-58.07732182 61.25338934 -61.957637 61.21309826 -65.83810997 61.16193962 C-67.28800187 61.14523627 -68.7379623 61.13363795 -70.18793678 61.12735176 C-72.18652097 61.11778729 -74.18497862 61.08809099 -76.18334961 61.05737305 C-77.31131454 61.04626999 -78.43927948 61.03516693 -79.60142517 61.02372742 C-82.375 60.625 -82.375 60.625 -84.23573303 59.31036377 C-86.14331236 56.48840441 -85.84282322 53.32820198 -85.84375 50.03515625 C-85.85136353 49.29422226 -85.85897705 48.55328827 -85.86682129 47.78990173 C-85.87761853 46.22398241 -85.88047688 44.6579911 -85.87597656 43.09204102 C-85.87500459 40.6988076 -85.91661326 38.30878558 -85.9609375 35.91601562 C-85.96614506 34.39323584 -85.96883268 32.87044493 -85.96875 31.34765625 C-85.98514526 30.63400406 -86.00154053 29.92035187 -86.01843262 29.18507385 C-85.96818848 25.5635537 -85.63492711 23.91667882 -83.1965332 21.18041992 C-80.07522937 19.45974616 -78.17825281 19.09137974 -74.63671875 19.015625 C-73.03666992 18.96728516 -73.03666992 18.96728516 -71.40429688 18.91796875 C-70.30150391 18.90378906 -69.19871094 18.88960937 -68.0625 18.875 C-66.94037109 18.84535156 -65.81824219 18.81570312 -64.66210938 18.78515625 C-61.89966793 18.71462583 -59.13806226 18.66184507 -56.375 18.625 C-56.02308594 17.82835938 -55.67117187 17.03171875 -55.30859375 16.2109375 C-49.75789739 4.29795472 -43.35783183 -0.18638312 -31.375 -5.375 C-20.62801958 -8.85994317 -9.10613888 -6.11069846 0 0 Z M-27.375 18.625 C-29.97573089 21.65918604 -30.3830987 23.16337419 -30.3125 27.1875 C-29.27507665 30.99138562 -28.66073474 32.46333241 -25.375 34.625 C-21.00401047 35.34025283 -19.11876653 35.13139423 -15.4375 32.625 C-12.59596989 28.49186529 -12.74630685 26.57595859 -13.375 21.625 C-14.32673938 19.10459573 -14.32673938 19.10459573 -16.375 17.625 C-20.64361434 16.32585651 -23.5125985 16.32843694 -27.375 18.625 Z " fill="#EFEAE4" transform="translate(255.375,82.375)"/>
<path d="M0 0 C3.04880023 1.56000182 4.99077011 3.26726043 7.02734375 6.00390625 C9.27037624 13.43395136 7.04846773 18.75073798 3.52734375 25.44140625 C2.89828125 26.57835937 2.26921875 27.7153125 1.62109375 28.88671875 C-1.36534336 35.3134143 -1.21150681 42.27687327 -1.53515625 49.25390625 C-1.57833984 50.12853516 -1.62152344 51.00316406 -1.66601562 51.90429688 C-1.77112526 54.0415262 -1.8722961 56.17894863 -1.97265625 58.31640625 C-4.305604 58.35882348 -6.63968192 58.35733562 -8.97265625 58.31640625 C-11.34022243 55.94884007 -10.38296192 49.11284898 -10.49023438 45.72460938 C-10.88119627 36.26038087 -13.42159038 28.96965909 -17.6328125 20.46484375 C-19.65701958 15.70825218 -20.40912995 12.64879964 -18.78515625 7.69140625 C-14.72818262 0.13704156 -8.39907658 -2.91057109 0 0 Z " fill="#E2DFDC" transform="translate(379.97265625,179.68359375)"/>
<path d="M0 0 C0.85778549 -0.00016617 1.71557098 -0.00033234 2.59934998 -0.00050354 C3.57368484 -0.00988449 4.54801971 -0.01926544 5.55187988 -0.02893066 C6.6019371 -0.01769669 7.65199432 -0.00646271 8.73387146 0.00511169 C10.35179848 0.00292885 10.35179848 0.00292885 12.00241089 0.0007019 C14.28296103 0.00236239 16.5635222 0.01394026 18.84397888 0.03465271 C22.34486694 0.06362188 25.84424316 0.05526139 29.34519958 0.04222107 C31.55809761 0.04845769 33.77099083 0.05684802 35.98387146 0.06761169 C37.03595291 0.06467606 38.08803436 0.06174042 39.17199707 0.05871582 C40.14317978 0.07139999 41.11436249 0.08408417 42.11497498 0.09715271 C43.40045982 0.10525719 43.40045982 0.10525719 44.71191406 0.11352539 C45.39849594 0.24145981 46.08507782 0.36939423 46.79246521 0.50120544 C48.93799898 3.7195061 49.08830389 4.76907051 49.10496521 8.50120544 C49.12172302 9.36745544 49.13848083 10.23370544 49.15574646 11.12620544 C48.71228625 14.02538617 48.07758157 14.71792414 45.79246521 16.50120544 C43.67431641 16.8888855 43.67431641 16.8888855 41.20091248 16.90525818 C40.27307449 16.91794235 39.34523651 16.93062653 38.38928223 16.94369507 C36.8892289 16.93929161 36.8892289 16.93929161 35.35887146 16.93479919 C33.8146476 16.94266197 33.8146476 16.94266197 32.23922729 16.95068359 C30.06126304 16.95710918 27.88326411 16.95575989 25.70530701 16.94725037 C22.37110096 16.9387466 19.03861101 16.96748552 15.70457458 16.99925232 C13.58934072 17.00086453 11.47410383 17.00028642 9.35887146 16.99729919 C8.36086014 17.00853317 7.36284882 17.01976715 6.33459473 17.03134155 C-0.57220409 16.96174646 -0.57220409 16.96174646 -3.83692932 14.59519958 C-5.32365631 12.32379642 -5.72382531 11.19058839 -5.64503479 8.50120544 C-5.64374573 7.84120544 -5.64245667 7.18120544 -5.64112854 6.50120544 C-4.90250194 3.09420706 -3.49521071 0.79356332 0 0 Z " fill="#334D63" transform="translate(352.20753479003906,247.49879455566406)"/>
<path d="M0 0 C0.87430664 -0.00315216 1.74861328 -0.00630432 2.64941406 -0.009552 C3.59526367 -0.00752777 4.54111328 -0.00550354 5.515625 -0.00341797 C6.48467773 -0.00437469 7.45373047 -0.00533142 8.45214844 -0.00631714 C10.50325587 -0.00699836 12.55436545 -0.00514808 14.60546875 -0.00097656 C17.75265323 0.00437248 20.89969498 -0.00092351 24.046875 -0.00732422 C26.03645865 -0.00666343 28.02604221 -0.00538224 30.015625 -0.00341797 C30.96147461 -0.0054422 31.90732422 -0.00746643 32.88183594 -0.009552 C33.75614258 -0.00639984 34.63044922 -0.00324768 35.53125 0 C36.68802246 0.00119339 36.68802246 0.00119339 37.86816406 0.00241089 C39.765625 0.12939453 39.765625 0.12939453 41.765625 1.12939453 C41.47717406 7.04263883 38.97661619 10.25678656 34.765625 14.12939453 C27.25051547 19.50658497 19.78071706 19.88583329 10.765625 19.12939453 C3.75116507 17.30487867 -2.19019164 14.4000879 -6.109375 8.12939453 C-7.234375 5.12939453 -7.234375 5.12939453 -7.046875 2.81689453 C-5.52856417 -0.33652028 -3.15407649 0.00325392 0 0 Z " fill="#334F65" transform="translate(357.234375,269.87060546875)"/>
<path d="M0 0 C2.47493523 1.84591102 4.24639136 4.12918408 6.125 6.5625 C6.62386719 7.17158203 7.12273437 7.78066406 7.63671875 8.40820312 C9.12717829 10.24695543 10.56917604 12.11457217 12 14 C12.48315674 14.62463135 12.96631348 15.2492627 13.46411133 15.89282227 C16.65527359 20.14638388 17.73615615 22.63657662 17 28 C14.35491041 30.64508959 12.70028236 30.78233633 9 31 C4.17057204 28.81793288 1.5459985 25.30485932 -1.5625 21.1875 C-2.03107422 20.58357422 -2.49964844 19.97964844 -2.98242188 19.35742188 C-11.02122329 8.91260157 -11.02122329 8.91260157 -10.9375 5.3125 C-8.67214634 -0.27537235 -5.92246712 -0.76181112 0 0 Z " fill="#EEE8E6" transform="translate(326,73)"/>
<path d="M0 0 C3.375 0.9375 3.375 0.9375 5.375 3.9375 C5.78282507 8.06338745 5.74660742 12.18967605 5.74560547 16.33422852 C5.74997836 18.36494854 5.78630537 20.39349267 5.82421875 22.42382812 C5.82808594 23.70580078 5.83195312 24.98777344 5.8359375 26.30859375 C5.84415527 27.48349365 5.85237305 28.65839355 5.86083984 29.86889648 C5.27702511 33.55631726 4.33579554 34.72910351 1.375 36.9375 C-1.71554574 37.37900653 -3.63749842 37.59782346 -6.28149414 35.82983398 C-8.28854357 33.00289592 -8.03103854 30.65885892 -8.05859375 27.22265625 C-8.0638356 26.57050644 -8.06907745 25.91835663 -8.07447815 25.2464447 C-8.08089347 23.86881939 -8.07956757 22.49113927 -8.07104492 21.11352539 C-8.06254137 19.01023299 -8.09128361 16.90966417 -8.12304688 14.80664062 C-8.12465929 13.46614664 -8.12408059 12.12564787 -8.12109375 10.78515625 C-8.12294678 9.56836182 -8.1247998 8.35156738 -8.12670898 7.09790039 C-7.625 3.9375 -7.625 3.9375 -5.82055664 1.50561523 C-3.625 -0.0625 -3.625 -0.0625 0 0 Z " fill="#D4D1CF" transform="translate(375.625,56.0625)"/>
<path d="M0 0 C3 2 3 2 3.90234375 4.765625 C4.02687043 8.88994863 2.94440272 10.41803779 0.5625 13.75 C-0.54351562 15.29880859 -0.54351562 15.29880859 -1.671875 16.87890625 C-2.44015625 17.90886719 -3.2084375 18.93882813 -4 20 C-4.70640625 20.97839844 -5.4128125 21.95679687 -6.140625 22.96484375 C-11.24918994 29.76001505 -11.24918994 29.76001505 -14.56640625 30.8203125 C-17.57824169 31.04269521 -19.34578039 30.40083813 -22 29 C-23.50446773 25.99106453 -23.44794977 24.38068071 -23 21 C-21.18695007 17.71690958 -18.95978793 14.78989747 -16.6875 11.8125 C-15.79514648 10.60303711 -15.79514648 10.60303711 -14.88476562 9.36914062 C-7.42139892 -0.6626249 -7.42139892 -0.6626249 0 0 Z " fill="#D6D3D0" transform="translate(430,73)"/>
<path d="M0 0 C13.50810032 -0.02314064 27.01619594 -0.04092391 40.52431202 -0.05181217 C46.79624442 -0.05703721 53.06816328 -0.06412804 59.34008789 -0.07543945 C65.38953981 -0.08628172 71.43897868 -0.0922797 77.48843956 -0.09487724 C79.79977308 -0.09672906 82.11110586 -0.10034505 84.42243385 -0.10573006 C87.65248804 -0.11295821 90.8824879 -0.11399018 94.11254883 -0.11352539 C95.07423981 -0.11712067 96.03593079 -0.12071594 97.02676392 -0.12442017 C97.90595993 -0.1230455 98.78515594 -0.12167084 99.69099426 -0.12025452 C100.45516065 -0.12117631 101.21932703 -0.1220981 102.00664997 -0.12304783 C104 0 104 0 107 1 C107 1.66 107 2.32 107 3 C106.19488983 2.99777939 105.38977966 2.99555878 104.56027222 2.99327087 C94.33185655 2.96636652 84.10344504 2.94822381 73.875 2.9375 C72.65886583 2.93621597 72.65886583 2.93621597 71.4181633 2.93490601 C46.93216126 2.91204621 22.47106101 3.04878332 -2 4 C-1.34 2.68 -0.68 1.36 0 0 Z " fill="#9F9895" transform="translate(220,311)"/>
<path d="M0 0 C1.32451172 0.17982422 1.32451172 0.17982422 2.67578125 0.36328125 C3.33964844 0.47027344 4.00351562 0.57726562 4.6875 0.6875 C5.0175 1.6775 5.3475 2.6675 5.6875 3.6875 C4.38409096 5.80178563 3.05547932 7.71509723 1.5625 9.6875 C-4.0311629 17.40655971 -8.03964425 25.38945374 -10.3125 34.6875 C-10.6425 34.6875 -10.9725 34.6875 -11.3125 34.6875 C-11.3125 32.3775 -11.3125 30.0675 -11.3125 27.6875 C-11.9725 27.6875 -12.6325 27.6875 -13.3125 27.6875 C-13.3125 28.3475 -13.3125 29.0075 -13.3125 29.6875 C-14.9625 30.3475 -16.6125 31.0075 -18.3125 31.6875 C-17.89097656 31.00042969 -17.46945312 30.31335938 -17.03515625 29.60546875 C-16.48730469 28.70441406 -15.93945312 27.80335938 -15.375 26.875 C-14.82972656 25.98167969 -14.28445313 25.08835938 -13.72265625 24.16796875 C-10.85622273 19.12590424 -11.06862431 14.12936085 -11.05859375 8.4921875 C-10.984375 6.375 -10.984375 6.375 -10.3125 2.6875 C-6.94373853 -0.38419256 -4.40722057 -0.64639235 0 0 Z " fill="#364B5F" transform="translate(318.3125,119.3125)"/>
<path d="M0 0 C1.02999367 -0.0076664 1.02999367 -0.0076664 2.08079529 -0.01548767 C4.3449684 -0.02935979 6.60883638 -0.02842898 8.87304688 -0.02612305 C10.44958611 -0.03001082 12.0261243 -0.03434566 13.60266113 -0.03910828 C16.90457559 -0.046565 20.2063831 -0.04628286 23.50830078 -0.04101562 C27.73862656 -0.03521662 31.96851514 -0.05216474 36.19876862 -0.0753603 C39.45357826 -0.09009342 42.70828243 -0.09097002 45.96311951 -0.08785057 C47.52283088 -0.08836383 49.08254816 -0.09360249 50.64222717 -0.10366249 C52.82297188 -0.11600411 55.00286265 -0.10925018 57.18359375 -0.09765625 C58.42395386 -0.09828568 59.66431396 -0.0989151 60.94226074 -0.0995636 C64.31948304 0.30171143 65.71661611 0.88456353 68.09179688 3.2746582 C68.62304688 5.4309082 68.62304688 5.4309082 68.59179688 7.7746582 C68.60726562 8.93481445 68.60726562 8.93481445 68.62304688 10.1184082 C68.09179688 12.2746582 68.09179688 12.2746582 66.4541626 13.89387512 C63.36879387 15.69724743 61.32589697 15.60059344 57.76269531 15.5234375 C56.48166931 15.50319016 55.20064331 15.48294281 53.88079834 15.46208191 C52.48758067 15.4246749 51.09437199 15.38693205 49.70117188 15.34887695 C48.27201861 15.32083212 46.84283815 15.29414295 45.41363525 15.26875305 C41.65843246 15.19840453 37.9038816 15.10967068 34.14916992 15.01708984 C30.31516528 14.92581368 26.48082949 14.85194748 22.64648438 14.77661133 C15.12782319 14.62632191 7.60976563 14.45660615 0.09179688 14.2746582 C0.09179688 13.9446582 0.09179688 13.6146582 0.09179688 13.2746582 C0.88915253 13.26435074 1.68650818 13.25404327 2.50802612 13.24342346 C10.01271208 13.14555253 17.51731361 13.04305307 25.02186394 12.93531895 C28.88026933 12.88009254 32.73868231 12.82667301 36.59716797 12.77734375 C40.31897809 12.729696 44.04069496 12.67735306 47.76239395 12.62171745 C49.18417166 12.60129575 50.60597494 12.58258235 52.0277977 12.56558418 C54.01517319 12.5415364 56.00246592 12.51091822 57.98974609 12.47998047 C59.122258 12.46443619 60.2547699 12.44889191 61.42160034 12.43287659 C64.0650748 12.45198818 64.0650748 12.45198818 66.09179688 11.2746582 C66.34201257 8.35831691 66.34201257 8.35831691 66.09179688 5.2746582 C62.4487129 2.84593555 60.72846144 3.02150674 56.38891602 3.01586914 C55.37377174 3.01061218 55.37377174 3.01061218 54.33811951 3.00524902 C52.10095969 2.99644667 49.86411617 3.00227608 47.62695312 3.0090332 C46.07140543 3.00768596 44.51585814 3.00574494 42.96031189 3.00323486 C39.69949333 3.0002855 36.43878434 3.00457458 33.17797852 3.01391602 C29.00039206 3.02530102 24.82306286 3.01875602 20.64548588 3.00677109 C17.43271451 2.99953931 14.22000397 3.00184663 11.00723076 3.00702667 C9.4670655 3.00836001 7.9268947 3.00672649 6.38673592 3.00206757 C4.23236623 2.99698168 2.07841113 3.00474164 -0.07592773 3.01586914 C-1.30153915 3.01746033 -2.52715057 3.01905151 -3.78990173 3.02069092 C-6.74879143 3.26167506 -8.42097817 3.71901766 -10.90820312 5.2746582 C-10.90820312 4.2846582 -10.90820312 3.2946582 -10.90820312 2.2746582 C-7.28220038 0.00219709 -4.22404657 0.01569047 0 0 Z " fill="#949398" transform="translate(225.908203125,191.725341796875)"/>
<path d="M0 0 C0.99 0.33 1.98 0.66 3 1 C4.66217053 1.08992298 6.32775507 1.12196531 7.99235535 1.12025452 C9.02300613 1.12162918 10.05365692 1.12300385 11.11553955 1.12442017 C12.24554382 1.12082489 13.3755481 1.11722961 14.53979492 1.11352539 C15.73016861 1.11367142 16.9205423 1.11381744 18.14698792 1.1139679 C21.41118607 1.11339022 24.67534147 1.10837168 27.93953109 1.10139394 C31.35082422 1.09514664 34.76211817 1.09455551 38.17341614 1.09336853 C44.63319678 1.09025928 51.09296052 1.08205136 57.55273372 1.07201904 C64.90695364 1.06084531 72.26117437 1.05534427 79.61540067 1.05032361 C94.74360987 1.03986842 109.87180325 1.02227682 125 1 C124.67 1.66 124.34 2.32 124 3 C115.401418 4.51965991 106.57973022 4.15368339 97.875 4.125 C97.01680664 4.12311676 96.15861328 4.12123352 95.27441406 4.11929321 C89.12288444 4.10395049 82.97158805 4.06851716 76.82019043 4.02606201 C74.11324229 4.00759473 71.40630221 3.99014514 68.69934082 3.97393799 C59.90825215 3.92053521 51.11745778 3.85299847 42.32668114 3.76107025 C38.25212674 3.71849484 34.17766041 3.68053573 30.10296631 3.65411377 C26.21575889 3.62841762 22.32896515 3.5881491 18.44201279 3.53693962 C16.9885034 3.52021583 15.5349252 3.50863017 14.08133316 3.50235176 C12.08015057 3.49280932 10.07909398 3.46312912 8.078125 3.43237305 C6.94793945 3.42126999 5.81775391 3.41016693 4.65332031 3.39872742 C3.77772461 3.26714737 2.90212891 3.13556732 2 3 C1.34 2.01 0.68 1.02 0 0 Z " fill="#9D999D" transform="translate(171,140)"/>
<path d="M0 0 C0.66 0 1.32 0 2 0 C2 0.99 2 1.98 2 3 C2.66 3.33 3.32 3.66 4 4 C4.66 2.68 5.32 1.36 6 0 C6.66 1.98 7.32 3.96 8 6 C7.01 6.99 6.02 7.98 5 9 C5.66 9 6.32 9 7 9 C7 8.34 7 7.68 7 7 C7.66 7 8.32 7 9 7 C9.33 6.34 9.66 5.68 10 5 C14.0042343 8.49087093 15.62671065 10.64951939 16 16 C16.99 16.33 17.98 16.66 19 17 C19 18.65 19 20.3 19 22 C14.91931839 23.16590903 12.75885425 22.97339848 9 21 C5.69909664 18.69704417 3.36469513 16.84595901 2 13 C2 12.01 2 11.02 2 10 C1.34 9.67 0.68 9.34 0 9 C-0.73075648 6.6859378 -1.40138258 4.35171131 -2 2 C-1.34 2 -0.68 2 0 2 C0 1.34 0 0.68 0 0 Z " fill="#F0EBE5" transform="translate(322,78)"/>
<path d="M0 0 C33.66 0 67.32 0 102 0 C99.45383732 2.54616268 97.54859699 2.91646 94.00854111 3.10743046 C92.95216635 3.09498625 92.95216635 3.09498625 91.87445068 3.08229065 C90.65456451 3.07173141 90.65456451 3.07173141 89.41003418 3.06095886 C88.52674438 3.04801285 87.64345459 3.03506683 86.73339844 3.02172852 C85.79647156 3.01212097 84.85954468 3.00251343 83.89422607 2.99261475 C80.79919868 2.95964953 77.70431352 2.91930761 74.609375 2.87890625 C72.4627533 2.85460272 70.31612635 2.83075928 68.16949463 2.80735779 C62.52073174 2.74454007 56.87206193 2.67546677 51.22338867 2.60510254 C45.45886472 2.53439828 39.69427479 2.46959382 33.9296875 2.40429688 C22.61971917 2.27531431 11.30984037 2.13972483 0 2 C0 1.34 0 0.68 0 0 Z " fill="#F2E6D8" transform="translate(225,327)"/>
<path d="M0 0 C0.99 1.051875 0.99 1.051875 2 2.125 C4.85424732 5.0038529 8.03225966 7.31997445 11.328125 9.66796875 C13 11 13 11 14 13 C14.10114178 14.8271078 14.13838383 16.65790083 14.14526367 18.48779297 C14.15164352 19.63593475 14.15802338 20.78407654 14.16459656 21.9670105 C14.16570938 23.21281891 14.1668222 24.45862732 14.16796875 25.7421875 C14.17129715 27.01724152 14.17462555 28.29229553 14.17805481 29.60598755 C14.18312598 32.30783569 14.18589468 35.00958329 14.18530273 37.71142578 C14.1852012 41.17047397 14.19884378 44.62931649 14.21607494 48.08831596 C14.22988201 51.3895988 14.22928412 54.6908797 14.23046875 57.9921875 C14.23765427 59.23394745 14.24483978 60.4757074 14.25224304 61.75509644 C14.24916641 62.90954254 14.24608978 64.06398865 14.24291992 65.25341797 C14.24434494 66.26886688 14.24576996 67.2843158 14.24723816 68.33053589 C14 71 14 71 12 75 C12 54.54 12 34.08 12 13 C11.01 12.67 10.02 12.34 9 12 C8.67 11.34 8.34 10.68 8 10 C6.35 10.33 4.7 10.66 3 11 C3 10.01 3 9.02 3 8 C2.3507041 6.65812182 1.68268138 5.32520503 1 4 C0.63215869 2.6757713 0.28797019 1.34386088 0 0 Z " fill="#959294" transform="translate(343,284)"/>
<path d="M0 0 C0.99 1.32 1.98 2.64 3 4 C3.33 4.33 3.66 4.66 4 5 C4.66 4.01 5.32 3.02 6 2 C6 9.59 6 17.18 6 25 C4.02 25 2.04 25 0 25 C0 16.75 0 8.5 0 0 Z " fill="#EEE7E5" transform="translate(371,212)"/>
<path d="M0 0 C1.4540625 0.0309375 1.4540625 0.0309375 2.9375 0.0625 C2.6075 1.3825 2.2775 2.7025 1.9375 4.0625 C1.2775 4.0625 0.6175 4.0625 -0.0625 4.0625 C-0.3925 6.0425 -0.7225 8.0225 -1.0625 10.0625 C0.2575 9.7325 1.5775 9.4025 2.9375 9.0625 C1.73368552 11.55611571 0.48321278 13.74393083 -1.0625 16.0625 C-2.0525 16.0625 -3.0425 16.0625 -4.0625 16.0625 C-4.3925 17.0525 -4.7225 18.0425 -5.0625 19.0625 C-5.7225 17.0825 -6.3825 15.1025 -7.0625 13.0625 C-8.3825 13.0625 -9.7025 13.0625 -11.0625 13.0625 C-10.25 10.625 -10.25 10.625 -9.0625 8.0625 C-8.0725 7.7325 -7.0825 7.4025 -6.0625 7.0625 C-4.90414327 4.08746878 -4.90414327 4.08746878 -4.0625 1.0625 C-3.0625 0.0625 -3.0625 0.0625 0 0 Z " fill="#F2EDE8" transform="translate(426.0625,74.9375)"/>
<path d="M0 0 C3.1875 1.4375 3.1875 1.4375 5 4 C6.27274876 8.34518047 6.5362147 11.73989545 4.75 15.9375 C2.64854149 18.41421896 1.05259553 19.90910229 -2.26171875 20.1953125 C-3.06222656 20.17210938 -3.86273438 20.14890625 -4.6875 20.125 C-5.49574219 20.10695313 -6.30398437 20.08890625 -7.13671875 20.0703125 C-7.75160156 20.04710938 -8.36648437 20.02390625 -9 20 C-9.33 19.01 -9.66 18.02 -10 17 C-12.01508358 16.26676204 -12.01508358 16.26676204 -14 16 C-14.7455819 10.83827917 -15.40764427 6.11870643 -14 1 C-9.81136251 -1.09431875 -4.56255501 -0.41367165 0 0 Z M-10 3 C-12.60073089 6.03418604 -13.0080987 7.53837419 -12.9375 11.5625 C-11.90007665 15.36638562 -11.28573474 16.83833241 -8 19 C-3.62901047 19.71525283 -1.74376653 19.50639423 1.9375 17 C4.77903011 12.86686529 4.62869315 10.95095859 4 6 C3.04826062 3.47959573 3.04826062 3.47959573 1 2 C-3.26861434 0.70085651 -6.1375985 0.70343694 -10 3 Z " fill="#9E99A2" transform="translate(238,98)"/>
<path d="M0 0 C10.6112311 9.98704104 10.6112311 9.98704104 11.5 16.875 C11 20 11 20 9 22 C5.58345389 22.98700221 3.70296458 23.28453328 0.375 21.9375 C-2.45738732 19.62686824 -4.12774034 17.12043277 -6 14 C-3.53199953 15.15173355 -1.95216435 16.04783565 0 18 C2.20250992 18.46006346 2.20250992 18.46006346 4.625 18.625 C5.44226563 18.69976562 6.25953125 18.77453125 7.1015625 18.8515625 C7.72804688 18.90054688 8.35453125 18.94953125 9 19 C8.65555119 16.52733235 8.65555119 16.52733235 8 14 C7.34 13.67 6.68 13.34 6 13 C5.525625 11.88625 5.05125 10.7725 4.5625 9.625 C3.18559247 6.43057453 2.38141246 5.26801187 0 3 C0 2.01 0 1.02 0 0 Z " fill="#8E8D99" transform="translate(332,81)"/>
<path d="M0 0 C0.66 0.33 1.32 0.66 2 1 C3.97034488 1.12016672 5.94464936 1.17735333 7.91845703 1.20532227 C9.78016037 1.2352401 9.78016037 1.2352401 11.67947388 1.26576233 C13.0389188 1.2827466 14.39836505 1.29962541 15.7578125 1.31640625 C17.14501567 1.33697581 18.53221257 1.35797228 19.91940308 1.37937927 C23.57227505 1.43459981 27.22520359 1.48400911 30.87817383 1.53222656 C34.60503174 1.58244175 38.33180741 1.63812771 42.05859375 1.69335938 C49.37232621 1.80094071 56.68612701 1.90238568 64 2 C64 2.33 64 2.66 64 3 C55.84552945 3.15471103 47.6909761 3.30287675 39.53624249 3.4429636 C35.74862397 3.50822936 31.96107061 3.57564756 28.17358398 3.64819336 C24.51023431 3.71827874 20.84682214 3.78243784 17.18329811 3.84269524 C15.79401778 3.86654794 14.40477078 3.89244314 13.01556969 3.92053413 C4.9334172 4.08244495 -2.96747463 3.95470547 -11 3 C-11 2.67 -11 2.34 -11 2 C-10.06027344 1.90912109 -10.06027344 1.90912109 -9.1015625 1.81640625 C-7.87566406 1.69072266 -7.87566406 1.69072266 -6.625 1.5625 C-5.81289062 1.48128906 -5.00078125 1.40007812 -4.1640625 1.31640625 C-1.95727195 1.10909886 -1.95727195 1.10909886 0 0 Z " fill="#F6F0EE" transform="translate(213,138)"/>
<path d="M0 0 C0.66 0 1.32 0 2 0 C1.99476318 0.86165771 1.98952637 1.72331543 1.98413086 2.61108398 C1.96695396 5.8483861 1.95448469 9.08566476 1.94506836 12.32299805 C1.94008043 13.71656057 1.93328769 15.11011798 1.92456055 16.50366211 C1.87841205 24.06930078 1.94441542 31.49454426 3 39 C2.34 39 1.68 39 1 39 C1 37.02 1 35.04 1 33 C0.34 33 -0.32 33 -1 33 C-1.02469081 28.6217488 -1.04285557 24.24353433 -1.05493164 19.86523438 C-1.05996514 18.37531834 -1.06679242 16.88540726 -1.07543945 15.39550781 C-1.08754805 13.25584696 -1.09323807 11.11625132 -1.09765625 8.9765625 C-1.10289307 7.68830566 -1.10812988 6.40004883 -1.11352539 5.07275391 C-1 2 -1 2 0 0 Z " fill="#B6B1B0" transform="translate(305,147)"/>
<path d="M0 0 C0.33 0 0.66 0 1 0 C2.05328757 8.27831801 2.31446804 16.51218804 2.51757812 24.84960938 C2.71139566 30.8725806 3.26975713 36.22084872 5 42 C3.68 41.67 2.36 41.34 1 41 C-0.03954991 32.0964367 -0.11928731 23.26667943 -0.0625 14.3125 C-0.05747028 12.91731933 -0.05291 11.52213689 -0.04882812 10.12695312 C-0.03714751 6.75125563 -0.02076833 3.37565174 0 0 Z " fill="#8E8989" transform="translate(336,238)"/>
<path d="M0 0 C0.33 0.66 0.66 1.32 1 2 C-0.32 5.63 -1.64 9.26 -3 13 C-12.24 13 -21.48 13 -31 13 C-28.39911378 10.39911378 -27.17862887 10.70037775 -23.5546875 10.5859375 C-22.47832031 10.54726562 -21.40195313 10.50859375 -20.29296875 10.46875 C-19.16503906 10.4378125 -18.03710938 10.406875 -16.875 10.375 C-15.73933594 10.33632812 -14.60367188 10.29765625 -13.43359375 10.2578125 C-10.62267013 10.16332767 -7.81135696 10.08056679 -5 10 C-3.35 6.7 -1.7 3.4 0 0 Z " fill="#797C85" transform="translate(204,91)"/>
<path d="M0 0 C2.64 0 5.28 0 8 0 C9.50751963 2.39429588 10.00562203 3.76387491 9.9375 6.625 C9 9 9 9 6.625 10.3125 C4 11 4 11 1 11 C1.33 9.02 1.66 7.04 2 5 C2.66 5 3.32 5 4 5 C4.33 3.68 4.66 2.36 5 1 C3.35 1 1.7 1 0 1 C0 0.67 0 0.34 0 0 Z " fill="#D2CED1" transform="translate(424,74)"/>
<path d="M0 0 C3.11646612 0.18332154 4.52441344 0.72597961 7.1875 2.1875 C7.23689115 6.28088652 7.27321501 10.37415798 7.29736328 14.46777344 C7.30742877 15.86070781 7.32108234 17.25362102 7.33837891 18.64648438 C7.3626022 20.6470436 7.37290814 22.64775615 7.3828125 24.6484375 C7.39328613 25.85290527 7.40375977 27.05737305 7.41455078 28.29833984 C7.1875 31.1875 7.1875 31.1875 5.1875 33.1875 C5.1875 23.9475 5.1875 14.7075 5.1875 5.1875 C3.8675 4.5275 2.5475 3.8675 1.1875 3.1875 C-0.1325 4.1775 -1.4525 5.1675 -2.8125 6.1875 C-3.19468767 4.53135343 -3.52645102 2.86292976 -3.8125 1.1875 C-2.8125 0.1875 -2.8125 0.1875 0 0 Z " fill="#C2C0C3" transform="translate(373.8125,57.8125)"/>
<path d="M0 0 C0.88068649 0.00022659 1.76137299 0.00045319 2.66874695 0.00068665 C3.61570938 0.0161705 4.56267181 0.03165436 5.53833008 0.04760742 C6.51071121 0.05185226 7.48309235 0.05609711 8.48493958 0.06047058 C11.59286099 0.07727302 14.70013567 0.11492838 17.80786133 0.15307617 C19.91397176 0.16812097 22.02009235 0.18180973 24.1262207 0.1940918 C29.29118371 0.22718173 34.45566284 0.27897508 39.62036133 0.34057617 C39.62036133 0.67057617 39.62036133 1.00057617 39.62036133 1.34057617 C38.38882324 1.36563232 37.15728516 1.39068848 35.88842773 1.41650391 C31.3298864 1.51050229 26.77150014 1.61074132 22.21313477 1.71289062 C20.23823671 1.7562682 18.26330046 1.79794117 16.28833008 1.83789062 C13.45357743 1.8955249 10.61901755 1.95923887 7.78442383 2.02416992 C6.45467026 2.04923866 6.45467026 2.04923866 5.09805298 2.07481384 C0.72110977 2.05142828 0.72110977 2.05142828 -3.37963867 3.34057617 C-4.5158125 6.33594354 -4.35074353 8.31936106 -3.37963867 11.34057617 C-5.47837102 9.60684075 -6.34454797 8.44083533 -7.25463867 5.84057617 C-7.37963867 3.34057617 -7.37963867 3.34057617 -6.16117859 1.70561218 C-3.93259804 -0.00195141 -2.78536137 -0.02394293 0 0 Z " fill="#0F1A4D" transform="translate(357.379638671875,269.659423828125)"/>
<path d="M0 0 C0.66 0.99 1.32 1.98 2 3 C-0.97 3 -3.94 3 -7 3 C-7.74957157 6.47147842 -7.74957157 6.47147842 -8 10 C-7.38769531 10.08378906 -6.77539062 10.16757813 -6.14453125 10.25390625 C-4 11 -4 11 -2.69921875 12.77734375 C-2.36535156 13.49019531 -2.03148437 14.20304687 -1.6875 14.9375 C-1.34074219 15.64777344 -0.99398438 16.35804687 -0.63671875 17.08984375 C-0.42660156 17.72019531 -0.21648437 18.35054687 0 19 C-0.33 19.66 -0.66 20.32 -1 21 C-2.49053106 19.28061972 -3.96703425 17.54907187 -5.4375 15.8125 C-6.26121094 14.84957031 -7.08492188 13.88664062 -7.93359375 12.89453125 C-9.96031115 10.0555944 -10.75241297 8.43674377 -11 5 C-8.96066839 -0.64737983 -5.61560829 -0.40111488 0 0 Z " fill="#69747F" transform="translate(326,73)"/>
<path d="M0 0 C0.33 0.66 0.66 1.32 1 2 C-5.27 2 -11.54 2 -18 2 C-17.67 3.32 -17.34 4.64 -17 6 C-18 7 -18 7 -20.5625 7.0625 C-21.7690625 7.0315625 -21.7690625 7.0315625 -23 7 C-22.67 6.34 -22.34 5.68 -22 5 C-25.45925163 6.2491742 -28.14693203 7.67527795 -31 10 C-29.2442676 5.75698004 -26.89844634 3.90209861 -22.796875 1.953125 C-19.49334036 0.82733945 -16.54415569 0.57913616 -13.0625 0.375 C-11.87785156 0.30023438 -10.69320312 0.22546875 -9.47265625 0.1484375 C-6.3092591 0.01321917 -3.1656994 -0.02899877 0 0 Z " fill="#8B8D91" transform="translate(152,119)"/>
<path d="M0 0 C0.91652344 -0.01224609 1.83304687 -0.02449219 2.77734375 -0.03710938 C8.45549676 -0.04925949 13.30366564 0.57021996 18.75 2.1875 C15.75882123 3.0820502 13.36057281 3.2278905 10.2578125 2.9609375 C9.39389893 2.89712891 8.52998535 2.83332031 7.63989258 2.76757812 C6.72747803 2.69990234 5.81506348 2.63222656 4.875 2.5625 C-3.1853461 2.04503538 -9.90908557 2.44124597 -17.73046875 4.59375 C-20.25 5.1875 -20.25 5.1875 -22.25 4.1875 C-21.00108386 3.70551537 -19.75081192 3.22704323 -18.5 2.75 C-17.80390625 2.48316406 -17.1078125 2.21632813 -16.390625 1.94140625 C-10.88258981 0.00153254 -5.7960669 0.00400835 0 0 Z " fill="#797D82" transform="translate(373.25,108.8125)"/>
<path d="M0 0 C0.37761475 0.485896 0.75522949 0.97179199 1.14428711 1.47241211 C3.69467339 3.57184205 5.4152446 3.39814548 8.69140625 3.44140625 C9.80064453 3.46783203 10.90988281 3.49425781 12.05273438 3.52148438 C13.79006836 3.54178711 13.79006836 3.54178711 15.5625 3.5625 C17.85561421 3.59683948 20.14862494 3.63938852 22.44140625 3.69140625 C23.96809937 3.70989624 23.96809937 3.70989624 25.52563477 3.72875977 C28 4 28 4 30 6 C20.76 6 11.52 6 2 6 C1.34 4.02 0.68 2.04 0 0 Z " fill="#7D7E80" transform="translate(266,98)"/>
<path d="M0 0 C-0.45196245 1.60597325 -0.91182327 3.20972508 -1.375 4.8125 C-1.63023437 5.70582031 -1.88546875 6.59914062 -2.1484375 7.51953125 C-3 10 -3 10 -5 13 C-5 10.69 -5 8.38 -5 6 C-5.66 6 -6.32 6 -7 6 C-7 6.66 -7 7.32 -7 8 C-8.65 8.66 -10.3 9.32 -12 10 C-11.07265428 8.51444617 -10.13275187 7.03672494 -9.1875 5.5625 C-8.66542969 4.73878906 -8.14335937 3.91507813 -7.60546875 3.06640625 C-5.33636737 0.14583538 -3.62288723 0 0 0 Z " fill="#4E5169" transform="translate(312,141)"/>
<path d="M0 0 C0 0.66 0 1.32 0 2 C-1.72526042 2.9765625 -3.45052083 3.953125 -5.17578125 4.9296875 C-9.47768404 7.45371612 -11.14059247 9.35148118 -13 14 C-12.73153611 16.41617501 -12.08220255 17.8355949 -11 20 C-12.65 20.66 -14.3 21.32 -16 22 C-15.505 20.515 -15.505 20.515 -15 19 C-15.20625 18.4225 -15.4125 17.845 -15.625 17.25 C-16.23164013 13.61015921 -15.02355397 10.94057239 -13 8 C-4.33465347 0 -4.33465347 0 0 0 Z " fill="#B6B1B6" transform="translate(219,80)"/>
<path d="M0 0 C2.66666667 1.33333333 5.33333333 2.66666667 8 4 C7.67 5.65 7.34 7.3 7 9 C5.00045254 9.04254356 2.99958364 9.04080783 1 9 C0 8 0 8 -0.09765625 6.15234375 C-0.06510417 4.1015625 -0.03255208 2.05078125 0 0 Z " fill="#F3ECE7" transform="translate(409,93)"/>
<path d="M0 0 C0.99 0.33 1.98 0.66 3 1 C2.319375 1.556875 1.63875 2.11375 0.9375 2.6875 C-1.25421203 4.80060109 -1.25421203 4.80060109 -1 7.375 C0.2323628 10.60995236 1.98109381 13.19958173 4 16 C1.125 15.375 1.125 15.375 -2 14 C-3.25 11.3125 -3.25 11.3125 -4 8 C-4.36813039 6.70635871 -4.74307904 5.41463722 -5.125 4.125 C-5.41375 3.09375 -5.7025 2.0625 -6 1 C-4.7934375 1.0309375 -4.7934375 1.0309375 -3.5625 1.0625 C-1.06645115 1.29633621 -1.06645115 1.29633621 0 0 Z " fill="#A1AAA9" transform="translate(144,253)"/>
<path d="M0 0 C2.475 0.99 2.475 0.99 5 2 C5.3125 5.1875 5.3125 5.1875 5 9 C2.8125 11.625 2.8125 11.625 0 14 C-0.86625 14.86625 -1.7325 15.7325 -2.625 16.625 C-4.41666667 18.41666667 -6.20833333 20.20833333 -8 22 C-8.66 21.67 -9.32 21.34 -10 21 C-8.37660195 19.29115995 -6.70680947 17.62553283 -5 16 C-4.34 16 -3.68 16 -3 16 C-2.731875 15.4225 -2.46375 14.845 -2.1875 14.25 C-1 12 -1 12 0.625 10.0625 C2.34787382 7.47818927 2.39127871 6.05197396 2 3 C1.34 2.01 0.68 1.02 0 0 Z " fill="#92A3AD" transform="translate(200,296)"/>
<path d="M0 0 C0.66 0 1.32 0 2 0 C2.64196658 3.68654077 3.14016999 7.25314833 3 11 C0.6875 13.6875 0.6875 13.6875 -2 15 C-2.66 15 -3.32 15 -4 15 C-5.36161311 15.96113866 -6.69855198 16.95884159 -8 18 C-8.66 17.67 -9.32 17.34 -10 17 C-8.47005208 15.76302083 -6.94010417 14.52604167 -5.41015625 13.2890625 C-3.86733563 12.0333609 -3.86733563 12.0333609 -3 10 C-2.34 10 -1.68 10 -1 10 C-0.67 6.7 -0.34 3.4 0 0 Z " fill="#A5A7A7" transform="translate(202,238)"/>
<path d="M0 0 C1.28639376 4.22011192 0.55460829 6.85437789 -1 11 C-1.680625 11.639375 -2.36125 12.27875 -3.0625 12.9375 C-5.97577205 16.03872508 -5.72107822 18.81617331 -6 23 C-6.33 23 -6.66 23 -7 23 C-8.31150544 13.77782681 -4.6905556 7.63411856 0 0 Z " fill="#C3C7CC" transform="translate(393,199)"/>
<path d="M0 0 C2.64 0 5.28 0 8 0 C8.33 0.99 8.66 1.98 9 3 C9.5775 3.28875 10.155 3.5775 10.75 3.875 C13 5 13 5 15.3125 7.6875 C17.8920376 10.44397239 17.8920376 10.44397239 21.8125 9.8125 C23.3903125 9.4103125 23.3903125 9.4103125 25 9 C23.25 11.0625 23.25 11.0625 21 13 C17.46731678 12.6918755 15.89324332 11.17643726 13.5625 8.625 C8.73507147 3.60088625 8.73507147 3.60088625 2.1875 1.8125 C1.465625 1.874375 0.74375 1.93625 0 2 C0 1.34 0 0.68 0 0 Z " fill="#94A3A6" transform="translate(144,193)"/>
<path d="M0 0 C0.66 0 1.32 0 2 0 C2.66 0.66 3.32 1.32 4 2 C4.53625 2.474375 5.0725 2.94875 5.625 3.4375 C7 5 7 5 7 8 C7.66 8 8.32 8 9 8 C9.99 10.97 10.98 13.94 12 17 C7.18964027 12.6269457 3.40073857 7.53722562 0 2 C0 1.34 0 0.68 0 0 Z " fill="#838284" transform="translate(329,205)"/>
<path d="M0 0 C0 0.33 0 0.66 0 1 C-12.87 1.99 -12.87 1.99 -26 3 C-19.8020873 -3.1979127 -7.84979557 -1.79711437 0 0 Z " fill="#8E8C8E" transform="translate(245,77)"/>
<path d="M0 0 C1.32 0.66 2.64 1.32 4 2 C0.37 5.3 -3.26 8.6 -7 12 C-7.33 10.68 -7.66 9.36 -8 8 C-6.6875 6.25 -6.6875 6.25 -5 5 C-4.34 5 -3.68 5 -3 5 C-3 4.34 -3 3.68 -3 3 C-2.34 3 -1.68 3 -1 3 C-0.67 2.01 -0.34 1.02 0 0 Z " fill="#D0CBC6" transform="translate(190,176)"/>
<path d="M0 0 C2.46800047 1.15173355 4.04783565 2.04783565 6 4 C8.20250992 4.46006346 8.20250992 4.46006346 10.625 4.625 C11.44226563 4.69976562 12.25953125 4.77453125 13.1015625 4.8515625 C13.72804688 4.90054688 14.35453125 4.94953125 15 5 C15 5.99 15 6.98 15 8 C11.62361772 8.8637257 9.65074155 9.26339539 6.375 7.9375 C3.54261268 5.62686824 1.87225966 3.12043277 0 0 Z " fill="#A29DA4" transform="translate(326,95)"/>
<path d="M0 0 C3.73639216 1.24546405 4.18756513 2.63404953 6 6 C7.65 5.67 9.3 5.34 11 5 C11.33 4.01 11.66 3.02 12 2 C12.66 2.33 13.32 2.66 14 3 C14 4.65 14 6.3 14 8 C11.1566362 8.81238966 9.33453956 9.08159501 6.4375 8.375 C3.45561473 6.69291087 1.90555832 4.82304936 0 2 C0 1.34 0 0.68 0 0 Z " fill="#F7EFED" transform="translate(327,92)"/>
<path d="M0 0 C2 2 2 2 2.23046875 5.37109375 C2.22647796 6.7266323 2.21172505 8.08217206 2.1875 9.4375 C2.18685547 10.11876953 2.18621094 10.80003906 2.18554688 11.50195312 C2.15827338 14.59597947 1.98489776 17.04530673 1 20 C0.01 19.67 -0.98 19.34 -2 19 C-1.505 17.515 -1.505 17.515 -1 16 C-0.77202438 13.26710707 -0.58331813 10.54957796 -0.4375 7.8125 C-0.39431641 7.06291016 -0.35113281 6.31332031 -0.30664062 5.54101562 C-0.20077315 3.69421625 -0.0999024 1.84713166 0 0 Z " fill="#29384F" transform="translate(308,122)"/>
<path d="M0 0 C0 3.9967284 -1.51424049 5.4409151 -3.875 8.625 C-4.59429687 9.60726562 -5.31359375 10.58953125 -6.0546875 11.6015625 C-8 14 -8 14 -10 15 C-10.33 13.68 -10.66 12.36 -11 11 C-10.01 10.67 -9.02 10.34 -8 10 C-8 9.01 -8 8.02 -8 7 C-7.01 6.67 -6.02 6.34 -5 6 C-3.57142881 4.59894424 -3.57142881 4.59894424 -2.3125 2.9375 C-1.1678125 1.4834375 -1.1678125 1.4834375 0 0 Z " fill="#9C979A" transform="translate(430,84)"/>
<path d="M0 0 C0.33 0 0.66 0 1 0 C1.061875 1.299375 1.12375 2.59875 1.1875 3.9375 C1.68680896 8.68466133 3.40098328 11.82286596 5.85546875 15.84765625 C7.49357368 18.92818805 7.77940082 21.54394613 8 25 C5.49366513 22.49366513 4.43115013 19.96483419 2.9375 16.75 C2.41027344 15.63109375 1.88304687 14.5121875 1.33984375 13.359375 C-0.48884968 8.77431275 -1.65235186 4.77346093 0 0 Z " fill="#A4A6AD" transform="translate(361,187)"/>
<path d="M0 0 C0.33 0.66 0.66 1.32 1 2 C1.66 2.33 2.32 2.66 3 3 C1.21188257 4.98247802 -0.58025519 6.96103728 -2.375 8.9375 C-2.88289062 9.50146484 -3.39078125 10.06542969 -3.9140625 10.64648438 C-7.7734375 14.88671875 -7.7734375 14.88671875 -10 16 C-8.82685964 13.22712279 -7.34589066 11.17638712 -5.375 8.9375 C-2.68563893 6.24076887 -2.68563893 6.24076887 -3 3 C-2.34 3 -1.68 3 -1 3 C-0.67 2.01 -0.34 1.02 0 0 Z " fill="#AEABAA" transform="translate(179,186)"/>
<path d="M0 0 C0.33 0 0.66 0 1 0 C1.66 7.59 2.32 15.18 3 23 C2.34 23 1.68 23 1 23 C1 21.02 1 19.04 1 17 C0.34 17 -0.32 17 -1 17 C-1.12036664 11.22240116 -0.8320582 5.72040011 0 0 Z " fill="#979390" transform="translate(305,163)"/>
<path d="M0 0 C1.32 0.66 2.64 1.32 4 2 C3.01 2.33 2.02 2.66 1 3 C0.34 3.66 -0.32 4.32 -1 5 C-1.99 5.495 -1.99 5.495 -3 6 C-3.33 6.99 -3.66 7.98 -4 9 C-6.375 11.25 -6.375 11.25 -9 13 C-9.99 12.67 -10.98 12.34 -12 12 C-10.71034824 10.62437146 -9.37310707 9.29233607 -8 8 C-7.34 8 -6.68 8 -6 8 C-5.7525 7.4225 -5.505 6.845 -5.25 6.25 C-3.83316683 3.6997003 -2.12372463 1.98214299 0 0 Z " fill="#EAE4DF" transform="translate(204,305)"/>
<path d="M0 0 C7.42857143 -0.28571429 7.42857143 -0.28571429 11 2 C11 4.64 11 7.28 11 10 C10.01 10.33 9.02 10.66 8 11 C8 8.69 8 6.38 8 4 C5.09399739 2.74335022 3.20395416 2 0 2 C0 1.34 0 0.68 0 0 Z " fill="#9696AC" transform="translate(194,175)"/>
<path d="M0 0 C0.33 1.32 0.66 2.64 1 4 C-0.51601873 6.10558157 -2.12989161 7.07520041 -4.375 8.375 C-7.37521012 10.23227293 -9.58256157 12.44442223 -12 15 C-12.66 14.67 -13.32 14.34 -14 14 C-9.38 9.38 -4.76 4.76 0 0 Z " fill="#84848A" transform="translate(184,203)"/>
<path d="M0 0 C0.99 0.33 1.98 0.66 3 1 C3 1.66 3 2.32 3 3 C3.99 3.33 4.98 3.66 6 4 C6 4.66 6 5.32 6 6 C9.05263664 6.98120464 10.94736336 6.98120464 14 6 C13.34 7.32 12.68 8.64 12 10 C7.65574165 9.51980564 5.93796082 8.35568204 3.1875 5 C2.58292969 4.278125 1.97835937 3.55625 1.35546875 2.8125 C0 1 0 1 0 0 Z " fill="#EEE5DF" transform="translate(154,194)"/>
<path d="M0 0 C4.40035907 1.3038101 7.96040185 3.01273553 11.8125 5.5 C12.76769531 6.1084375 13.72289062 6.716875 14.70703125 7.34375 C17 9 17 9 18 11 C15.69 10.67 13.38 10.34 11 10 C10.67 9.01 10.34 8.02 10 7 C8.67203709 6.64587656 7.33783393 6.31478446 6 6 C4.4375 4.625 4.4375 4.625 3 3 C2.443125 2.443125 1.88625 1.88625 1.3125 1.3125 C0.879375 0.879375 0.44625 0.44625 0 0 Z " fill="#A3A3A4" transform="translate(395,113)"/>
<path d="M0 0 C0.66 0.33 1.32 0.66 2 1 C0.68 3.64 -0.64 6.28 -2 9 C-4 8 -4 8 -5 7 C-7.97 9.475 -7.97 9.475 -11 12 C-9.55922954 8.63820226 -7.75249979 6.40843732 -5 4 C-4.34 4 -3.68 4 -3 4 C-3 3.34 -3 2.68 -3 2 C-2.01 1.34 -1.02 0.68 0 0 Z " fill="#A1A4A6" transform="translate(341,118)"/>
<path d="M0 0 C2.18840439 3.28260659 4.15885893 6.50818073 6 10 C5.67 10.66 5.34 11.32 5 12 C4.01 11.67 3.02 11.34 2 11 C1.01 11.495 1.01 11.495 0 12 C-0.66 10.68 -1.32 9.36 -2 8 C-1.34 7.34 -0.68 6.68 0 6 C0.16681109 2.91652174 0.16681109 2.91652174 0 0 Z " fill="#C2C4C3" transform="translate(354,197)"/>
<path d="M0 0 C1.134375 0.020625 2.26875 0.04125 3.4375 0.0625 C3.4375 0.3925 3.4375 0.7225 3.4375 1.0625 C2.344375 1.26875 1.25125 1.475 0.125 1.6875 C-3.7510687 2.69094522 -3.7510687 2.69094522 -5.25 5.9375 C-5.683125 6.96875 -6.11625 8 -6.5625 9.0625 C-8.625 11.4375 -8.625 11.4375 -10.5625 13.0625 C-11.2225 13.0625 -11.8825 13.0625 -12.5625 13.0625 C-11.16323881 10.05442643 -9.51191211 7.5097645 -7.5 4.875 C-6.97277344 4.18019531 -6.44554687 3.48539062 -5.90234375 2.76953125 C-3.78060633 0.06632643 -3.78060633 0.06632643 0 0 Z " fill="#71777D" transform="translate(426.5625,72.9375)"/>
<path d="M0 0 C1.32 0.99 2.64 1.98 4 3 C3.04882866 4.1725131 2.08882991 5.33787015 1.125 6.5 C0.59132812 7.1496875 0.05765625 7.799375 -0.4921875 8.46875 C-0.98976562 8.9740625 -1.48734375 9.479375 -2 10 C-2.66 10 -3.32 10 -4 10 C-3.43454163 6.04179141 -2.19097652 3.3340947 0 0 Z " fill="#BAB7B3" transform="translate(176,308)"/>
<path d="M0 0 C0.66 0.33 1.32 0.66 2 1 C-1.3 4.63 -4.6 8.26 -8 12 C-8 8.8525787 -7.399734 7.71198463 -6 5 C-6 4.34 -6 3.68 -6 3 C-5.01 3 -4.02 3 -3 3 C-3 2.34 -3 1.68 -3 1 C-2.01 0.67 -1.02 0.34 0 0 Z " fill="#A4A09E" transform="translate(180,248)"/>
<path d="M0 0 C3.99662011 0.3156994 6.57248093 1.7896508 9.8125 4.0625 C10.60269531 4.61035156 11.39289063 5.15820312 12.20703125 5.72265625 C12.79871094 6.14417969 13.39039063 6.56570312 14 7 C12.68 7.33 11.36 7.66 10 8 C10 7.34 10 6.68 10 6 C8.7934375 5.814375 8.7934375 5.814375 7.5625 5.625 C6.716875 5.41875 5.87125 5.2125 5 5 C4.67 4.34 4.34 3.68 4 3 C0.97065509 2.34227572 0.97065509 2.34227572 -2 2 C-1.34 1.34 -0.68 0.68 0 0 Z " fill="#ACABAE" transform="translate(245,78)"/>
<path d="M0 0 C0.66 0 1.32 0 2 0 C1.67566492 5.35152885 -1.49704824 8.28280043 -5 12 C-5.99 11.67 -6.98 11.34 -8 11 C-4.25 6.125 -4.25 6.125 -2 5 C-1.27840576 3.35636866 -0.60648579 1.68949614 0 0 Z " fill="#475A6F" transform="translate(397,272)"/>
<path d="M0 0 C0.33 1.32 0.66 2.64 1 4 C-1.64 6.31 -4.28 8.62 -7 11 C-7.33 10.01 -7.66 9.02 -8 8 C-5.36 5.36 -2.72 2.72 0 0 Z " fill="#8E8F8E" transform="translate(191,256)"/>
<path d="M0 0 C0.70125 0.721875 1.4025 1.44375 2.125 2.1875 C4.92770745 4.99823813 7.92262792 7.49516226 11 10 C10.01 10 9.02 10 8 10 C6.32900023 10.31088368 4.66128463 10.64080332 3 11 C3 10.01 3 9.02 3 8 C2.3507041 6.65812182 1.68268138 5.32520503 1 4 C0.63215869 2.6757713 0.28797019 1.34386088 0 0 Z " fill="#A09C9F" transform="translate(343,284)"/>
<path d="M0 0 C0.99 0.66 1.98 1.32 3 2 C0.69 5.96 -1.62 9.92 -4 14 C-5 10 -5 10 -3.6875 7.5625 C-3.130625 6.716875 -2.57375 5.87125 -2 5 C-1.30177383 3.34630643 -0.62501395 1.68272986 0 0 Z " fill="#A29FAD" transform="translate(410,213)"/>
<path d="M0 0 C1.85546875 0.25390625 1.85546875 0.25390625 4 1 C5.30078125 2.77734375 5.30078125 2.77734375 6.3125 4.9375 C6.65925781 5.64777344 7.00601562 6.35804687 7.36328125 7.08984375 C7.57339844 7.72019531 7.78351563 8.35054687 8 9 C7.67 9.66 7.34 10.32 7 11 C5.82439821 9.73742767 4.65977135 8.46462916 3.5 7.1875 C2.8503125 6.47980469 2.200625 5.77210937 1.53125 5.04296875 C0 3 0 3 0 0 Z " fill="#AAA8A8" transform="translate(318,83)"/>
<path d="M0 0 C2.31 0 4.62 0 7 0 C7 3 7 3 5.6875 4.38671875 C4.125 5.59114583 2.5625 6.79557292 1 8 C1.33 6.02 1.66 4.04 2 2 C1.34 2 0.68 2 0 2 C0 1.34 0 0.68 0 0 Z " fill="#C5BFBB" transform="translate(181,240)"/>
<path d="M0 0 C2.475 0.495 2.475 0.495 5 1 C4.67 1.66 4.34 2.32 4 3 C4.80767387 4.94996045 4.80767387 4.94996045 6 7 C7.1875 9.125 7.1875 9.125 8 11 C7.67 11.66 7.34 12.32 7 13 C0.29612756 4.738041 0.29612756 4.738041 0 0 Z " fill="#A3A0A6" transform="translate(321,192)"/>
<path d="M0 0 C-4.10107774 2.22141711 -9.26557671 5 -14 5 C-14 4.34 -14 3.68 -14 3 C-8.99067246 -0.00559652 -5.67276511 -0.29341888 0 0 Z " fill="#A6ABB0" transform="translate(378,179)"/>
<path d="M0 0 C1.33332095 2.6666419 0.67102033 4.16680303 0 7 C-2.76264289 7.59732819 -5.16032769 8 -8 8 C-5.36 5.36 -2.72 2.72 0 0 Z " fill="#ACADB8" transform="translate(189,318)"/>
<path d="M0 0 C4.13621084 3.3810038 7.81316569 6.66590534 11 11 C7.39865954 9.33784287 4.13426073 7.43775835 1 5 C0.125 2.25 0.125 2.25 0 0 Z " fill="#8B9A9B" transform="translate(148,269)"/>
<path d="M0 0 C0.33 0 0.66 0 1 0 C1.8125 3.1875 1.8125 3.1875 2 7 C-0.4375 9.9375 -0.4375 9.9375 -3 12 C-3.66 11.67 -4.32 11.34 -5 11 C-4 8 -4 8 -1 6 C-0.26656572 2.93443402 -0.26656572 2.93443402 0 0 Z " fill="#E9E3DE" transform="translate(315,257)"/>
<path d="M0 0 C3.39417765 3.12621626 5.6062718 5.56541027 7 10 C6.34 10 5.68 10 5 10 C5 9.34 5 8.68 5 8 C4.01 8 3.02 8 2 8 C1.34 5.36 0.68 2.72 0 0 Z " fill="#A8A5A4" transform="translate(323,214)"/>
<path d="M0 0 C1.32 0.33 2.64 0.66 4 1 C-0.43076923 6.78461538 -0.43076923 6.78461538 -3.3125 7.875 C-4.1478125 7.936875 -4.1478125 7.936875 -5 8 C-5.33 7.34 -5.66 6.68 -6 6 C-5.195625 5.566875 -4.39125 5.13375 -3.5625 4.6875 C-0.72153646 3.19525998 -0.72153646 3.19525998 0 0 Z " fill="#90A6BB" transform="translate(168,318)"/>
<path d="M0 0 C1.65 0.33 3.3 0.66 5 1 C4.01 3.97 3.02 6.94 2 10 C1.67 10 1.34 10 1 10 C0.67 8.02 0.34 6.04 0 4 C-0.66 4 -1.32 4 -2 4 C-2 3.34 -2 2.68 -2 2 C-1.34 2 -0.68 2 0 2 C0 1.34 0 0.68 0 0 Z " fill="#CAC7C4" transform="translate(213,312)"/>
<path d="M0 0 C5.61 0.33 11.22 0.66 17 1 C17 1.33 17 1.66 17 2 C12.05 2 7.1 2 2 2 C1.67 2.66 1.34 3.32 1 4 C0.34 3.67 -0.32 3.34 -1 3 C-0.67 2.01 -0.34 1.02 0 0 Z " fill="#EBE5DF" transform="translate(218,250)"/>
<path d="M0 0 C1.81242052 -0.02687279 3.62495233 -0.04633715 5.4375 -0.0625 C6.44683594 -0.07410156 7.45617187 -0.08570313 8.49609375 -0.09765625 C11 0 11 0 12 1 C12.04063832 2.66617115 12.042721 4.33388095 12 6 C11.77570313 5.35546875 11.55140625 4.7109375 11.3203125 4.046875 C10.17110544 1.75611148 10.17110544 1.75611148 7.6171875 1.390625 C6.25980469 1.32101563 6.25980469 1.32101563 4.875 1.25 C3.96492188 1.19328125 3.05484375 1.1365625 2.1171875 1.078125 C1.41851562 1.05234375 0.71984375 1.0265625 0 1 C0 0.67 0 0.34 0 0 Z " fill="#3D5269" transform="translate(388,248)"/>
<path d="M0 0 C2 1 2 1 3 2 C3.14115161 4.67058851 3.04247107 7.32432238 3 10 C2.67 10 2.34 10 2 10 C2 7.69 2 5.38 2 3 C1.34 3 0.68 3 0 3 C0 3.66 0 4.32 0 5 C-1.65 5.66 -3.3 6.32 -5 7 C-3.35 4.69 -1.7 2.38 0 0 Z " fill="#676D77" transform="translate(305,144)"/>
<path d="M0 0 C0 0.33 0 0.66 0 1 C-2.28977245 1.52909886 -4.58189188 2.04805019 -6.875 2.5625 C-8.78925781 2.99755859 -8.78925781 2.99755859 -10.7421875 3.44140625 C-14 4 -14 4 -16 3 C-10.28264895 0.54970669 -6.20970773 -0.33266291 0 0 Z " fill="#999599" transform="translate(367,110)"/>
<path d="M0 0 C0.66 0 1.32 0 2 0 C2.33 1.65 2.66 3.3 3 5 C2.67 5 2.34 5 2 5 C1.67 8.3 1.34 11.6 1 15 C0.67 15 0.34 15 0 15 C-0.19448477 12.87562788 -0.38038289 10.75046809 -0.5625 8.625 C-0.66691406 7.44164062 -0.77132813 6.25828125 -0.87890625 5.0390625 C-1 2 -1 2 0 0 Z " fill="#F9F3F2" transform="translate(396,182)"/>
<path d="M0 0 C1.24546405 2.49092811 0.7767578 3.41080733 0 6 C-2.60582371 6.93065133 -3.64198224 7.14917407 -6.25 6.0625 C-6.8275 5.711875 -7.405 5.36125 -8 5 C-7.4225 4.731875 -6.845 4.46375 -6.25 4.1875 C-3.9674132 2.98280141 -2.0262058 1.59201885 0 0 Z " fill="#C8C8CA" transform="translate(379,86)"/>
<path d="M0 0 C2.0625 1.6875 2.0625 1.6875 4 4 C3.75 6.75 3.75 6.75 3 9 C2.34 9 1.68 9 1 9 C1 9.66 1 10.32 1 11 C0.34 11 -0.32 11 -1 11 C-0.649375 10.29875 -0.29875 9.5975 0.0625 8.875 C1.1639193 5.49731414 0.79516141 3.41919407 0 0 Z " fill="#D1CECC" transform="translate(328,76)"/>
<path d="M0 0 C0.99 0.33 1.98 0.66 3 1 C1.71034824 2.37562854 0.37310707 3.70766393 -1 5 C-1.66 5 -2.32 5 -3 5 C-3.33 5.99 -3.66 6.98 -4 8 C-4.66 5.69 -5.32 3.38 -6 1 C-4.7934375 1.0309375 -4.7934375 1.0309375 -3.5625 1.0625 C-1.06645115 1.29633621 -1.06645115 1.29633621 0 0 Z " fill="#B8B6B3" transform="translate(144,253)"/>
<path d="M0 0 C1.32 0.66 2.64 1.32 4 2 C3.525625 2.391875 3.05125 2.78375 2.5625 3.1875 C0.64820367 5.40808374 0.38733012 7.13375709 0 10 C-0.33 10 -0.66 10 -1 10 C-1.9765625 3.9453125 -1.9765625 3.9453125 -2 2 C-1.34 1.34 -0.68 0.68 0 0 Z " fill="#C1BCBC" transform="translate(215,252)"/>
<path d="M0 0 C1.33333333 0.66666667 2.66666667 1.33333333 4 2 C3.67 3.65 3.34 5.3 3 7 C1.68 6.67 0.36 6.34 -1 6 C-0.67 4.02 -0.34 2.04 0 0 Z " fill="#F5EFE8" transform="translate(394,201)"/>
<path d="M0 0 C2 4 2 4 3 7 C2.01 7.99 1.02 8.98 0 10 C-0.66 9.67 -1.32 9.34 -2 9 C-1.34 6.03 -0.68 3.06 0 0 Z " fill="#ECE5DB" transform="translate(331,317)"/>
<path d="M0 0 C0.268125 0.5775 0.53625 1.155 0.8125 1.75 C2.01719859 4.0325868 3.40798115 5.9737942 5 8 C4.67 8.66 4.34 9.32 4 10 C3.01 9.34 2.02 8.68 1 8 C1 7.34 1 6.68 1 6 C0.01 6 -0.98 6 -2 6 C-1.33333333 4 -0.66666667 2 0 0 Z " fill="#919492" transform="translate(141,317)"/>
<path d="M0 0 C0.66 0 1.32 0 2 0 C2.66 0.66 3.32 1.32 4 2 C4.804375 2.7425 4.804375 2.7425 5.625 3.5 C7 5 7 5 7 7 C4.20171644 6.61402985 3.1794116 6.19863427 1.25 4.0625 C0 2 0 2 0 0 Z " fill="#B2AEAD" transform="translate(329,205)"/>
<path d="M0 0 C0.66 0.33 1.32 0.66 2 1 C1.19152271 2.16945792 0.37810888 3.33550461 -0.4375 4.5 C-0.88996094 5.1496875 -1.34242188 5.799375 -1.80859375 6.46875 C-2.20175781 6.9740625 -2.59492188 7.479375 -3 8 C-3.33 8 -3.66 8 -4 8 C-4 6.02 -4 4.04 -4 2 C-2.125 0.9375 -2.125 0.9375 0 0 Z " fill="#A59CA1" transform="translate(418,205)"/>
<path d="M0 0 C1.65 0 3.3 0 5 0 C6.0625 1.875 6.0625 1.875 7 4 C6.67 4.66 6.34 5.32 6 6 C3.97945196 4.35830472 1.97956942 2.69088222 0 1 C0 0.67 0 0.34 0 0 Z " fill="#9A9D9E" transform="translate(151,314)"/>
<path d="M0 0 C1.32 0.33 2.64 0.66 4 1 C3.3125 2.9375 3.3125 2.9375 2 5 C-0.4375 5.875 -0.4375 5.875 -3 6 C-3.99 5.34 -4.98 4.68 -6 4 C-4.02 3.67 -2.04 3.34 0 3 C0 2.01 0 1.02 0 0 Z " fill="#918D93" transform="translate(416,98)"/>
<path d="M0 0 C2.62187494 1.04874998 3.79371361 1.64931313 5.25 4.125 C5.4975 4.74375 5.745 5.3625 6 6 C3.97954558 5.39816251 1.97888961 4.72693904 0 4 C-0.33 3.34 -0.66 2.68 -1 2 C-0.67 1.34 -0.34 0.68 0 0 Z " fill="#C5BDC1" transform="translate(124,365)"/>
<path d="M0 0 C0.66 0 1.32 0 2 0 C2.66 2.64 3.32 5.28 4 8 C2.68 7.67 1.36 7.34 0 7 C0 4.69 0 2.38 0 0 Z " fill="#A19B98" transform="translate(337,272)"/>
<path d="M0 0 C1.96301592 3.50538557 2.95902388 7.13351728 4 11 C1.4375 9.4375 1.4375 9.4375 -1 7 C-0.8125 3.25 -0.8125 3.25 0 0 Z " fill="#867F7E" transform="translate(308,186)"/>
<path d="M0 0 C0.99 0.33 1.98 0.66 3 1 C2.67 1.99 2.34 2.98 2 4 C-1 5 -1 5 -4 5 C-2.25 1.125 -2.25 1.125 0 0 Z " fill="#F6F0EA" transform="translate(332,130)"/>
<path d="M0 0 C2.64 0.33 5.28 0.66 8 1 C8 1.33 8 1.66 8 2 C7.05125 2.309375 6.1025 2.61875 5.125 2.9375 C2.13919592 3.87394742 2.13919592 3.87394742 0 5 C0 3.35 0 1.7 0 0 Z " fill="#919191" transform="translate(192,294)"/>
<path d="M0 0 C1.98 0.99 1.98 0.99 4 2 C3.67 4.31 3.34 6.62 3 9 C2.34 9 1.68 9 1 9 C0.67 6.03 0.34 3.06 0 0 Z " fill="#A3A3A5" transform="translate(140,194)"/>
<path d="M0 0 C2.64 0 5.28 0 8 0 C8.33 1.32 8.66 2.64 9 4 C8.1646875 3.505 8.1646875 3.505 7.3125 3 C4.69715478 1.8690399 2.8193354 1.84337026 0 2 C0 1.34 0 0.68 0 0 Z " fill="#817F88" transform="translate(144,193)"/>
<path d="M0 0 C1.32 0.66 2.64 1.32 4 2 C2.35 3.32 0.7 4.64 -1 6 C-1.042721 4.33388095 -1.04063832 2.66617115 -1 1 C-0.67 0.67 -0.34 0.34 0 0 Z " fill="#9E9C98" transform="translate(190,176)"/>
<path d="M0 0 C2.875 0.1875 2.875 0.1875 6 1 C7.375 3.5625 7.375 3.5625 8 6 C6.66402348 5.19185349 5.331275 4.37836819 4 3.5625 C3.2575 3.11003906 2.515 2.65757812 1.75 2.19140625 C1.1725 1.79824219 0.595 1.40507812 0 1 C0 0.67 0 0.34 0 0 Z " fill="#9D9AA7" transform="translate(382,173)"/>
<path d="M0 0 C3.79588866 0.54226981 5.47211993 2.20127563 8 5 C5.69 4.67 3.38 4.34 1 4 C0.67 2.68 0.34 1.36 0 0 Z " fill="#A19A9B" transform="translate(405,119)"/>
</svg>
