<?xml version="1.0" encoding="UTF-8"?>
<svg version="1.1" xmlns="http://www.w3.org/2000/svg" width="542" height="517">
<path d="M0 0 C178.86 0 357.72 0 542 0 C542 170.61 542 341.22 542 517 C363.14 517 184.28 517 0 517 C0 346.39 0 175.78 0 0 Z " fill="#112C3F" transform="translate(0,0)"/>
<path d="M0 0 C1.11503906 0.00322266 2.23007813 0.00644531 3.37890625 0.00976562 C4.53777344 0.01814453 5.69664062 0.02652344 6.890625 0.03515625 C8.06496094 0.03966797 9.23929688 0.04417969 10.44921875 0.04882812 C13.34640572 0.06060531 16.24348954 0.07705299 19.140625 0.09765625 C19.15464355 0.98904297 19.15464355 0.98904297 19.16894531 1.8984375 C19.22315493 4.6323027 19.30669778 7.36454824 19.390625 10.09765625 C19.40480469 11.03222656 19.41898438 11.96679688 19.43359375 12.9296875 C19.64933885 19.09999744 20.52443206 23.98510761 24.140625 29.09765625 C26.05871113 30.97746819 26.05871113 30.97746819 28.203125 32.03515625 C29.21052734 32.60556641 29.21052734 32.60556641 30.23828125 33.1875 C33.70334449 34.84532287 36.43373217 35.22577123 40.22427368 35.23809814 C41.27557465 35.24380829 42.32687561 35.24951843 43.41003418 35.25540161 C45.13993591 35.2570784 45.13993591 35.2570784 46.90478516 35.25878906 C48.72718216 35.26623642 48.72718216 35.26623642 50.58639526 35.27383423 C53.92144237 35.28594572 57.25642673 35.29340238 60.59148836 35.29784489 C62.67757594 35.30077828 64.76365806 35.30488371 66.84974289 35.30934906 C73.38352547 35.32302541 79.91729551 35.33268998 86.45109141 35.33655095 C93.97979799 35.34102473 101.50832239 35.35854021 109.0369736 35.38755155 C114.86388187 35.40922108 120.6907391 35.41925812 126.5176872 35.42059207 C129.99388408 35.42163683 133.46990974 35.42747335 136.946064 35.44541168 C140.83080057 35.46506756 144.7153127 35.46058243 148.60009766 35.45410156 C149.74122009 35.46331635 150.88234253 35.47253113 152.05804443 35.48202515 C159.97816726 35.44073367 166.99436874 34.9092044 173.078125 29.47265625 C173.75875 28.68890625 174.439375 27.90515625 175.140625 27.09765625 C176.130625 26.60265625 176.130625 26.60265625 177.140625 26.09765625 C176.99625 27.21140625 176.851875 28.32515625 176.703125 29.47265625 C176.09666406 34.33993543 175.58778201 39.21325043 175.140625 44.09765625 C175.07746094 44.78553223 175.01429688 45.4734082 174.94921875 46.18212891 C173.19701009 68.43854857 182.66882093 86.19987307 196.19384766 102.99633789 C207.06302084 116.63537248 208.47693511 128.87366949 208.52148438 145.68359375 C208.56065243 154.48857223 208.89401948 162.14579719 213.140625 170.09765625 C213.59824219 170.98839844 214.05585938 171.87914062 214.52734375 172.796875 C217.22654694 176.92268407 219.54414197 179.44464175 223.78613281 181.99438477 C226.736615 184.24985265 227.96151452 185.44470258 228.95275879 189.05831909 C229.2326138 192.75610436 229.23103329 196.35552943 229.125 200.0625 C229.11580843 201.42336642 229.11019437 202.78426122 229.10797119 204.14515686 C229.09421036 206.9897269 229.05116039 209.83172514 228.984375 212.67553711 C228.89960665 216.30136617 228.86674454 219.92517586 228.8533287 223.55190182 C228.83777788 227.03485535 228.79422607 230.51731477 228.75 234 C228.73725037 235.29292465 228.72450073 236.5858493 228.71136475 237.91795349 C228.48153933 247.63072726 227.39208294 255.00734182 220.140625 262.09765625 C214.48510659 265.84935706 209.50558723 266.67589333 202.82894897 266.59886169 C201.9238819 266.60439609 201.01881482 266.60993049 200.08632147 266.61563259 C197.07077264 266.62918427 194.05605935 266.61429968 191.04052734 266.59936523 C188.87176666 266.60315034 186.70300839 266.60865196 184.53425598 266.61573792 C178.65631203 266.62968297 172.7786611 266.61852993 166.90073347 266.6020267 C160.74694057 266.58816423 154.59316446 266.59463752 148.43936157 266.59815979 C138.1079639 266.60086055 127.7766825 266.58739636 117.4453125 266.56420898 C105.50051981 266.5375861 93.55592134 266.53585716 81.61110914 266.54759735 C70.11758208 266.55837472 58.62412527 266.55218926 47.13060379 266.53804207 C42.2399797 266.53228336 37.34940704 266.53236403 32.4587822 266.53710747 C26.70165137 266.54187829 20.94473339 266.53177098 15.18764305 266.51015282 C13.07448863 266.50458677 10.96131375 266.50411797 8.84815788 266.50910568 C5.9646467 266.5150584 3.08178629 266.50255344 0.19833374 266.4853363 C-1.05711461 266.49435137 -1.05711461 266.49435137 -2.33792555 266.50354856 C-9.49769642 266.42576189 -14.61622409 264.06485185 -19.859375 259.09765625 C-23.2016752 254.29730562 -24.98031807 249.86519852 -24.99080276 244.03302288 C-24.99464391 243.2281946 -24.99848505 242.42336631 -25.0024426 241.59414929 C-25.00157612 240.71565739 -25.00070963 239.83716548 -24.99981689 238.93205261 C-25.00278802 237.99435683 -25.00575914 237.05666105 -25.0088203 236.09055024 C-25.01750882 232.94081032 -25.01901567 229.79110839 -25.02050781 226.64135742 C-25.02513584 224.38614317 -25.03016048 222.13092971 -25.03555298 219.87571716 C-25.04867965 213.74344848 -25.05512236 207.61119075 -25.05956364 201.47891021 C-25.06249368 197.64889042 -25.06659834 193.81887364 -25.07106781 189.98885536 C-25.08317602 179.38156732 -25.09355851 168.77428189 -25.0969429 158.16698742 C-25.09716247 157.48833825 -25.09738203 156.80968908 -25.09760825 156.11047478 C-25.09782653 155.43021736 -25.09804481 154.74995994 -25.0982697 154.04908866 C-25.09871316 152.67066522 -25.09915973 151.29224179 -25.09960938 149.91381836 C-25.0998308 149.23007514 -25.10005223 148.54633192 -25.10028037 147.84186921 C-25.10422827 136.76319573 -25.12168285 125.68458802 -25.1449689 114.60593995 C-25.16869139 103.22767966 -25.18088724 91.84946348 -25.18231082 80.47117406 C-25.18335969 74.08426674 -25.18928508 67.69745222 -25.20713043 61.31056786 C-25.22358889 55.3031853 -25.22577735 49.29596554 -25.21699142 43.2885685 C-25.21621989 41.08391001 -25.2205791 38.87924285 -25.23044968 36.67460632 C-25.24313693 33.66427999 -25.23730965 30.65453303 -25.22686768 27.64421082 C-25.23492408 26.77241108 -25.24298048 25.90061134 -25.25128102 25.00239342 C-25.18438502 16.75286039 -22.74161681 11.11358537 -16.859375 5.09765625 C-11.32558501 1.19291455 -6.67803273 -0.0340716 0 0 Z " fill="#E4E1D7" transform="translate(148.859375,127.90234375)"/>
<path d="M0 0 C1.7072816 1.1802183 3.3966211 2.3870286 5.0625 3.625 C5.76761719 4.13546875 6.47273438 4.6459375 7.19921875 5.171875 C20.02047534 15.34827512 26.50207407 30.85128116 29.0625 46.625 C30.55244805 64.8711331 24.35113069 79.73583347 13.48046875 94.0234375 C6.11246574 103.76410076 -0.88900092 113.3340055 -2.9375 125.625 C-8.5475 125.625 -14.1575 125.625 -19.9375 125.625 C-20.59752937 101.8150515 -20.59752937 101.8150515 -13.078125 90.55859375 C-10.05112095 85.4271999 -9.40461653 79.48671813 -9.9375 73.625 C-12.12533368 67.06149897 -15.4666598 61.81743144 -21.5 58.25 C-27.68769844 55.48825889 -34.40069224 55.44283412 -40.7890625 57.578125 C-46.5237419 60.25092543 -50.28526899 63.07933637 -53.0078125 68.921875 C-55.14659099 75.14050826 -54.8960019 82.22954223 -52.25 88.25 C-51.10119134 90.47939764 -49.91619699 92.6606269 -48.62890625 94.81347656 C-44.79949599 101.58312393 -44.30748938 107.0711278 -44.625 114.75 C-44.64755859 115.801875 -44.67011719 116.85375 -44.69335938 117.9375 C-44.75161233 120.50063004 -44.84126517 123.06301486 -44.9375 125.625 C-49.8875 125.625 -54.8375 125.625 -59.9375 125.625 C-60.618125 123.8925 -61.29875 122.16 -62 120.375 C-65.9868691 110.89091585 -70.94971978 102.69395093 -77.4375 94.75 C-90.10174162 79.13206225 -94.42413676 62.46500861 -92.9375 42.625 C-91.08976816 29.10825899 -83.55424461 16.97274477 -73.9375 7.625 C-73.32390625 6.99078125 -72.7103125 6.3565625 -72.078125 5.703125 C-52.93980275 -12.78089563 -21.9627564 -13.25545107 0 0 Z " fill="#EFEBE6" transform="translate(428.9375,125.375)"/>
<path d="M0 0 C6.94239219 5.34657385 9.84434401 11.6253418 12.328125 19.79296875 C13.62230347 19.8069873 13.62230347 19.8069873 14.94262695 19.82128906 C18.1467434 19.86532597 21.34990228 19.92694769 24.5534668 20.00048828 C25.93940896 20.02869672 27.32551196 20.04991208 28.71166992 20.06396484 C30.70519904 20.08539296 32.69837546 20.13413889 34.69140625 20.18359375 C35.89063721 20.20454102 37.08986816 20.22548828 38.32543945 20.24707031 C41.328125 20.79296875 41.328125 20.79296875 43.21801758 22.37792969 C44.7428902 25.69529059 44.7170269 28.39582861 44.7265625 32.04296875 C44.73086777 33.08565918 44.73086777 33.08565918 44.73526001 34.14941406 C44.73729634 35.61524269 44.73179656 37.08109876 44.71923828 38.546875 C44.7031766 40.78577652 44.71909958 43.02287312 44.73828125 45.26171875 C44.73629874 46.68880605 44.7324549 48.11589224 44.7265625 49.54296875 C44.72317871 50.8371875 44.71979492 52.13140625 44.71630859 53.46484375 C44.29465619 57.07991639 43.84464673 58.24765477 41.328125 60.79296875 C38.95272064 61.29633331 38.95272064 61.29633331 36.09020996 61.30090332 C35.00499557 61.31218262 33.91978119 61.32346191 32.80168152 61.33508301 C31.61093521 61.32698608 30.4201889 61.31888916 29.19335938 61.31054688 C27.93952957 61.31755615 26.68569977 61.32456543 25.39387512 61.33178711 C21.95354053 61.34639257 18.51416609 61.34294658 15.07388496 61.33027077 C11.47579775 61.320152 7.87775189 61.3295333 4.27966309 61.33581543 C-1.7630145 61.34309516 -7.80549661 61.33349577 -13.84814453 61.31445312 C-20.83686885 61.29268354 -27.82512643 61.2997347 -34.81383944 61.32175875 C-40.81139007 61.33990365 -46.8088001 61.3424756 -52.8063693 61.33200407 C-56.3896929 61.32576404 -59.97279702 61.32494722 -63.55610657 61.33815002 C-67.54995911 61.35183727 -71.54328777 61.33287351 -75.53710938 61.31054688 C-77.32322884 61.32269226 -77.32322884 61.32269226 -79.14543152 61.33508301 C-80.7732531 61.31816406 -80.7732531 61.31816406 -82.43395996 61.30090332 C-83.85090275 61.29864117 -83.85090275 61.29864117 -85.29647064 61.29633331 C-87.671875 60.79296875 -87.671875 60.79296875 -89.47498322 58.96923065 C-91.21912581 55.79792382 -91.0608988 53.14348424 -91.0703125 49.54296875 C-91.07318268 48.8478418 -91.07605286 48.15271484 -91.07901001 47.43652344 C-91.08104634 45.97069481 -91.07554656 44.50483874 -91.06298828 43.0390625 C-91.0469266 40.80016098 -91.06284958 38.56306438 -91.08203125 36.32421875 C-91.08004874 34.89713145 -91.0762049 33.47004526 -91.0703125 32.04296875 C-91.06692871 30.74875 -91.06354492 29.45453125 -91.06005859 28.12109375 C-90.64584466 24.56979543 -90.42037869 23.0781218 -87.671875 20.79296875 C-84.66918945 20.33886719 -84.66918945 20.33886719 -81.03515625 20.40234375 C-79.73642578 20.41523437 -78.43769531 20.428125 -77.09960938 20.44140625 C-75.72785397 20.47482774 -74.35610919 20.50868752 -72.984375 20.54296875 C-71.60093688 20.56303499 -70.21747116 20.58128556 -68.83398438 20.59765625 C-65.44591851 20.64487668 -62.05924259 20.71072806 -58.671875 20.79296875 C-58.45712524 19.3850708 -58.45712524 19.3850708 -58.23803711 17.94873047 C-56.73945804 9.59571922 -51.08415708 3.40362346 -44.4375 -1.51171875 C-30.02785769 -10.34474808 -13.92543923 -8.8676146 0 0 Z " fill="#F0ECE6" transform="translate(271.671875,89.20703125)"/>
<path d="M0 0 C5.41658295 3.18888599 9.4706088 7.90749266 12.125 13.5625 C13.99165606 23.31059277 10.98710059 30.89035793 5.87109375 39.06640625 C2.6968176 45.59305325 2.32524297 52.37309702 2.0625 59.5 C2.02382813 60.37011719 1.98515625 61.24023438 1.9453125 62.13671875 C1.85209113 64.25750486 1.76875864 66.37872185 1.6875 68.5 C0.6253125 68.48839844 -0.436875 68.47679687 -1.53125 68.46484375 C-2.95833156 68.45545506 -4.38541504 68.44635602 -5.8125 68.4375 C-6.85664063 68.42493164 -6.85664063 68.42493164 -7.921875 68.41210938 C-11.42656457 68.39588396 -14.80801144 68.51459079 -18.28125 69 C-22.63639908 69.60446466 -26.92228214 69.61195653 -31.3125 69.5625 C-32.08722656 69.55798828 -32.86195313 69.55347656 -33.66015625 69.54882812 C-35.54430524 69.53719758 -37.42841365 69.51926906 -39.3125 69.5 C-38.8175 68.51 -38.8175 68.51 -38.3125 67.5 C-33.3625 67.83 -28.4125 68.16 -23.3125 68.5 C-23.15567499 50.06839545 -23.15567499 50.06839545 -30.3125 33.5 C-33.94775399 26.71419256 -34.67606966 19.63696998 -32.69140625 12.16015625 C-30.00165632 5.93189085 -24.92440165 2.22332562 -18.921875 -0.640625 C-12.94241291 -2.60990892 -5.79785422 -2.55920909 0 0 Z " fill="#345165" transform="translate(407.3125,182.5)"/>
<path d="M0 0 C0.96452591 -0.01134979 1.92905182 -0.02269958 2.92280579 -0.03439331 C3.97949966 -0.03146271 5.03619354 -0.0285321 6.12490845 -0.0255127 C7.23897568 -0.03398224 8.35304291 -0.04245178 9.50086975 -0.05117798 C13.19418668 -0.07463184 16.887089 -0.07556804 20.58047485 -0.07434082 C23.14253915 -0.08143777 25.70460184 -0.08913608 28.2666626 -0.09741211 C33.64182592 -0.11087659 39.01682647 -0.11259765 44.39199829 -0.10656738 C50.60141471 -0.0999292 56.8102367 -0.12277945 63.01953256 -0.15988111 C68.99593427 -0.19429323 74.97202057 -0.20091367 80.94853592 -0.1967926 C83.48989252 -0.19848812 86.03125665 -0.20817185 88.57255173 -0.22593689 C92.12564124 -0.24803877 95.67729315 -0.23846711 99.2303772 -0.2208252 C100.80934532 -0.24072006 100.80934532 -0.24072006 102.42021179 -0.26101685 C107.18602635 -0.20595504 109.5520469 -0.15303243 113.49542236 2.70629883 C115.30703735 5.39440918 115.30703735 5.39440918 115.36953735 9.01940918 C114.18945007 12.76792172 113.59219407 13.46086872 110.30703735 15.39440918 C108.04843235 15.77751923 108.04843235 15.77751923 105.53178406 15.78881836 C104.09555443 15.80584305 104.09555443 15.80584305 102.63031006 15.82321167 C101.58656219 15.82028107 100.54281433 15.81735046 99.46743774 15.81433105 C98.36297806 15.8228006 97.25851837 15.83127014 96.12059021 15.83999634 C92.46517461 15.86341914 88.81017861 15.86438722 85.1546936 15.86315918 C82.61647878 15.8702574 80.07826558 15.8779559 77.54005432 15.88623047 C72.2179455 15.89968737 66.895992 15.90141938 61.57388306 15.89538574 C55.42635962 15.88874448 49.27943612 15.91161321 43.13203436 15.94869947 C37.21280289 15.98311049 31.29375633 15.98973223 25.37441826 15.98561096 C22.85818125 15.98730624 20.34193664 15.99698767 17.8257618 16.01475525 C14.3086991 16.03685721 10.79308866 16.02728591 7.27603149 16.00964355 C5.71344604 16.02953842 5.71344604 16.02953842 4.11929321 16.04983521 C-0.62378558 15.99447346 -2.95367968 15.93093635 -6.87852478 13.08251953 C-8.69296265 10.39440918 -8.69296265 10.39440918 -8.69296265 6.76940918 C-7.15026386 1.56280079 -5.4203608 0.02409539 0 0 Z " fill="#2E4D62" transform="translate(235.69296264648438,330.6055908203125)"/>
<path d="M0 0 C1.40819252 -0.0131424 1.40819252 -0.0131424 2.84483337 -0.02655029 C5.94325184 -0.04852904 9.04023929 -0.03399654 12.13867188 -0.01708984 C14.29431431 -0.0204584 16.44995489 -0.02531135 18.60559082 -0.03158569 C23.121522 -0.03895498 27.6369584 -0.02824928 32.15283203 -0.00488281 C37.94033439 0.0236045 43.72667744 0.0072009 49.51413727 -0.02274513 C53.96487151 -0.04081628 58.41533107 -0.0350608 62.86607361 -0.02210617 C64.99991493 -0.01877168 67.13378122 -0.02286072 69.26759338 -0.03450394 C72.2506817 -0.04720921 75.23189504 -0.0278393 78.21484375 0 C79.09603378 -0.01012115 79.97722382 -0.02024231 80.88511658 -0.03067017 C85.26046789 0.04494526 87.0863912 0.25594179 90.69055176 2.96084595 C92.60742188 5.64697266 92.60742188 5.64697266 92.66992188 9.27197266 C91.45891855 13.11868911 91.1101784 13.8202875 87.60742188 15.64697266 C84.47956918 16.09513444 81.37611478 16.06688387 78.22070312 16.05102539 C76.79568985 16.06132027 76.79568985 16.06132027 75.34188843 16.07182312 C72.20108097 16.09012726 69.06077123 16.08624876 65.91992188 16.08056641 C63.73803545 16.08512613 61.55615046 16.09043107 59.37426758 16.09645081 C54.80121018 16.10538878 50.22832735 16.10295051 45.65527344 16.09301758 C39.79046836 16.08152115 33.92626475 16.10174661 28.0615387 16.13093472 C23.55599125 16.14926548 19.0505888 16.14901058 14.54501343 16.1432972 C12.38242753 16.14314363 10.21983201 16.1492169 8.05728149 16.16158867 C5.03584853 16.17643937 2.01553806 16.16586523 -1.00585938 16.14868164 C-1.90156647 16.15834961 -2.79727356 16.16801758 -3.72012329 16.17797852 C-9.75881159 16.10593567 -9.75881159 16.10593567 -12.9440918 13.79920959 C-14.96006317 10.80377362 -15.04296417 9.18796333 -14.39257812 5.64697266 C-10.21639104 -0.03591543 -6.54806208 -0.0752096 0 0 Z " fill="#2F4E62" transform="translate(241.392578125,266.35302734375)"/>
<path d="M0 0 C2.48830028 2.23947026 2.94886917 3.52406803 3.30664062 6.85424805 C2.92763474 10.7423777 1.91424078 11.86977879 -0.78125 14.64453125 C-1.60496094 15.5051416 -2.42867187 16.36575195 -3.27734375 17.25244141 C-4.17582031 18.15913574 -5.07429688 19.06583008 -6 20 C-6.90878906 20.9389209 -7.81757813 21.8778418 -8.75390625 22.84521484 C-11.15227286 25.31668591 -13.57585752 27.76156094 -16.01123047 30.1965332 C-17.50389283 31.69139857 -18.98832656 33.1941315 -20.47265625 34.69726562 C-35.26607115 49.59394027 -35.26607115 49.59394027 -41.4453125 50.51171875 C-47.02799198 48.13754627 -50.69737794 44.12745979 -54.875 39.8125 C-55.74125 38.96107422 -56.6075 38.10964844 -57.5 37.23242188 C-64.60872626 30.02898688 -64.60872626 30.02898688 -65 24 C-64 21.1875 -64 21.1875 -62 19 C-58.27343923 17.89583385 -56.10653274 17.44940642 -52.57421875 19.20703125 C-49.79164452 21.14512165 -47.54837504 23.25615108 -45.1875 25.6875 C-44.39730469 26.49574219 -43.60710937 27.30398437 -42.79296875 28.13671875 C-42.20128906 28.75160156 -41.60960937 29.36648437 -41 30 C-38.19980675 28.72466236 -36.17250511 27.41476602 -34.02319336 25.21850586 C-33.4725975 24.66130356 -32.92200165 24.10410126 -32.35472107 23.53001404 C-31.4811068 22.63150475 -31.4811068 22.63150475 -30.58984375 21.71484375 C-29.9811293 21.09855606 -29.37241486 20.48226837 -28.74525452 19.8473053 C-26.8044534 17.882109 -24.87023612 15.91062668 -22.9375 13.9375 C-20.38983334 11.3367372 -17.83570374 8.74258336 -15.27734375 6.15234375 C-14.69291 5.55131332 -14.10847626 4.9502829 -13.5063324 4.33103943 C-8.93969909 -0.29070313 -6.41128367 -1.73638933 0 0 Z " fill="#335165" transform="translate(214,186)"/>
<path d="M0 0 C1.9375 1.125 1.9375 1.125 3 3 C3.69929189 6.56638866 3.72694171 8.87874749 1.7109375 11.98828125 C-1.87243159 16.20160335 -5.94441958 19.83463687 -10.15234375 23.41015625 C-12.56439486 25.48564209 -14.78090911 27.72093368 -17 30 C-18.66666667 31.66666667 -20.33333333 33.33333333 -22 35 C-23.08767367 36.0985287 -24.17489192 37.19750847 -25.26171875 38.296875 C-26.40361444 39.44794781 -27.54554195 40.59898906 -28.6875 41.75 C-29.26822266 42.33910156 -29.84894531 42.92820312 -30.44726562 43.53515625 C-35.66895973 48.78703356 -35.66895973 48.78703356 -40.125 49.5 C-45.74617588 48.77468698 -48.10364893 45.92331544 -52 42 C-52.95952172 41.07405147 -53.92054485 40.14965707 -54.8828125 39.2265625 C-63.66350911 30.69866083 -63.66350911 30.69866083 -65 27 C-64.86003746 23.57091775 -64.63112109 21.70124565 -62.3125 19.125 C-59.08065373 17.55275047 -57.57565753 17.31237355 -54 18 C-51.05990535 20.06210961 -48.5430658 22.47259991 -46 25 C-45.46503906 25.52078125 -44.93007812 26.0415625 -44.37890625 26.578125 C-43.23736434 27.70349776 -42.11591586 28.84921177 -41 30 C-38.19923613 28.72370463 -36.16415401 27.40867105 -34.00732422 25.21850586 C-33.45350067 24.66130356 -32.89967712 24.10410126 -32.32907104 23.53001404 C-31.74352448 22.93100784 -31.15797791 22.33200165 -30.5546875 21.71484375 C-29.94360138 21.09855606 -29.33251526 20.48226837 -28.70291138 19.8473053 C-26.75545618 17.88206676 -24.81483091 15.91026236 -22.875 13.9375 C-20.92716399 11.96205725 -18.97789254 9.98808649 -17.02566528 8.01698303 C-15.81202071 6.79106939 -14.60105915 5.56249271 -13.39303589 4.33103943 C-8.50550044 -0.61479547 -6.92841947 -1.45861463 0 0 Z " fill="#315064" transform="translate(214,313)"/>
<path d="M0 0 C1.9375 1.125 1.9375 1.125 3 3 C3.58154297 6.05712891 3.58154297 6.05712891 3 10 C0.63425373 13.36836316 -2.27992576 16.11714742 -5.2421875 18.9609375 C-6.08089386 19.7921109 -6.91960022 20.6232843 -7.78372192 21.47964478 C-10.4648451 24.12824419 -13.16957531 26.75125213 -15.875 29.375 C-17.69034215 31.16380301 -19.50416353 32.95415077 -21.31640625 34.74609375 C-24.63029181 38.00965292 -27.9468045 41.27022973 -31.28466797 44.50927734 C-32.29060501 45.48687515 -32.29060501 45.48687515 -33.31686401 46.48422241 C-35.4558014 48.41047993 -36.78191431 48.95845987 -39.625 49.5 C-44.78466939 48.73560453 -47.38973925 45.58994033 -51 42 C-51.69738281 41.31679688 -52.39476562 40.63359375 -53.11328125 39.9296875 C-54.47711666 38.57869423 -55.83038235 37.21693145 -57.171875 35.84375 C-58.70516618 34.29735377 -60.31369398 32.8260607 -61.9375 31.375 C-64.46522708 28.46428396 -65.08025237 26.85211399 -65 23 C-63.5625 20.125 -63.5625 20.125 -61 18 C-54.39873686 17.10700915 -54.39873686 17.10700915 -51.22485352 19.13330078 C-49.53653536 20.67732472 -48.01403825 22.28511994 -46.5 24 C-45.96375 24.57234375 -45.4275 25.1446875 -44.875 25.734375 C-43.56428612 27.1387113 -42.27939727 28.56707505 -41 30 C-38.19923613 28.72370463 -36.16415401 27.40867105 -34.00732422 25.21850586 C-33.45350067 24.66130356 -32.89967712 24.10410126 -32.32907104 23.53001404 C-31.74352448 22.93100784 -31.15797791 22.33200165 -30.5546875 21.71484375 C-29.94360138 21.09855606 -29.33251526 20.48226837 -28.70291138 19.8473053 C-26.75545618 17.88206676 -24.81483091 15.91026236 -22.875 13.9375 C-20.92716399 11.96205725 -18.97789254 9.98808649 -17.02566528 8.01698303 C-15.81202071 6.79106939 -14.60105915 5.56249271 -13.39303589 4.33103943 C-8.50550044 -0.61479547 -6.92841947 -1.45861463 0 0 Z " fill="#304F64" transform="translate(214,250)"/>
<path d="M0 0 C0.73557632 -0.00540298 1.47115265 -0.01080597 2.22901917 -0.01637268 C4.65040838 -0.02883813 7.07060357 -0.01238633 9.49194336 0.00561523 C11.17915408 0.00546021 12.86636515 0.00397068 14.55357361 0.00120544 C18.08503004 -0.0001775 21.6160798 0.01236311 25.14746094 0.03515625 C29.67262002 0.06356258 34.19710472 0.06079637 38.72231388 0.04806614 C42.20448055 0.04111004 45.68649145 0.04889705 49.16863823 0.06132317 C50.8371871 0.06583682 52.50575268 0.06617521 54.17430305 0.06225777 C56.50587355 0.0593456 58.83651562 0.07585082 61.16796875 0.09765625 C62.20059845 0.09090378 62.20059845 0.09090378 63.25408936 0.08401489 C67.2666061 0.14633178 69.66146443 0.59971191 72.51928711 3.50170898 C73.21221704 6.20795503 73.00568903 8.76069112 72.51928711 11.50170898 C70.9759062 13.676473 69.88263438 14.32003535 67.51928711 15.50170898 C65.17722037 15.61972677 62.83174224 15.67160957 60.48681641 15.69458008 C59.40114883 15.70684631 59.40114883 15.70684631 58.29354858 15.71936035 C55.89354278 15.74421312 53.49359612 15.76073004 51.09350586 15.77514648 C50.27413858 15.78047016 49.45477131 15.78579384 48.61057472 15.79127884 C44.27359579 15.81801005 39.93664563 15.83738492 35.59960938 15.85180664 C31.12029383 15.86845384 26.64171414 15.91323155 22.16267681 15.96417809 C18.71825823 15.99783698 15.2740146 16.00938251 11.82944679 16.01503372 C10.17840769 16.02175012 8.52738025 16.03698245 6.87650108 16.06092453 C4.56370494 16.09255202 2.25289709 16.09261768 -0.06005859 16.08520508 C-1.37529007 16.09329193 -2.69052155 16.10137878 -4.04560852 16.10971069 C-8.35363269 15.34720517 -9.81928908 13.90652333 -12.48071289 10.50170898 C-13.10571289 7.43920898 -13.10571289 7.43920898 -12.48071289 4.50170898 C-8.62094877 0.49154487 -5.34608084 -0.07530023 0 0 Z " fill="#314F63" transform="translate(239.480712890625,203.498291015625)"/>
<path d="M0 0 C3.97654007 2.27844999 6.54330193 4.62990579 8 9 C8.47911135 14.69458058 7.34735484 18.02197973 4.625 23 C-0.13755022 31.78033951 -1.33168582 39.09314269 -1.625 48.9375 C-1.66367187 50.00291016 -1.70234375 51.06832031 -1.7421875 52.16601562 C-1.83586146 54.77717734 -1.92158335 57.38834304 -2 60 C-3.98 60 -5.96 60 -8 60 C-8.01458252 59.38592285 -8.02916504 58.7718457 -8.04418945 58.13916016 C-8.11961945 55.30054015 -8.21595776 52.46297742 -8.3125 49.625 C-8.33505859 48.65949219 -8.35761719 47.69398438 -8.38085938 46.69921875 C-8.70017472 38.04867574 -10.06538626 30.14554269 -15.125 22.9375 C-17.9789488 18.39258653 -19.62450348 14.43318027 -19 9 C-15.06851063 0.83459899 -8.70371495 -1.70554912 0 0 Z " fill="#ECEAE6" transform="translate(402,191)"/>
<path d="M0 0 C17.82 0 35.64 0 54 0 C54 4.62 54 9.24 54 14 C36.18 14 18.36 14 0 14 C0 9.38 0 4.76 0 0 Z " fill="#305065" transform="translate(370,264)"/>
<path d="M0 0 C16.83 0 33.66 0 51 0 C46.67455119 8.65089763 43.49113452 12.76278761 34.875 16.4375 C27.53658487 18.8232399 20.35964859 18.74746245 13.1640625 15.86328125 C7.50997637 12.76457039 3.02343254 8.76418643 0 3 C0 2.01 0 1.02 0 0 Z " fill="#315166" transform="translate(372,288)"/>
<path d="M0 0 C4.05999285 0.51818992 5.0076231 1.72696492 7.58984375 4.83984375 C8.35296875 5.74734375 9.11609375 6.65484375 9.90234375 7.58984375 C11.01609375 8.98203125 11.01609375 8.98203125 12.15234375 10.40234375 C13.17328125 11.67078125 13.17328125 11.67078125 14.21484375 12.96484375 C21.18927557 21.79912405 21.18927557 21.79912405 20.96484375 25.46484375 C20.15234375 28.40234375 20.15234375 28.40234375 17.15234375 30.40234375 C13.37148533 30.3111166 11.66967862 29.88412296 8.87890625 27.28515625 C8.18539063 26.37507813 7.491875 25.465 6.77734375 24.52734375 C6.019375 23.53734375 5.26140625 22.54734375 4.48046875 21.52734375 C3.32804687 19.98046875 3.32804687 19.98046875 2.15234375 18.40234375 C1.3634375 17.41234375 0.57453125 16.42234375 -0.23828125 15.40234375 C-1.34429687 13.97921875 -1.34429687 13.97921875 -2.47265625 12.52734375 C-3.14554687 11.66367188 -3.8184375 10.8 -4.51171875 9.91015625 C-5.84765625 7.40234375 -5.84765625 7.40234375 -5.68359375 4.70703125 C-4.45719051 1.32582605 -3.58529676 0.50656456 0 0 Z " fill="#EAE9E5" transform="translate(341.84765625,78.59765625)"/>
<path d="M0 0 C3.25 0.625 3.25 0.625 5.25 2.625 C5.77008406 6.4157158 5.49927248 8.20615441 3.52734375 11.51953125 C2.75519531 12.48246094 1.98304688 13.44539063 1.1875 14.4375 C0.77918945 14.95159424 0.37087891 15.46568848 -0.04980469 15.99536133 C-1.27852948 17.54229802 -2.51420508 19.08370553 -3.75 20.625 C-4.40355469 21.52992187 -5.05710937 22.43484375 -5.73046875 23.3671875 C-6.31441406 24.17414063 -6.89835937 24.98109375 -7.5 25.8125 C-8.01046875 26.52792969 -8.5209375 27.24335937 -9.046875 27.98046875 C-11.22276754 30.0815026 -12.7669911 30.38635929 -15.75 30.625 C-18.0625 29.5625 -18.0625 29.5625 -19.75 27.625 C-20.3310406 23.61524459 -19.9500226 21.94361307 -17.7734375 18.4765625 C-16.90561226 17.38891259 -16.02201649 16.31370315 -15.125 15.25 C-14.19818732 14.11412206 -13.27240289 12.97740433 -12.34765625 11.83984375 C-11.89793457 11.29312012 -11.44821289 10.74639648 -10.98486328 10.18310547 C-9.37205228 8.14811935 -7.98324631 5.98426751 -6.5625 3.8125 C-4.30204424 0.75347867 -4.048836 0.674806 0 0 Z " fill="#EDEBE6" transform="translate(452.75,78.375)"/>
<path d="M0 0 C1.62915039 1.11743164 1.62915039 1.11743164 3 3 C3.56641136 7.12025764 3.47267023 11.24066935 3.44604492 15.39672852 C3.43754133 17.42762819 3.46628379 19.4557069 3.49804688 21.48632812 C3.49740234 22.76830078 3.49675781 24.05027344 3.49609375 25.37109375 C3.49794678 26.54599365 3.4997998 27.72089355 3.50170898 28.93139648 C2.90089236 32.60617223 1.98471393 33.82792409 -1 36 C-4.1875 35.875 -4.1875 35.875 -7 35 C-9.15025244 30.69949511 -8.22697178 24.97272618 -8.24023438 20.1965332 C-8.24994745 18.07398399 -8.28097427 15.95240032 -8.3125 13.83007812 C-8.31902955 12.48177658 -8.32428021 11.13346812 -8.328125 9.78515625 C-8.3374707 8.55676025 -8.34681641 7.32836426 -8.35644531 6.06274414 C-8 3 -8 3 -6.63574219 1.09936523 C-4.2855167 -0.48019676 -2.76884205 -0.41532631 0 0 Z " fill="#ECEBE7" transform="translate(400,61)"/>
<path d="M0 0 C3.26250137 1.89818262 5.38735287 3.29284844 6.6953125 6.9375 C7.3176423 10.43313973 7.20722094 12.50921357 5.8125 15.8125 C1.7637987 20.69886364 1.7637987 20.69886364 -2.08203125 21.35546875 C-6.29318354 21.6138645 -8.4233628 21.3844248 -12 19 C-14.67309907 14.9903514 -15 12.82843714 -15 8 C-12.12317609 1.18646969 -7.34227282 -1.46563603 0 0 Z " fill="#152B3D" transform="translate(252,104)"/>
<path d="M0 0 C1.93166016 0.01740234 1.93166016 0.01740234 3.90234375 0.03515625 C5.19269531 0.04417969 6.48304688 0.05320312 7.8125 0.0625 C8.81152344 0.07410156 9.81054688 0.08570312 10.83984375 0.09765625 C8.87389933 3.45797659 6.76489798 6.68589627 4.57836914 9.90600586 C0.02508051 16.69765601 -3.0336156 23.14368931 -5.16015625 31.09765625 C-5.57630196 32.51447604 -5.99287488 33.93117052 -6.41015625 35.34765625 C-6.78140625 36.70890625 -6.78140625 36.70890625 -7.16015625 38.09765625 C-8.36805311 34.61086066 -7.8961314 32.63067953 -6.78515625 29.16015625 C-4.86904447 22.15763867 -4.66191478 15.25960451 -4.45166016 8.04516602 C-4.42507324 7.16143311 -4.39848633 6.2777002 -4.37109375 5.3671875 C-4.35353027 4.56901611 -4.3359668 3.77084473 -4.31787109 2.94848633 C-4.04226512 -0.28583083 -3.32567381 0.10277113 0 0 Z " fill="#2F4D61" transform="translate(332.16015625,127.90234375)"/>
<path d="M0 0 C0.56238247 0.3242565 1.12476494 0.64851299 1.7041893 0.98259544 C4.25209477 2.11171756 5.95835422 2.25980956 8.73297119 2.2784729 C9.6808551 2.28963638 10.62873901 2.30079987 11.60534668 2.31230164 C12.63824829 2.31446182 13.6711499 2.31662201 14.73535156 2.31884766 C16.37482758 2.33391609 16.37482758 2.33391609 18.04742432 2.34928894 C21.66181917 2.38019136 25.27613971 2.39717591 28.890625 2.4140625 C31.39598228 2.43276844 33.90133323 2.45234142 36.40667725 2.4727478 C42.32806127 2.51888249 48.24945963 2.55626903 54.17092681 2.58942068 C61.57495579 2.63140833 68.97887239 2.68697262 76.3828125 2.7421875 C89.58848057 2.8390254 102.79419765 2.92378241 116 3 C116 3.33 116 3.66 116 4 C101.17084555 4.15382907 86.34164278 4.30186431 71.51236153 4.4429636 C64.62718819 4.50861115 57.74204342 4.57616917 50.85693359 4.64819336 C44.21749756 4.71764227 37.57802426 4.7818087 30.93850327 4.84269524 C28.40024957 4.86684663 25.86201234 4.89279454 23.32379532 4.92053413 C19.7798546 4.95896384 16.23591013 4.99111414 12.69189453 5.02172852 C11.63310089 5.03467453 10.57430725 5.04762054 9.48342896 5.06095886 C8.52146606 5.06799835 7.55950317 5.07503784 6.56838989 5.08229065 C5.72955828 5.09058679 4.89072666 5.09888292 4.02647591 5.10743046 C2 5 2 5 0 4 C0 2.68 0 1.36 0 0 Z " fill="#D9E3E1" transform="translate(228,343)"/>
<path d="M0 0 C32.67 0.33 65.34 0.66 99 1 C99.495 1.99 99.495 1.99 100 3 C66.67 3 33.34 3 -1 3 C-0.67 2.01 -0.34 1.02 0 0 Z " fill="#E8F2F4" transform="translate(231,265)"/>
<path d="M0 0 C0.33 0 0.66 0 1 0 C1.42317708 2.01822917 1.84635417 4.03645833 2.26953125 6.0546875 C2.92308838 8.37046549 2.92308838 8.37046549 6 10 C8.4445394 10.21219657 10.77918035 10.31119521 13.2253418 10.31884766 C13.95729767 10.32889328 14.68925354 10.3389389 15.44338989 10.34928894 C17.86199155 10.38017185 20.28048225 10.39717004 22.69921875 10.4140625 C24.37645933 10.43277006 26.05369046 10.45234317 27.73091125 10.4727478 C32.14493238 10.52411859 36.55898405 10.56371777 40.97314453 10.60089111 C45.4776162 10.6408998 49.98196033 10.69200642 54.48632812 10.7421875 C63.32412922 10.83900532 72.16200225 10.92339133 81 11 C81 11.33 81 11.66 81 12 C71.17722992 12.06953829 61.3545185 12.12283074 51.53155231 12.15543652 C46.9702465 12.17108639 42.40910922 12.19231226 37.84790039 12.22631836 C33.44532301 12.25893603 29.04290763 12.27685812 24.64021873 12.28463173 C22.96130002 12.29017092 21.28239009 12.30098765 19.60354042 12.31719017 C17.25022915 12.33899677 14.89758565 12.34196562 12.54418945 12.34057617 C11.8515097 12.351362 11.15882996 12.36214783 10.44515991 12.3732605 C6.1433455 12.34581302 3.38601342 11.69816111 0 9 C-1.15941038 5.52176885 -0.70820884 3.54104422 0 0 Z " fill="#DAE3E4" transform="translate(226,208)"/>
<path d="M0 0 C2.32105891 3.48158836 2.27355943 4.97670987 2.34375 9.09375 C2.37339844 10.28871094 2.40304688 11.48367187 2.43359375 12.71484375 C2.47786458 15.23828125 2.52213542 17.76171875 2.56640625 20.28515625 C2.59605469 21.48011719 2.62570313 22.67507812 2.65625 23.90625 C2.67494141 25.00259766 2.69363281 26.09894531 2.71289062 27.22851562 C2.80432591 30.21133393 2.80432591 30.21133393 5 33 C5 33.99 5 34.98 5 36 C1.125 34.25 1.125 34.25 0 32 C-0.08639869 29.59161322 -0.11567764 27.21266119 -0.09765625 24.8046875 C-0.0962413 24.09724396 -0.09482635 23.38980042 -0.09336853 22.66091919 C-0.087766 20.39890331 -0.07521318 18.13698602 -0.0625 15.875 C-0.05748532 14.34244935 -0.05292236 12.80989714 -0.04882812 11.27734375 C-0.03779577 7.51819112 -0.02052952 3.75911228 0 0 Z " fill="#BBC2C7" transform="translate(181,114)"/>
<path d="M0 0 C0.33 0.99 0.66 1.98 1 3 C0.00390625 4.61328125 0.00390625 4.61328125 -1.4375 6.3125 C-3.98649324 9.62196637 -4.51768931 11.75494765 -4 16 C-3.01 16 -2.02 16 -1 16 C-0.34 15.01 0.32 14.02 1 13 C1.66 13 2.32 13 3 13 C2.6875 15.375 2.6875 15.375 2 18 C-1 20 -1 20 -3.5625 19.75 C-6 19 -6 19 -8 17 C-8.52158915 13.16414643 -8.22039457 11.37683535 -6.25 8.0078125 C-5.5075 7.05648437 -4.765 6.10515625 -4 5.125 C-3.2575 4.15820312 -2.515 3.19140625 -1.75 2.1953125 C-1.1725 1.47085938 -0.595 0.74640625 0 0 Z " fill="#E0E3E3" transform="translate(441,89)"/>
<path d="M0 0 C1.32 0.66 2.64 1.32 4 2 C0.04 5.96 -3.92 9.92 -8 14 C-9.07349791 9.70600835 -8.79682816 8.80504787 -7 5 C-5.35 5 -3.7 5 -2 5 C-2 3.68 -2 2.36 -2 1 C-1.34 0.67 -0.68 0.34 0 0 Z " fill="#D6D8D4" transform="translate(192,258)"/>
<path d="M0 0 C0.99 0.33 1.98 0.66 3 1 C2.649375 1.61875 2.29875 2.2375 1.9375 2.875 C1.4734375 3.926875 1.4734375 3.926875 1 5 C1.95865509 7.33075929 1.95865509 7.33075929 5 9 C2.03 10.65 -0.94 12.3 -4 14 C-4 4 -4 4 -2 1.8125 C-1.34 1.214375 -0.68 0.61625 0 0 Z " fill="#304B5D" transform="translate(389,182)"/>
<path d="M0 0 C0.66 0 1.32 0 2 0 C2.75 2.75 2.75 2.75 3 6 C1.3125 8.375 1.3125 8.375 -1 10 C-2.32 10 -3.64 10 -5 10 C-4.7215625 8.824375 -4.7215625 8.824375 -4.4375 7.625 C-3.74037734 5.02910225 -3.74037734 5.02910225 -5 3 C-4.34 3 -3.68 3 -3 3 C-2.67 2.34 -2.34 1.68 -2 1 C-1.34 1.33 -0.68 1.66 0 2 C0 1.34 0 0.68 0 0 Z " fill="#F1EDE8" transform="translate(360,99)"/>
<path d="M0 0 C0.99 0.33 1.98 0.66 3 1 C1.36587557 2.70840281 0.13093906 3.93453047 -2 5 C-2.45375 5.763125 -2.9075 6.52625 -3.375 7.3125 C-5.04937643 10.08166102 -6.47329332 11.97863466 -9 14 C-12.25 14.75 -12.25 14.75 -15 15 C-10 10 -5 5 0 0 Z " fill="#CED4D4" transform="translate(192,347)"/>
<path d="M0 0 C1.65 0.33 3.3 0.66 5 1 C4.94011859 3.12579013 4.85137256 5.25078413 4.75 7.375 C4.68039063 9.15003906 4.68039063 9.15003906 4.609375 10.9609375 C4.40828125 11.96382813 4.2071875 12.96671875 4 14 C2.078125 15.2265625 2.078125 15.2265625 0 16 C-0.66 16.99 -1.32 17.98 -2 19 C-2.99 18.67 -3.98 18.34 -5 18 C-4.4946875 17.50371094 -3.989375 17.00742187 -3.46875 16.49609375 C0.84803258 12.03499992 0.84803258 12.03499992 2.5625 6.1875 C2.19480583 2.85707545 2.19480583 2.85707545 0 0 Z " fill="#DCE1DF" transform="translate(214,313)"/>
<path d="M0 0 C1.3921875 0.2784375 1.3921875 0.2784375 2.8125 0.5625 C6.01343771 1.24123881 6.01343771 1.24123881 9 0 C9.66 0.33 10.32 0.66 11 1 C9.95125002 3.62187494 9.35068687 4.79371361 6.875 6.25 C6.25625 6.4975 5.6375 6.745 5 7 C3.29115995 5.37660195 1.62553283 3.70680947 0 2 C0 1.34 0 0.68 0 0 Z " fill="#D2D8D7" transform="translate(168,274)"/>
<path d="M0 0 C-4.62 4.62 -9.24 9.24 -14 14 C-14.33 12.68 -14.66 11.36 -15 10 C-13.51199262 7.96377938 -12.25700177 7.10903106 -9.9375 6.125 C-7.29627356 4.59138465 -7.07068248 2.78377446 -6 0 C-3 -1 -3 -1 0 0 Z " fill="#2D4656" transform="translate(209,268)"/>
<path d="M0 0 C0.33 0 0.66 0 1 0 C1.1968121 2.04079005 1.38202831 4.08270007 1.5625 6.125 C1.66691406 7.26195312 1.77132813 8.39890625 1.87890625 9.5703125 C1.99608016 12.88897993 1.6655072 15.7562686 1 19 C0.34 18.67 -0.32 18.34 -1 18 C-1.02690844 15.37493198 -1.04679404 12.75013827 -1.0625 10.125 C-1.07087891 9.37863281 -1.07925781 8.63226563 -1.08789062 7.86328125 C-1.11328125 2.2265625 -1.11328125 2.2265625 0 0 Z " fill="#3B4952" transform="translate(324,170)"/>
<path d="M0 0 C0.66 0.33 1.32 0.66 2 1 C-0.03642414 5.54279232 -2.87748015 8.25165343 -7 11 C-8.32509583 11.36470527 -9.65809607 11.70304422 -11 12 C-7.49102731 7.81576108 -3.91939465 3.80411834 0 0 Z " fill="#D7DDDC" transform="translate(201,275)"/>
<path d="M0 0 C0 2 0 2 -1.75 3.875 C-2.4925 4.57625 -3.235 5.2775 -4 6 C-4.7425 6.7425 -5.485 7.485 -6.25 8.25 C-6.8275 8.8275 -7.405 9.405 -8 10 C-8.66 9.67 -9.32 9.34 -10 9 C-8.9789114 5.32408105 -8.08564783 4.0660202 -5 1.6875 C-2 0 -2 0 0 0 Z " fill="#DEE3E3" transform="translate(394,191)"/>
<path d="M0 0 C-2.3125 2.5 -2.3125 2.5 -5 5 C-5.99 5 -6.98 5 -8 5 C-8.33 5.99 -8.66 6.98 -9 8 C-9.99 7.67 -10.98 7.34 -12 7 C-5.54347826 -1.84782609 -5.54347826 -1.84782609 0 0 Z " fill="#425764" transform="translate(389,184)"/>
<path d="M0 0 C0.66 0.33 1.32 0.66 2 1 C0.87811441 2.14888283 -0.24761684 3.29401137 -1.375 4.4375 C-2.00148437 5.07558594 -2.62796875 5.71367187 -3.2734375 6.37109375 C-5.6205112 8.58541442 -6.67953243 8.97272616 -9.9375 9.25 C-13 9 -13 9 -14.875 7.5 C-15.24625 7.005 -15.6175 6.51 -16 6 C-14.4221875 6.3403125 -14.4221875 6.3403125 -12.8125 6.6875 C-8.50132966 7.04087462 -7.33310128 6.61243073 -4 4 C-2.63015802 2.70420353 -1.2848951 1.38007251 0 0 Z " fill="#2C4350" transform="translate(184,290)"/>
<path d="M0 0 C0.66 0.33 1.32 0.66 2 1 C1.34 1.5775 0.68 2.155 0 2.75 C-2.44290923 4.99653977 -2.44290923 4.99653977 -2 9 C-3.32 9.33 -4.64 9.66 -6 10 C-6 10.66 -6 11.32 -6 12 C-6.66 12 -7.32 12 -8 12 C-6.49087042 7.01987239 -3.44338151 3.75740058 0 0 Z " fill="#D9DCDE" transform="translate(352,136)"/>
<path d="M0 0 C0 1.32 0 2.64 0 4 C-0.66 4 -1.32 4 -2 4 C-2.33 4.99 -2.66 5.98 -3 7 C-4.32 7 -5.64 7 -7 7 C-3.86206897 0 -3.86206897 0 0 0 Z " fill="#D0D6D4" transform="translate(206,335)"/>
<path d="M0 0 C0.99 0 1.98 0 3 0 C2.67 2.97 2.34 5.94 2 9 C2.66 9.33 3.32 9.66 4 10 C3.01 10 2.02 10 1 10 C-0.80411967 7.24075815 -1.0127245 6.11027897 -0.625 2.75 C-0.41875 1.8425 -0.2125 0.935 0 0 Z " fill="#3F5262" transform="translate(150,334)"/>
<path d="M0 0 C2.4375 1.125 2.4375 1.125 5 3 C5.8125 6.1875 5.8125 6.1875 6 9 C4.02 9.99 4.02 9.99 2 11 C1.77213542 9.01432292 1.54427083 7.02864583 1.31640625 5.04296875 C1.02829265 2.80603607 1.02829265 2.80603607 0 0 Z " fill="#DCDAD3" transform="translate(368,308)"/>
<path d="M0 0 C0.66 0 1.32 0 2 0 C3.5078125 1.96875 3.5078125 1.96875 5.125 4.5 C5.66382813 5.3353125 6.20265625 6.170625 6.7578125 7.03125 C7.16773438 7.6809375 7.57765625 8.330625 8 9 C7.01 9 6.02 9 5 9 C4.67 9.66 4.34 10.32 4 11 C3.71125 9.9275 3.4225 8.855 3.125 7.75 C2.27179891 4.90599636 1.4363497 2.56491017 0 0 Z " fill="#E2E3E6" transform="translate(440,136)"/>
<path d="M0 0 C0.66 0.66 1.32 1.32 2 2 C1.8125 5 1.8125 5 1 8 C-2 10 -2 10 -4.1875 9.625 C-4.785625 9.41875 -5.38375 9.2125 -6 9 C-2.25 6 -2.25 6 0 6 C0 4.02 0 2.04 0 0 Z " fill="#C0C6CB" transform="translate(361,99)"/>
<path d="M0 0 C-2.18751669 1.13426792 -4.2998665 2.10709518 -6.625 2.9375 C-9.30799602 3.88458824 -9.30799602 3.88458824 -11 7 C-11 3 -11 3 -9.4375 1.25 C-6.1945248 -0.4130642 -3.59133704 -0.20719252 0 0 Z " fill="#13202E" transform="translate(251,104)"/>
<path d="M0 0 C0.33 0.66 0.66 1.32 1 2 C1.66 2.33 2.32 2.66 3 3 C0.75 5.0625 0.75 5.0625 -2 7 C-3.32 6.67 -4.64 6.34 -6 6 C-4.02 4.02 -2.04 2.04 0 0 Z " fill="#D5DAD7" transform="translate(208,268)"/>
<path d="M0 0 C-0.8125 2.9375 -0.8125 2.9375 -2 6 C-2.99 6.33 -3.98 6.66 -5 7 C-5.66 6.34 -6.32 5.68 -7 5 C-2.25 0 -2.25 0 0 0 Z " fill="#E3E7E2" transform="translate(216,199)"/>
<path d="M0 0 C3.04049801 3.64859761 4.96518762 7.7444533 7 12 C6.34 12 5.68 12 5 12 C3.45703125 9.8828125 3.45703125 9.8828125 1.8125 7.125 C0.98685547 5.76761719 0.98685547 5.76761719 0.14453125 4.3828125 C-0.23316406 3.59648437 -0.61085938 2.81015625 -1 2 C-0.67 1.34 -0.34 0.68 0 0 Z " fill="#DFE7E9" transform="translate(375,212)"/>
<path d="M0 0 C3.84375 1.7734375 3.84375 1.7734375 5.25 3.8125 C6.11081611 6.32321365 6.14647297 8.36348649 6 11 C4.41028035 8.61542052 3.13258407 6.3695876 1.875 3.8125 C1.52179688 3.09707031 1.16859375 2.38164062 0.8046875 1.64453125 C0.53914063 1.10183594 0.27359375 0.55914062 0 0 Z " fill="#E7EEEF" transform="translate(404,194)"/>
<path d="M0 0 C0.66 0.99 1.32 1.98 2 3 C-1.61328125 7.6875 -1.61328125 7.6875 -3 9 C-3.99 9 -4.98 9 -6 9 C-6 8.34 -6 7.68 -6 7 C-5.195625 6.360625 -4.39125 5.72125 -3.5625 5.0625 C-0.76279268 3.18964068 -0.76279268 3.18964068 0 0 Z " fill="#DCDFE2" transform="translate(258,117)"/>
<path d="M0 0 C1.98 1.65 3.96 3.3 6 5 C5.67 5.66 5.34 6.32 5 7 C3.68 7 2.36 7 1 7 C0.67 4.69 0.34 2.38 0 0 Z " fill="#3F5562" transform="translate(162,206)"/>
<path d="M0 0 C1.8125 0.1875 1.8125 0.1875 4 1 C5.75 3.5625 5.75 3.5625 7 6 C4 6 4 6 1.8125 4.125 C0 2 0 2 0 0 Z " fill="#D1D7D6" transform="translate(161,267)"/>
<path d="M0 0 C0.66 0.33 1.32 0.66 2 1 C-0.35968744 3.09749995 -1.54616994 3.96905704 -4.75 4.1875 C-5.86375 4.0946875 -5.86375 4.0946875 -7 4 C-7.33 3.34 -7.66 2.68 -8 2 C-6.865625 1.855625 -5.73125 1.71125 -4.5625 1.5625 C-1.19222799 1.38828522 -1.19222799 1.38828522 0 0 Z " fill="#40545F" transform="translate(178,232)"/>
<path d="M0 0 C0.33 0.66 0.66 1.32 1 2 C0.01 3.32 -0.98 4.64 -2 6 C-3.32 5.67 -4.64 5.34 -6 5 C-4.02 3.35 -2.04 1.7 0 0 Z " fill="#CDD4D4" transform="translate(185,228)"/>
<path d="M0 0 C0.66 0 1.32 0 2 0 C2.20086443 3.71599191 2.1519437 4.77208445 0 8 C-0.66 8 -1.32 8 -2 8 C-1.47731534 5.23723823 -0.89130413 2.6739124 0 0 Z " fill="#293743" transform="translate(456,192)"/>
<path d="M0 0 C0.7425 0.0825 1.485 0.165 2.25 0.25 C2.58 0.91 2.91 1.57 3.25 2.25 C1.93 1.92 0.61 1.59 -0.75 1.25 C-0.75 1.91 -0.75 2.57 -0.75 3.25 C-2.73 3.58 -4.71 3.91 -6.75 4.25 C-3.42692308 0.31153846 -3.42692308 0.31153846 0 0 Z " fill="#40545F" transform="translate(234.75,266.75)"/>
<path d="M0 0 C1.4606285 2.64738916 2 3.89448334 2 7 C0 8.6875 0 8.6875 -2 10 C-2.33 9.34 -2.66 8.68 -3 8 C-2.34 8 -1.68 8 -1 8 C-0.67 5.36 -0.34 2.72 0 0 Z " fill="#CAD1D0" transform="translate(312,209)"/>
<path d="M0 0 C0.99 0.66 1.98 1.32 3 2 C2.34 2.66 1.68 3.32 1 4 C0.35232207 6.57061311 0.35232207 6.57061311 0 9 C-0.66 8.67 -1.32 8.34 -2 8 C-1.125 2.25 -1.125 2.25 0 0 Z " fill="#3D5463" transform="translate(151,206)"/>
<path d="M0 0 C0.66 0.33 1.32 0.66 2 1 C1.34 1.66 0.68 2.32 0 3 C0.33 3.66 0.66 4.32 1 5 C0.34 5 -0.32 5 -1 5 C-1.33 5.66 -1.66 6.32 -2 7 C-2.99 7 -3.98 7 -5 7 C-3.70700306 4.11562221 -2.34058637 2.12780579 0 0 Z " fill="#314B5A" transform="translate(190,201)"/>
<path d="M0 0 C1.32 0.33 2.64 0.66 4 1 C2.35 2.65 0.7 4.3 -1 6 C-1.66 5.67 -2.32 5.34 -3 5 C-2.01 3.35 -1.02 1.7 0 0 Z " fill="#2C4655" transform="translate(180,355)"/>
<path d="M0 0 C0.99 0.33 1.98 0.66 3 1 C0.64722731 3.72426311 -1.62496331 4.8141763 -5 6 C-3.35 4.02 -1.7 2.04 0 0 Z " fill="#C5D0D0" transform="translate(192,347)"/>
<path d="M0 0 C0 3.90838866 -1.50567876 5.11594107 -4 8 C-4.99 7.67 -5.98 7.34 -7 7 C-4.69 4.69 -2.38 2.38 0 0 Z " fill="#2D4858" transform="translate(193,262)"/>
<path d="M0 0 C1.09658936 3.28976808 0.79953138 4.71303767 0 8 C-0.33 7.34 -0.66 6.68 -1 6 C-1.99 6.33 -2.98 6.66 -4 7 C-2.79618552 4.50638429 -1.54571278 2.31856917 0 0 Z " fill="#BCCAD2" transform="translate(325,154)"/>
</svg>
